M48
; DRILL file {KiCad 7.0.9-7.0.9~ubuntu22.04.1} date Thu 14 Dec 2023 02:13:49 PM EST
; FORMAT={-:-/ absolute / inch / decimal}
; #@! TF.CreationDate,2023-12-14T14:13:49-05:00
; #@! TF.GenerationSoftware,Kicad,Pcbnew,7.0.9-7.0.9~ubuntu22.04.1
; #@! TF.FileFunction,Plated,1,4,PTH
FMAT,2
INCH
; #@! TA.AperFunction,Plated,PTH,ViaDrill
T1C0.0157
; #@! TA.AperFunction,Plated,PTH,ComponentDrill
T2C0.0315
; #@! TA.AperFunction,Plated,PTH,ComponentDrill
T3C0.0354
; #@! TA.AperFunction,Plated,PTH,ComponentDrill
T4C0.0394
; #@! TA.AperFunction,Plated,PTH,ComponentDrill
T5C0.0433
; #@! TA.AperFunction,Plated,PTH,ComponentDrill
T6C0.0512
; #@! TA.AperFunction,Plated,PTH,ComponentDrill
T7C0.1260
%
G90
G05
T1
X1.8Y-3.25
X1.82Y-3.955
X1.83Y-3.64
X1.95Y-2.1
X2.03Y-2.885
X2.46Y-2.745
X2.5509Y-2.7385
X2.59Y-3.385
X2.65Y-2.635
X2.65Y-2.81
X2.7Y-2.2
X2.7Y-3.45
X2.79Y-2.51
X2.8Y-3.45
X2.815Y-2.635
X2.815Y-2.805
X2.85Y-2.1
X2.85Y-2.325
X2.9039Y-2.7027
X2.915Y-2.38
X2.915Y-2.43
X2.94Y-2.75
X3.0Y-2.85
X3.0Y-2.95
X3.005Y-3.4
X3.08Y-2.685
X3.08Y-2.9785
X3.1Y-3.1
X3.105Y-2.635
X3.18Y-2.495
X3.2223Y-2.6873
X3.265Y-2.1
X3.27Y-2.315
X3.27Y-2.5
X3.32Y-2.5785
X3.365Y-2.74
X3.4Y-3.25
X3.45Y-2.55
X3.5Y-2.35
X3.535Y-2.95
X3.55Y-2.9
X3.55Y-3.05
X3.555Y-2.115
X3.59Y-2.585
X3.785Y-2.625
X3.85Y-3.3
X3.95Y-2.745
X3.95Y-2.835
X3.95Y-2.985
X3.995Y-2.485
X4.0Y-2.35
X4.015Y-2.655
X4.015Y-3.55
X4.02Y-2.85
X4.02Y-3.0
X4.02Y-3.4
X4.1Y-3.225
X4.14Y-2.905
X4.15Y-2.2
X4.15Y-2.25
X4.15Y-2.8
X4.15Y-3.15
X4.15Y-3.465
X4.175Y-2.35
X4.175Y-2.475
X4.175Y-2.31
X4.175Y-2.4
X4.195Y-3.55
X4.2Y-2.55
X4.2Y-3.3
X4.2Y-3.45
X4.2085Y-2.935
X4.2085Y-3.0
X4.35Y-3.65
X4.35Y-3.935
X4.5Y-1.9
X4.55Y-2.2
X4.55Y-2.46
X4.55Y-2.85
X4.55Y-2.98
X4.55Y-3.3
X4.55Y-3.4
X4.55Y-3.475
X4.55Y-3.545
X4.565Y-2.72
X4.5715Y-2.335
X4.595Y-3.795
X4.6Y-2.1
X4.6Y-2.5
X4.6Y-3.6
X4.645Y-1.925
X4.65Y-3.1
X4.745Y-3.4285
X4.76Y-3.73
X4.785Y-2.295
X4.785Y-2.45
X5.025Y-2.27
T2
X1.9002Y-3.2002
X1.9002Y-3.3002
X1.9002Y-3.4002
X1.9002Y-3.5002
X1.9002Y-3.6002
X1.9002Y-3.7002
X1.9002Y-3.8002
X1.9002Y-3.9002
X1.9002Y-4.0002
X1.9002Y-4.1002
X1.9002Y-4.2002
X1.9002Y-4.3002
X2.5002Y-3.2002
X2.5002Y-3.3002
X2.5002Y-3.4002
X2.5002Y-3.5002
X2.5002Y-3.6002
X2.5002Y-3.7002
X2.5002Y-3.8002
X2.5002Y-3.9002
X2.5002Y-4.0002
X2.5002Y-4.1002
X2.5002Y-4.2002
X2.5002Y-4.3002
T3
X1.4748Y-3.96
X1.4898Y-3.655
X1.49Y-3.42
X1.5748Y-3.96
X1.5898Y-3.655
X1.59Y-3.42
X1.595Y-2.89
X1.6Y-2.65
X1.695Y-2.89
X1.7Y-2.65
T4
X2.65Y-4.55
X2.75Y-4.55
X2.85Y-4.55
X2.95Y-4.55
X3.05Y-4.55
X3.15Y-4.55
X5.2Y-2.15
X5.2Y-2.25
X5.2Y-2.35
X5.2Y-2.45
X5.2Y-2.55
X5.2Y-2.65
X5.2Y-2.965
X5.2Y-3.065
X5.2Y-3.165
X5.2Y-3.265
X5.2Y-3.6
X5.2Y-3.7
T5
X2.3Y-2.1
X2.4Y-2.1
X2.5Y-2.1
T6
X2.4274Y-1.325
X2.7226Y-1.325
X3.8024Y-1.325
X4.0976Y-1.325
T7
X1.6Y-1.3
X1.6Y-4.5
X5.0Y-1.3
X5.0Y-4.5
T0
M30
