%TF.GenerationSoftware,KiCad,Pcbnew,7.0.9-7.0.9~ubuntu22.04.1*%
%TF.CreationDate,2023-12-14T14:13:45-05:00*%
%TF.ProjectId,monitor_board,6d6f6e69-746f-4725-9f62-6f6172642e6b,rev?*%
%TF.SameCoordinates,Original*%
%TF.FileFunction,Copper,L2,Inr*%
%TF.FilePolarity,Positive*%
%FSLAX46Y46*%
G04 Gerber Fmt 4.6, Leading zero omitted, Abs format (unit mm)*
G04 Created by KiCad (PCBNEW 7.0.9-7.0.9~ubuntu22.04.1) date 2023-12-14 14:13:45*
%MOMM*%
%LPD*%
G01*
G04 APERTURE LIST*
%TA.AperFunction,ComponentPad*%
%ADD10R,1.800000X1.800000*%
%TD*%
%TA.AperFunction,ComponentPad*%
%ADD11C,1.800000*%
%TD*%
%TA.AperFunction,ComponentPad*%
%ADD12C,6.400000*%
%TD*%
%TA.AperFunction,ComponentPad*%
%ADD13R,1.700000X1.700000*%
%TD*%
%TA.AperFunction,ComponentPad*%
%ADD14O,1.700000X1.700000*%
%TD*%
%TA.AperFunction,ComponentPad*%
%ADD15R,1.905000X2.000000*%
%TD*%
%TA.AperFunction,ComponentPad*%
%ADD16O,1.905000X2.000000*%
%TD*%
%TA.AperFunction,ComponentPad*%
%ADD17R,2.500000X2.500000*%
%TD*%
%TA.AperFunction,ComponentPad*%
%ADD18C,2.500000*%
%TD*%
%TA.AperFunction,ComponentPad*%
%ADD19R,1.600000X1.600000*%
%TD*%
%TA.AperFunction,ComponentPad*%
%ADD20O,1.600000X1.600000*%
%TD*%
%TA.AperFunction,ViaPad*%
%ADD21C,0.800000*%
%TD*%
G04 APERTURE END LIST*
D10*
%TO.N,GND*%
%TO.C,LED3*%
X37841000Y-92837000D03*
D11*
%TO.N,Net-(LED3-A)*%
X40381000Y-92837000D03*
%TD*%
D10*
%TO.N,GND*%
%TO.C,5V1*%
X40513000Y-73406000D03*
D11*
%TO.N,Net-(5V1-A)*%
X43053000Y-73406000D03*
%TD*%
D12*
%TO.N,unconnected-(H8-Pad1)*%
%TO.C,H8*%
X127000000Y-114300000D03*
%TD*%
D10*
%TO.N,GND*%
%TO.C,LED2*%
X37460000Y-100584000D03*
D11*
%TO.N,Net-(LED2-A)*%
X40000000Y-100584000D03*
%TD*%
D13*
%TO.N,GND*%
%TO.C,J6*%
X80010000Y-115570000D03*
D14*
%TO.N,unconnected-(J6-Pin_2-Pad2)*%
X77470000Y-115570000D03*
%TO.N,unconnected-(J6-Pin_3-Pad3)*%
X74930000Y-115570000D03*
%TO.N,/RX*%
X72390000Y-115570000D03*
%TO.N,/TX*%
X69850000Y-115570000D03*
%TO.N,unconnected-(J6-Pin_6-Pad6)*%
X67310000Y-115570000D03*
%TD*%
D10*
%TO.N,GND*%
%TO.C,LED1*%
X37846000Y-86868000D03*
D11*
%TO.N,Net-(LED1-A)*%
X40386000Y-86868000D03*
%TD*%
D12*
%TO.N,unconnected-(H6-Pad1)*%
%TO.C,H6*%
X127000000Y-33020000D03*
%TD*%
D10*
%TO.N,GND*%
%TO.C,12V1*%
X40640000Y-67310000D03*
D11*
%TO.N,Net-(12V1-A)*%
X43180000Y-67310000D03*
%TD*%
D13*
%TO.N,/ADC6*%
%TO.C,J1*%
X132080000Y-75311000D03*
D14*
%TO.N,/ADC7*%
X132080000Y-77851000D03*
%TO.N,/ADC8*%
X132080000Y-80391000D03*
%TO.N,GND*%
X132080000Y-82931000D03*
%TD*%
D15*
%TO.N,+12V*%
%TO.C,U3*%
X58420000Y-53340000D03*
D16*
%TO.N,GND*%
X60960000Y-53340000D03*
%TO.N,+5V*%
X63500000Y-53340000D03*
%TD*%
D17*
%TO.N,GND*%
%TO.C,J2*%
X96580000Y-33655000D03*
D18*
%TO.N,Net-(J2-Pin_2)*%
X104080000Y-33655000D03*
%TD*%
D13*
%TO.N,GND*%
%TO.C,J5*%
X132080000Y-91440000D03*
D14*
%TO.N,/ADC10*%
X132080000Y-93980000D03*
%TD*%
D19*
%TO.N,unconnected-(A1-D1{slash}TX-Pad1)*%
%TO.C,A1*%
X63505000Y-109225000D03*
D20*
%TO.N,unconnected-(A1-D0{slash}RX-Pad2)*%
X63505000Y-106685000D03*
%TO.N,unconnected-(A1-GND-Pad3)*%
X63505000Y-104145000D03*
%TO.N,GND*%
X63505000Y-101605000D03*
%TO.N,/SDA{slash}D2*%
X63505000Y-99065000D03*
%TO.N,/SCL{slash}D3*%
X63505000Y-96525000D03*
%TO.N,Net-(A1-D4)*%
X63505000Y-93985000D03*
%TO.N,/CH_A*%
X63505000Y-91445000D03*
%TO.N,Net-(A1-D6)*%
X63505000Y-88905000D03*
%TO.N,Net-(A1-D7)*%
X63505000Y-86365000D03*
%TO.N,/TX*%
X63505000Y-83825000D03*
%TO.N,/RX*%
X63505000Y-81285000D03*
%TO.N,unconnected-(A1-D10-Pad13)*%
X48265000Y-81285000D03*
%TO.N,/IN_ADR*%
X48265000Y-83825000D03*
%TO.N,Net-(A1-D14)*%
X48265000Y-86365000D03*
%TO.N,unconnected-(A1-D15-Pad16)*%
X48265000Y-88905000D03*
%TO.N,unconnected-(A1-A0-Pad17)*%
X48265000Y-91445000D03*
%TO.N,unconnected-(A1-A1-Pad18)*%
X48265000Y-93985000D03*
%TO.N,unconnected-(A1-A2-Pad19)*%
X48265000Y-96525000D03*
%TO.N,unconnected-(A1-A3-Pad20)*%
X48265000Y-99065000D03*
%TO.N,+5V*%
X48265000Y-101605000D03*
%TO.N,unconnected-(A1-~{RESET}-Pad22)*%
X48265000Y-104145000D03*
%TO.N,GND*%
X48265000Y-106685000D03*
%TO.N,N/C*%
X48265000Y-109225000D03*
%TD*%
D17*
%TO.N,GND*%
%TO.C,J4*%
X61655000Y-33655000D03*
D18*
%TO.N,+12V*%
X69155000Y-33655000D03*
%TD*%
D12*
%TO.N,unconnected-(H5-Pad1)*%
%TO.C,H5*%
X40640000Y-33020000D03*
%TD*%
%TO.N,unconnected-(H7-Pad1)*%
%TO.C,H7*%
X40640000Y-114300000D03*
%TD*%
D13*
%TO.N,/ADC0*%
%TO.C,J3*%
X132080000Y-54610000D03*
D14*
%TO.N,/ADC1*%
X132080000Y-57150000D03*
%TO.N,/ADC2*%
X132080000Y-59690000D03*
%TO.N,/ADC3*%
X132080000Y-62230000D03*
%TO.N,/ADC4*%
X132080000Y-64770000D03*
%TO.N,/ADC5*%
X132080000Y-67310000D03*
%TD*%
D21*
%TO.N,/SDA{slash}D2*%
X110490000Y-99949000D03*
%TO.N,/ADC10*%
X120523000Y-87085000D03*
X120904000Y-94742000D03*
%TO.N,/SCL{slash}D3*%
X116713000Y-96393000D03*
%TO.N,GND*%
X78232000Y-68199000D03*
X101981000Y-90170000D03*
X102108000Y-76200000D03*
X101600000Y-59690000D03*
X100330000Y-75819000D03*
X115570000Y-90043000D03*
X89789000Y-74930000D03*
X115570000Y-86360000D03*
X106045500Y-60960000D03*
X116115500Y-59309000D03*
X72390000Y-53340000D03*
X90297000Y-53721000D03*
X90170000Y-77470000D03*
X71501000Y-71247000D03*
X105410000Y-71120000D03*
X115570000Y-55880000D03*
X100330000Y-72009000D03*
X115570000Y-72390000D03*
X78232000Y-75654500D03*
X106680000Y-83820000D03*
X101473000Y-63119000D03*
X81847201Y-68258201D03*
X67310000Y-66929000D03*
X106896500Y-74549000D03*
X67310000Y-71374000D03*
X115570000Y-62484000D03*
X105410000Y-57150000D03*
X101981000Y-67437000D03*
X115570000Y-83820000D03*
X115951000Y-69088000D03*
X106680000Y-87630000D03*
X102108000Y-72390000D03*
X102108000Y-86360000D03*
X80772000Y-63373000D03*
X115570000Y-75692000D03*
X74041000Y-61722000D03*
X49530000Y-53340000D03*
%TO.N,/SDA{slash}D2*%
X106680000Y-64770000D03*
X64792945Y-69558094D03*
X105410000Y-80010000D03*
X110490000Y-92710000D03*
X105410000Y-55880000D03*
X62484000Y-69723000D03*
%TO.N,/SCL{slash}D3*%
X118110000Y-78740000D03*
X116840000Y-53340000D03*
X116840000Y-91440000D03*
X116840000Y-63500000D03*
%TO.N,Net-(A1-D4)*%
X46228000Y-100457000D03*
%TO.N,Net-(A1-D6)*%
X46482000Y-92456000D03*
%TO.N,Net-(A1-D7)*%
X65786000Y-85979000D03*
X76327000Y-86360000D03*
%TO.N,/TX*%
X68580000Y-87630000D03*
%TO.N,/RX*%
X71120000Y-87630000D03*
%TO.N,/IN_ADR*%
X45720000Y-82550000D03*
X86360000Y-82550000D03*
%TO.N,+5V*%
X106896500Y-76200000D03*
X78867000Y-66929000D03*
X74041000Y-60452000D03*
X96139000Y-66675000D03*
X73758180Y-68647500D03*
X106045000Y-59690000D03*
X105156000Y-73787000D03*
X78740000Y-78740000D03*
X106045000Y-62865000D03*
X117983000Y-48895000D03*
X105410000Y-88011000D03*
X71501000Y-66928998D03*
X114300000Y-48260000D03*
X106553000Y-90170000D03*
X51562000Y-73279000D03*
X100330000Y-69723000D03*
X70866000Y-63754000D03*
X68580000Y-55880000D03*
X115570000Y-88265000D03*
%TO.N,+12V*%
X84328000Y-65494500D03*
X83058000Y-58801000D03*
X82931000Y-53340000D03*
X85471000Y-69596000D03*
X83058000Y-63500000D03*
%TO.N,/ADC1*%
X127635000Y-57658000D03*
X106045500Y-58674000D03*
%TO.N,/ADC3*%
X121539000Y-62230000D03*
X121539000Y-58293000D03*
%TO.N,Net-(Q1-G)*%
X88900000Y-59690000D03*
X90170000Y-73660000D03*
%TO.N,Net-(U4--)*%
X76200000Y-72390000D03*
X74676000Y-69850000D03*
%TO.N,/ADC9*%
X76200000Y-74930000D03*
X97790000Y-83820000D03*
%TO.N,/ADC11*%
X87630000Y-64770000D03*
X104140000Y-81915000D03*
X91186000Y-65659000D03*
X72390000Y-59055000D03*
%TD*%
%TA.AperFunction,Conductor*%
%TO.N,GND*%
G36*
X134562539Y-27960185D02*
G01*
X134608294Y-28012989D01*
X134619500Y-28064500D01*
X134619500Y-119255500D01*
X134599815Y-119322539D01*
X134547011Y-119368294D01*
X134495500Y-119379500D01*
X34414500Y-119379500D01*
X34347461Y-119359815D01*
X34301706Y-119307011D01*
X34290500Y-119255500D01*
X34290500Y-114300000D01*
X36934422Y-114300000D01*
X36954722Y-114687339D01*
X36993944Y-114934977D01*
X37015398Y-115070433D01*
X37086177Y-115334586D01*
X37115788Y-115445094D01*
X37254787Y-115807197D01*
X37430877Y-116152793D01*
X37642122Y-116478082D01*
X37791132Y-116662093D01*
X37886219Y-116779516D01*
X38160484Y-117053781D01*
X38160488Y-117053784D01*
X38461917Y-117297877D01*
X38787206Y-117509122D01*
X38787211Y-117509125D01*
X39132806Y-117685214D01*
X39494913Y-117824214D01*
X39869567Y-117924602D01*
X40252662Y-117985278D01*
X40618576Y-118004455D01*
X40639999Y-118005578D01*
X40640000Y-118005578D01*
X40640001Y-118005578D01*
X40660301Y-118004514D01*
X41027338Y-117985278D01*
X41410433Y-117924602D01*
X41785087Y-117824214D01*
X42147194Y-117685214D01*
X42492789Y-117509125D01*
X42818084Y-117297876D01*
X43119516Y-117053781D01*
X43393781Y-116779516D01*
X43637876Y-116478084D01*
X43849125Y-116152789D01*
X44025214Y-115807194D01*
X44116264Y-115570000D01*
X65954341Y-115570000D01*
X65974936Y-115805403D01*
X65974938Y-115805413D01*
X66036094Y-116033655D01*
X66036096Y-116033659D01*
X66036097Y-116033663D01*
X66116004Y-116205023D01*
X66135965Y-116247830D01*
X66135967Y-116247834D01*
X66244281Y-116402521D01*
X66271505Y-116441401D01*
X66438599Y-116608495D01*
X66515135Y-116662086D01*
X66632165Y-116744032D01*
X66632167Y-116744033D01*
X66632170Y-116744035D01*
X66846337Y-116843903D01*
X67074592Y-116905063D01*
X67245319Y-116920000D01*
X67309999Y-116925659D01*
X67310000Y-116925659D01*
X67310001Y-116925659D01*
X67374681Y-116920000D01*
X67545408Y-116905063D01*
X67773663Y-116843903D01*
X67987830Y-116744035D01*
X68181401Y-116608495D01*
X68348495Y-116441401D01*
X68478425Y-116255842D01*
X68533002Y-116212217D01*
X68602500Y-116205023D01*
X68664855Y-116236546D01*
X68681575Y-116255842D01*
X68811500Y-116441395D01*
X68811505Y-116441401D01*
X68978599Y-116608495D01*
X69055135Y-116662086D01*
X69172165Y-116744032D01*
X69172167Y-116744033D01*
X69172170Y-116744035D01*
X69386337Y-116843903D01*
X69614592Y-116905063D01*
X69785319Y-116920000D01*
X69849999Y-116925659D01*
X69850000Y-116925659D01*
X69850001Y-116925659D01*
X69914681Y-116920000D01*
X70085408Y-116905063D01*
X70313663Y-116843903D01*
X70527830Y-116744035D01*
X70721401Y-116608495D01*
X70888495Y-116441401D01*
X71018425Y-116255842D01*
X71073002Y-116212217D01*
X71142500Y-116205023D01*
X71204855Y-116236546D01*
X71221575Y-116255842D01*
X71351500Y-116441395D01*
X71351505Y-116441401D01*
X71518599Y-116608495D01*
X71595135Y-116662086D01*
X71712165Y-116744032D01*
X71712167Y-116744033D01*
X71712170Y-116744035D01*
X71926337Y-116843903D01*
X72154592Y-116905063D01*
X72325319Y-116920000D01*
X72389999Y-116925659D01*
X72390000Y-116925659D01*
X72390001Y-116925659D01*
X72454681Y-116920000D01*
X72625408Y-116905063D01*
X72853663Y-116843903D01*
X73067830Y-116744035D01*
X73261401Y-116608495D01*
X73428495Y-116441401D01*
X73558425Y-116255842D01*
X73613002Y-116212217D01*
X73682500Y-116205023D01*
X73744855Y-116236546D01*
X73761575Y-116255842D01*
X73891500Y-116441395D01*
X73891505Y-116441401D01*
X74058599Y-116608495D01*
X74135135Y-116662086D01*
X74252165Y-116744032D01*
X74252167Y-116744033D01*
X74252170Y-116744035D01*
X74466337Y-116843903D01*
X74694592Y-116905063D01*
X74865319Y-116920000D01*
X74929999Y-116925659D01*
X74930000Y-116925659D01*
X74930001Y-116925659D01*
X74994681Y-116920000D01*
X75165408Y-116905063D01*
X75393663Y-116843903D01*
X75607830Y-116744035D01*
X75801401Y-116608495D01*
X75968495Y-116441401D01*
X76098425Y-116255842D01*
X76153002Y-116212217D01*
X76222500Y-116205023D01*
X76284855Y-116236546D01*
X76301575Y-116255842D01*
X76431500Y-116441395D01*
X76431505Y-116441401D01*
X76598599Y-116608495D01*
X76675135Y-116662086D01*
X76792165Y-116744032D01*
X76792167Y-116744033D01*
X76792170Y-116744035D01*
X77006337Y-116843903D01*
X77234592Y-116905063D01*
X77405319Y-116920000D01*
X77469999Y-116925659D01*
X77470000Y-116925659D01*
X77470001Y-116925659D01*
X77534681Y-116920000D01*
X77705408Y-116905063D01*
X77933663Y-116843903D01*
X78147830Y-116744035D01*
X78341401Y-116608495D01*
X78463717Y-116486178D01*
X78525036Y-116452696D01*
X78594728Y-116457680D01*
X78650662Y-116499551D01*
X78667577Y-116530528D01*
X78716646Y-116662088D01*
X78716649Y-116662093D01*
X78802809Y-116777187D01*
X78802812Y-116777190D01*
X78917906Y-116863350D01*
X78917913Y-116863354D01*
X79052620Y-116913596D01*
X79052627Y-116913598D01*
X79112155Y-116919999D01*
X79112172Y-116920000D01*
X79760000Y-116920000D01*
X79760000Y-116005501D01*
X79867685Y-116054680D01*
X79974237Y-116070000D01*
X80045763Y-116070000D01*
X80152315Y-116054680D01*
X80260000Y-116005501D01*
X80260000Y-116920000D01*
X80907828Y-116920000D01*
X80907844Y-116919999D01*
X80967372Y-116913598D01*
X80967379Y-116913596D01*
X81102086Y-116863354D01*
X81102093Y-116863350D01*
X81217187Y-116777190D01*
X81217190Y-116777187D01*
X81303350Y-116662093D01*
X81303354Y-116662086D01*
X81353596Y-116527379D01*
X81353598Y-116527372D01*
X81359999Y-116467844D01*
X81360000Y-116467827D01*
X81360000Y-115820000D01*
X80443686Y-115820000D01*
X80469493Y-115779844D01*
X80510000Y-115641889D01*
X80510000Y-115498111D01*
X80469493Y-115360156D01*
X80443686Y-115320000D01*
X81360000Y-115320000D01*
X81360000Y-114672172D01*
X81359999Y-114672155D01*
X81353598Y-114612627D01*
X81353596Y-114612620D01*
X81303354Y-114477913D01*
X81303350Y-114477906D01*
X81217190Y-114362812D01*
X81217187Y-114362809D01*
X81133286Y-114300000D01*
X123294422Y-114300000D01*
X123314722Y-114687339D01*
X123353944Y-114934977D01*
X123375398Y-115070433D01*
X123446177Y-115334586D01*
X123475788Y-115445094D01*
X123614787Y-115807197D01*
X123790877Y-116152793D01*
X124002122Y-116478082D01*
X124151132Y-116662093D01*
X124246219Y-116779516D01*
X124520484Y-117053781D01*
X124520488Y-117053784D01*
X124821917Y-117297877D01*
X125147206Y-117509122D01*
X125147211Y-117509125D01*
X125492806Y-117685214D01*
X125854913Y-117824214D01*
X126229567Y-117924602D01*
X126612662Y-117985278D01*
X126978576Y-118004455D01*
X126999999Y-118005578D01*
X127000000Y-118005578D01*
X127000001Y-118005578D01*
X127020301Y-118004514D01*
X127387338Y-117985278D01*
X127770433Y-117924602D01*
X128145087Y-117824214D01*
X128507194Y-117685214D01*
X128852789Y-117509125D01*
X129178084Y-117297876D01*
X129479516Y-117053781D01*
X129753781Y-116779516D01*
X129997876Y-116478084D01*
X130209125Y-116152789D01*
X130385214Y-115807194D01*
X130524214Y-115445087D01*
X130624602Y-115070433D01*
X130685278Y-114687338D01*
X130705578Y-114300000D01*
X130685278Y-113912662D01*
X130624602Y-113529567D01*
X130524214Y-113154913D01*
X130385214Y-112792806D01*
X130209125Y-112447211D01*
X129997876Y-112121916D01*
X129753781Y-111820484D01*
X129479516Y-111546219D01*
X129178084Y-111302124D01*
X129178082Y-111302122D01*
X128852793Y-111090877D01*
X128507197Y-110914787D01*
X128145094Y-110775788D01*
X128145087Y-110775786D01*
X127770433Y-110675398D01*
X127770429Y-110675397D01*
X127770428Y-110675397D01*
X127387339Y-110614722D01*
X127000001Y-110594422D01*
X126999999Y-110594422D01*
X126612660Y-110614722D01*
X126229572Y-110675397D01*
X126229570Y-110675397D01*
X125854905Y-110775788D01*
X125492802Y-110914787D01*
X125147206Y-111090877D01*
X124821917Y-111302122D01*
X124520488Y-111546215D01*
X124520480Y-111546222D01*
X124246222Y-111820480D01*
X124246215Y-111820488D01*
X124002122Y-112121917D01*
X123790877Y-112447206D01*
X123614787Y-112792802D01*
X123475788Y-113154905D01*
X123375397Y-113529570D01*
X123375397Y-113529572D01*
X123314722Y-113912660D01*
X123294422Y-114299999D01*
X123294422Y-114300000D01*
X81133286Y-114300000D01*
X81102093Y-114276649D01*
X81102086Y-114276645D01*
X80967379Y-114226403D01*
X80967372Y-114226401D01*
X80907844Y-114220000D01*
X80260000Y-114220000D01*
X80260000Y-115134498D01*
X80152315Y-115085320D01*
X80045763Y-115070000D01*
X79974237Y-115070000D01*
X79867685Y-115085320D01*
X79760000Y-115134498D01*
X79760000Y-114220000D01*
X79112155Y-114220000D01*
X79052627Y-114226401D01*
X79052620Y-114226403D01*
X78917913Y-114276645D01*
X78917906Y-114276649D01*
X78802812Y-114362809D01*
X78802809Y-114362812D01*
X78716649Y-114477906D01*
X78716645Y-114477913D01*
X78667578Y-114609470D01*
X78625707Y-114665404D01*
X78560242Y-114689821D01*
X78491969Y-114674969D01*
X78463715Y-114653819D01*
X78419366Y-114609470D01*
X78341401Y-114531505D01*
X78341397Y-114531502D01*
X78341396Y-114531501D01*
X78147834Y-114395967D01*
X78147830Y-114395965D01*
X78076727Y-114362809D01*
X77933663Y-114296097D01*
X77933659Y-114296096D01*
X77933655Y-114296094D01*
X77705413Y-114234938D01*
X77705403Y-114234936D01*
X77470001Y-114214341D01*
X77469999Y-114214341D01*
X77234596Y-114234936D01*
X77234586Y-114234938D01*
X77006344Y-114296094D01*
X77006335Y-114296098D01*
X76792171Y-114395964D01*
X76792169Y-114395965D01*
X76598597Y-114531505D01*
X76431505Y-114698597D01*
X76301575Y-114884158D01*
X76246998Y-114927783D01*
X76177500Y-114934977D01*
X76115145Y-114903454D01*
X76098425Y-114884158D01*
X75968494Y-114698597D01*
X75801402Y-114531506D01*
X75801395Y-114531501D01*
X75607834Y-114395967D01*
X75607830Y-114395965D01*
X75536727Y-114362809D01*
X75393663Y-114296097D01*
X75393659Y-114296096D01*
X75393655Y-114296094D01*
X75165413Y-114234938D01*
X75165403Y-114234936D01*
X74930001Y-114214341D01*
X74929999Y-114214341D01*
X74694596Y-114234936D01*
X74694586Y-114234938D01*
X74466344Y-114296094D01*
X74466335Y-114296098D01*
X74252171Y-114395964D01*
X74252169Y-114395965D01*
X74058597Y-114531505D01*
X73891505Y-114698597D01*
X73761575Y-114884158D01*
X73706998Y-114927783D01*
X73637500Y-114934977D01*
X73575145Y-114903454D01*
X73558425Y-114884158D01*
X73428494Y-114698597D01*
X73261402Y-114531506D01*
X73261395Y-114531501D01*
X73067834Y-114395967D01*
X73067830Y-114395965D01*
X72996727Y-114362809D01*
X72853663Y-114296097D01*
X72853659Y-114296096D01*
X72853655Y-114296094D01*
X72625413Y-114234938D01*
X72625403Y-114234936D01*
X72390001Y-114214341D01*
X72389999Y-114214341D01*
X72154596Y-114234936D01*
X72154586Y-114234938D01*
X71926344Y-114296094D01*
X71926335Y-114296098D01*
X71712171Y-114395964D01*
X71712169Y-114395965D01*
X71518597Y-114531505D01*
X71351505Y-114698597D01*
X71221575Y-114884158D01*
X71166998Y-114927783D01*
X71097500Y-114934977D01*
X71035145Y-114903454D01*
X71018425Y-114884158D01*
X70888494Y-114698597D01*
X70721402Y-114531506D01*
X70721395Y-114531501D01*
X70527834Y-114395967D01*
X70527830Y-114395965D01*
X70456727Y-114362809D01*
X70313663Y-114296097D01*
X70313659Y-114296096D01*
X70313655Y-114296094D01*
X70085413Y-114234938D01*
X70085403Y-114234936D01*
X69850001Y-114214341D01*
X69849999Y-114214341D01*
X69614596Y-114234936D01*
X69614586Y-114234938D01*
X69386344Y-114296094D01*
X69386335Y-114296098D01*
X69172171Y-114395964D01*
X69172169Y-114395965D01*
X68978597Y-114531505D01*
X68811505Y-114698597D01*
X68681575Y-114884158D01*
X68626998Y-114927783D01*
X68557500Y-114934977D01*
X68495145Y-114903454D01*
X68478425Y-114884158D01*
X68348494Y-114698597D01*
X68181402Y-114531506D01*
X68181395Y-114531501D01*
X67987834Y-114395967D01*
X67987830Y-114395965D01*
X67916727Y-114362809D01*
X67773663Y-114296097D01*
X67773659Y-114296096D01*
X67773655Y-114296094D01*
X67545413Y-114234938D01*
X67545403Y-114234936D01*
X67310001Y-114214341D01*
X67309999Y-114214341D01*
X67074596Y-114234936D01*
X67074586Y-114234938D01*
X66846344Y-114296094D01*
X66846335Y-114296098D01*
X66632171Y-114395964D01*
X66632169Y-114395965D01*
X66438597Y-114531505D01*
X66271505Y-114698597D01*
X66135965Y-114892169D01*
X66135964Y-114892171D01*
X66036098Y-115106335D01*
X66036094Y-115106344D01*
X65974938Y-115334586D01*
X65974936Y-115334596D01*
X65954341Y-115569999D01*
X65954341Y-115570000D01*
X44116264Y-115570000D01*
X44164214Y-115445087D01*
X44264602Y-115070433D01*
X44325278Y-114687338D01*
X44345578Y-114300000D01*
X44325278Y-113912662D01*
X44264602Y-113529567D01*
X44164214Y-113154913D01*
X44025214Y-112792806D01*
X43849125Y-112447211D01*
X43637876Y-112121916D01*
X43393781Y-111820484D01*
X43119516Y-111546219D01*
X42818084Y-111302124D01*
X42818082Y-111302122D01*
X42492793Y-111090877D01*
X42147197Y-110914787D01*
X41785094Y-110775788D01*
X41785087Y-110775786D01*
X41410433Y-110675398D01*
X41410429Y-110675397D01*
X41410428Y-110675397D01*
X41027339Y-110614722D01*
X40640001Y-110594422D01*
X40639999Y-110594422D01*
X40252660Y-110614722D01*
X39869572Y-110675397D01*
X39869570Y-110675397D01*
X39494905Y-110775788D01*
X39132802Y-110914787D01*
X38787206Y-111090877D01*
X38461917Y-111302122D01*
X38160488Y-111546215D01*
X38160480Y-111546222D01*
X37886222Y-111820480D01*
X37886215Y-111820488D01*
X37642122Y-112121917D01*
X37430877Y-112447206D01*
X37254787Y-112792802D01*
X37115788Y-113154905D01*
X37015397Y-113529570D01*
X37015397Y-113529572D01*
X36954722Y-113912660D01*
X36934422Y-114299999D01*
X36934422Y-114300000D01*
X34290500Y-114300000D01*
X34290500Y-101531844D01*
X36060000Y-101531844D01*
X36066401Y-101591372D01*
X36066403Y-101591379D01*
X36116645Y-101726086D01*
X36116649Y-101726093D01*
X36202809Y-101841187D01*
X36202812Y-101841190D01*
X36317906Y-101927350D01*
X36317913Y-101927354D01*
X36452620Y-101977596D01*
X36452627Y-101977598D01*
X36512155Y-101983999D01*
X36512172Y-101984000D01*
X37210000Y-101984000D01*
X37210000Y-100958189D01*
X37262547Y-100994016D01*
X37392173Y-101034000D01*
X37493724Y-101034000D01*
X37594138Y-101018865D01*
X37710000Y-100963068D01*
X37710000Y-101984000D01*
X38407828Y-101984000D01*
X38407844Y-101983999D01*
X38467372Y-101977598D01*
X38467379Y-101977596D01*
X38602086Y-101927354D01*
X38602093Y-101927350D01*
X38717187Y-101841190D01*
X38717190Y-101841187D01*
X38803350Y-101726093D01*
X38803355Y-101726084D01*
X38832075Y-101649081D01*
X38873945Y-101593147D01*
X38939409Y-101568729D01*
X39007682Y-101583580D01*
X39039484Y-101608428D01*
X39048216Y-101617913D01*
X39048219Y-101617915D01*
X39048222Y-101617918D01*
X39231365Y-101760464D01*
X39231371Y-101760468D01*
X39231374Y-101760470D01*
X39435497Y-101870936D01*
X39549487Y-101910068D01*
X39655015Y-101946297D01*
X39655017Y-101946297D01*
X39655019Y-101946298D01*
X39883951Y-101984500D01*
X39883952Y-101984500D01*
X40116048Y-101984500D01*
X40116049Y-101984500D01*
X40344981Y-101946298D01*
X40564503Y-101870936D01*
X40768626Y-101760470D01*
X40951784Y-101617913D01*
X41108979Y-101447153D01*
X41235924Y-101252849D01*
X41329157Y-101040300D01*
X41386134Y-100815305D01*
X41390231Y-100765861D01*
X41405300Y-100584006D01*
X41405300Y-100583993D01*
X41394777Y-100457000D01*
X45322540Y-100457000D01*
X45342326Y-100645256D01*
X45342327Y-100645259D01*
X45400818Y-100825277D01*
X45400821Y-100825284D01*
X45495467Y-100989216D01*
X45614051Y-101120916D01*
X45622129Y-101129888D01*
X45775265Y-101241148D01*
X45775270Y-101241151D01*
X45948192Y-101318142D01*
X45948197Y-101318144D01*
X46133354Y-101357500D01*
X46133355Y-101357500D01*
X46322644Y-101357500D01*
X46322646Y-101357500D01*
X46507803Y-101318144D01*
X46680730Y-101241151D01*
X46813904Y-101144394D01*
X46879706Y-101120916D01*
X46947760Y-101136741D01*
X46996455Y-101186847D01*
X47010331Y-101255325D01*
X47006561Y-101276806D01*
X46979367Y-101378299D01*
X46979364Y-101378313D01*
X46959532Y-101604998D01*
X46959532Y-101605001D01*
X46979364Y-101831686D01*
X46979366Y-101831697D01*
X47038258Y-102051488D01*
X47038261Y-102051497D01*
X47134431Y-102257732D01*
X47134432Y-102257734D01*
X47264954Y-102444141D01*
X47425858Y-102605045D01*
X47425861Y-102605047D01*
X47612266Y-102735568D01*
X47669681Y-102762341D01*
X47670275Y-102762618D01*
X47722714Y-102808791D01*
X47741866Y-102875984D01*
X47721650Y-102942865D01*
X47670275Y-102987382D01*
X47612267Y-103014431D01*
X47612265Y-103014432D01*
X47425858Y-103144954D01*
X47264954Y-103305858D01*
X47134432Y-103492265D01*
X47134431Y-103492267D01*
X47038261Y-103698502D01*
X47038258Y-103698511D01*
X46979366Y-103918302D01*
X46979364Y-103918313D01*
X46959532Y-104144998D01*
X46959532Y-104145001D01*
X46979364Y-104371686D01*
X46979366Y-104371697D01*
X47038258Y-104591488D01*
X47038261Y-104591497D01*
X47134431Y-104797732D01*
X47134432Y-104797734D01*
X47264954Y-104984141D01*
X47425858Y-105145045D01*
X47425861Y-105145047D01*
X47612266Y-105275568D01*
X47670865Y-105302893D01*
X47723305Y-105349065D01*
X47742457Y-105416258D01*
X47722242Y-105483139D01*
X47670867Y-105527657D01*
X47612515Y-105554867D01*
X47426179Y-105685342D01*
X47265342Y-105846179D01*
X47134865Y-106032517D01*
X47038734Y-106238673D01*
X47038730Y-106238682D01*
X46986127Y-106434999D01*
X46986128Y-106435000D01*
X47949314Y-106435000D01*
X47937359Y-106446955D01*
X47879835Y-106559852D01*
X47860014Y-106685000D01*
X47879835Y-106810148D01*
X47937359Y-106923045D01*
X47949314Y-106935000D01*
X46986128Y-106935000D01*
X47038730Y-107131317D01*
X47038734Y-107131326D01*
X47134865Y-107337482D01*
X47265342Y-107523820D01*
X47426179Y-107684657D01*
X47612518Y-107815134D01*
X47612520Y-107815135D01*
X47670865Y-107842342D01*
X47723305Y-107888514D01*
X47742457Y-107955707D01*
X47722242Y-108022589D01*
X47670867Y-108067105D01*
X47612268Y-108094431D01*
X47612264Y-108094433D01*
X47425858Y-108224954D01*
X47264954Y-108385858D01*
X47134432Y-108572265D01*
X47134431Y-108572267D01*
X47038261Y-108778502D01*
X47038258Y-108778511D01*
X46979366Y-108998302D01*
X46979364Y-108998313D01*
X46959532Y-109224998D01*
X46959532Y-109225001D01*
X46979364Y-109451686D01*
X46979366Y-109451697D01*
X47038258Y-109671488D01*
X47038261Y-109671497D01*
X47134431Y-109877732D01*
X47134432Y-109877734D01*
X47264954Y-110064141D01*
X47425858Y-110225045D01*
X47425861Y-110225047D01*
X47612266Y-110355568D01*
X47818504Y-110451739D01*
X48038308Y-110510635D01*
X48200230Y-110524801D01*
X48264998Y-110530468D01*
X48265000Y-110530468D01*
X48265002Y-110530468D01*
X48321807Y-110525498D01*
X48491692Y-110510635D01*
X48711496Y-110451739D01*
X48917734Y-110355568D01*
X49104139Y-110225047D01*
X49265047Y-110064139D01*
X49395568Y-109877734D01*
X49491739Y-109671496D01*
X49550635Y-109451692D01*
X49570468Y-109225000D01*
X49550635Y-108998308D01*
X49491739Y-108778504D01*
X49395568Y-108572266D01*
X49265047Y-108385861D01*
X49265045Y-108385858D01*
X49104141Y-108224954D01*
X48917734Y-108094432D01*
X48917732Y-108094431D01*
X48906275Y-108089088D01*
X48859132Y-108067105D01*
X48806694Y-108020934D01*
X48787542Y-107953740D01*
X48807758Y-107886859D01*
X48859134Y-107842341D01*
X48917484Y-107815132D01*
X49103820Y-107684657D01*
X49264657Y-107523820D01*
X49395134Y-107337482D01*
X49491265Y-107131326D01*
X49491269Y-107131317D01*
X49543872Y-106935000D01*
X48580686Y-106935000D01*
X48592641Y-106923045D01*
X48650165Y-106810148D01*
X48669986Y-106685001D01*
X62199532Y-106685001D01*
X62219364Y-106911686D01*
X62219366Y-106911697D01*
X62278258Y-107131488D01*
X62278261Y-107131497D01*
X62374431Y-107337732D01*
X62374432Y-107337734D01*
X62504954Y-107524141D01*
X62665858Y-107685045D01*
X62690462Y-107702273D01*
X62734087Y-107756849D01*
X62741281Y-107826348D01*
X62709758Y-107888703D01*
X62649529Y-107924117D01*
X62632593Y-107927138D01*
X62597516Y-107930908D01*
X62462671Y-107981202D01*
X62462664Y-107981206D01*
X62347455Y-108067452D01*
X62347452Y-108067455D01*
X62261206Y-108182664D01*
X62261202Y-108182671D01*
X62210908Y-108317517D01*
X62204501Y-108377116D01*
X62204501Y-108377123D01*
X62204500Y-108377135D01*
X62204500Y-110072870D01*
X62204501Y-110072876D01*
X62210908Y-110132483D01*
X62261202Y-110267328D01*
X62261206Y-110267335D01*
X62347452Y-110382544D01*
X62347455Y-110382547D01*
X62462664Y-110468793D01*
X62462671Y-110468797D01*
X62597517Y-110519091D01*
X62597516Y-110519091D01*
X62604444Y-110519835D01*
X62657127Y-110525500D01*
X64352872Y-110525499D01*
X64412483Y-110519091D01*
X64547331Y-110468796D01*
X64662546Y-110382546D01*
X64748796Y-110267331D01*
X64799091Y-110132483D01*
X64805500Y-110072873D01*
X64805499Y-108377128D01*
X64799091Y-108317517D01*
X64764567Y-108224954D01*
X64748797Y-108182671D01*
X64748793Y-108182664D01*
X64662547Y-108067455D01*
X64662544Y-108067452D01*
X64547335Y-107981206D01*
X64547328Y-107981202D01*
X64412482Y-107930908D01*
X64412483Y-107930908D01*
X64377404Y-107927137D01*
X64312853Y-107900399D01*
X64273005Y-107843006D01*
X64270512Y-107773181D01*
X64306165Y-107713092D01*
X64319539Y-107702272D01*
X64344140Y-107685046D01*
X64505045Y-107524141D01*
X64505047Y-107524139D01*
X64635568Y-107337734D01*
X64731739Y-107131496D01*
X64790635Y-106911692D01*
X64810468Y-106685000D01*
X64790635Y-106458308D01*
X64731739Y-106238504D01*
X64635568Y-106032266D01*
X64505047Y-105845861D01*
X64505045Y-105845858D01*
X64344141Y-105684954D01*
X64157734Y-105554432D01*
X64157728Y-105554429D01*
X64099725Y-105527382D01*
X64047285Y-105481210D01*
X64028133Y-105414017D01*
X64048348Y-105347135D01*
X64099725Y-105302618D01*
X64157734Y-105275568D01*
X64344139Y-105145047D01*
X64505047Y-104984139D01*
X64635568Y-104797734D01*
X64731739Y-104591496D01*
X64790635Y-104371692D01*
X64810468Y-104145000D01*
X64790635Y-103918308D01*
X64731739Y-103698504D01*
X64635568Y-103492266D01*
X64505047Y-103305861D01*
X64505045Y-103305858D01*
X64344141Y-103144954D01*
X64157734Y-103014432D01*
X64157732Y-103014431D01*
X64099725Y-102987382D01*
X64099132Y-102987105D01*
X64046694Y-102940934D01*
X64027542Y-102873740D01*
X64047758Y-102806859D01*
X64099134Y-102762341D01*
X64157484Y-102735132D01*
X64343820Y-102604657D01*
X64504657Y-102443820D01*
X64635134Y-102257482D01*
X64731265Y-102051326D01*
X64731269Y-102051317D01*
X64783872Y-101855000D01*
X63820686Y-101855000D01*
X63832641Y-101843045D01*
X63890165Y-101730148D01*
X63909986Y-101605000D01*
X63890165Y-101479852D01*
X63832641Y-101366955D01*
X63820686Y-101355000D01*
X64783872Y-101355000D01*
X64783872Y-101354999D01*
X64731269Y-101158682D01*
X64731265Y-101158673D01*
X64635134Y-100952517D01*
X64504657Y-100766179D01*
X64343820Y-100605342D01*
X64157482Y-100474865D01*
X64099133Y-100447657D01*
X64046694Y-100401484D01*
X64027542Y-100334291D01*
X64047758Y-100267410D01*
X64099129Y-100222895D01*
X64157734Y-100195568D01*
X64344139Y-100065047D01*
X64460186Y-99949000D01*
X109584540Y-99949000D01*
X109604326Y-100137256D01*
X109604327Y-100137259D01*
X109662818Y-100317277D01*
X109662821Y-100317284D01*
X109757467Y-100481216D01*
X109850020Y-100584006D01*
X109884129Y-100621888D01*
X110037265Y-100733148D01*
X110037270Y-100733151D01*
X110210192Y-100810142D01*
X110210197Y-100810144D01*
X110395354Y-100849500D01*
X110395355Y-100849500D01*
X110584644Y-100849500D01*
X110584646Y-100849500D01*
X110769803Y-100810144D01*
X110942730Y-100733151D01*
X111095871Y-100621888D01*
X111222533Y-100481216D01*
X111317179Y-100317284D01*
X111375674Y-100137256D01*
X111395460Y-99949000D01*
X111375674Y-99760744D01*
X111317179Y-99580716D01*
X111222533Y-99416784D01*
X111095871Y-99276112D01*
X111095870Y-99276111D01*
X110942734Y-99164851D01*
X110942729Y-99164848D01*
X110769807Y-99087857D01*
X110769802Y-99087855D01*
X110624001Y-99056865D01*
X110584646Y-99048500D01*
X110395354Y-99048500D01*
X110362897Y-99055398D01*
X110210197Y-99087855D01*
X110210192Y-99087857D01*
X110037270Y-99164848D01*
X110037265Y-99164851D01*
X109884129Y-99276111D01*
X109757466Y-99416785D01*
X109662821Y-99580715D01*
X109662818Y-99580722D01*
X109604327Y-99760740D01*
X109604326Y-99760744D01*
X109584540Y-99949000D01*
X64460186Y-99949000D01*
X64505047Y-99904139D01*
X64635568Y-99717734D01*
X64731739Y-99511496D01*
X64790635Y-99291692D01*
X64810468Y-99065000D01*
X64809024Y-99048500D01*
X64790635Y-98838313D01*
X64790635Y-98838308D01*
X64731739Y-98618504D01*
X64635568Y-98412266D01*
X64505047Y-98225861D01*
X64505045Y-98225858D01*
X64344141Y-98064954D01*
X64157734Y-97934432D01*
X64157728Y-97934429D01*
X64099725Y-97907382D01*
X64047285Y-97861210D01*
X64028133Y-97794017D01*
X64048348Y-97727135D01*
X64099725Y-97682618D01*
X64157734Y-97655568D01*
X64344139Y-97525047D01*
X64505047Y-97364139D01*
X64635568Y-97177734D01*
X64731739Y-96971496D01*
X64790635Y-96751692D01*
X64810468Y-96525000D01*
X64798919Y-96393000D01*
X115807540Y-96393000D01*
X115827326Y-96581256D01*
X115827327Y-96581259D01*
X115885818Y-96761277D01*
X115885821Y-96761284D01*
X115980467Y-96925216D01*
X116022131Y-96971488D01*
X116107129Y-97065888D01*
X116260265Y-97177148D01*
X116260270Y-97177151D01*
X116433192Y-97254142D01*
X116433197Y-97254144D01*
X116618354Y-97293500D01*
X116618355Y-97293500D01*
X116807644Y-97293500D01*
X116807646Y-97293500D01*
X116992803Y-97254144D01*
X117165730Y-97177151D01*
X117318871Y-97065888D01*
X117445533Y-96925216D01*
X117540179Y-96761284D01*
X117598674Y-96581256D01*
X117618460Y-96393000D01*
X117598674Y-96204744D01*
X117540179Y-96024716D01*
X117445533Y-95860784D01*
X117318871Y-95720112D01*
X117318870Y-95720111D01*
X117165734Y-95608851D01*
X117165729Y-95608848D01*
X116992807Y-95531857D01*
X116992802Y-95531855D01*
X116847001Y-95500865D01*
X116807646Y-95492500D01*
X116618354Y-95492500D01*
X116585897Y-95499398D01*
X116433197Y-95531855D01*
X116433192Y-95531857D01*
X116260270Y-95608848D01*
X116260265Y-95608851D01*
X116107129Y-95720111D01*
X115980466Y-95860785D01*
X115885821Y-96024715D01*
X115885818Y-96024722D01*
X115827327Y-96204740D01*
X115827326Y-96204744D01*
X115807540Y-96393000D01*
X64798919Y-96393000D01*
X64790635Y-96298308D01*
X64731739Y-96078504D01*
X64635568Y-95872266D01*
X64505047Y-95685861D01*
X64505045Y-95685858D01*
X64344141Y-95524954D01*
X64157734Y-95394432D01*
X64157728Y-95394429D01*
X64099725Y-95367382D01*
X64047285Y-95321210D01*
X64028133Y-95254017D01*
X64048348Y-95187135D01*
X64099725Y-95142618D01*
X64157734Y-95115568D01*
X64344139Y-94985047D01*
X64505047Y-94824139D01*
X64562561Y-94742000D01*
X119998540Y-94742000D01*
X120018326Y-94930256D01*
X120018327Y-94930259D01*
X120076818Y-95110277D01*
X120076821Y-95110284D01*
X120171467Y-95274216D01*
X120279708Y-95394429D01*
X120298129Y-95414888D01*
X120451265Y-95526148D01*
X120451270Y-95526151D01*
X120624192Y-95603142D01*
X120624197Y-95603144D01*
X120809354Y-95642500D01*
X120809355Y-95642500D01*
X120998644Y-95642500D01*
X120998646Y-95642500D01*
X121183803Y-95603144D01*
X121356730Y-95526151D01*
X121509871Y-95414888D01*
X121636533Y-95274216D01*
X121731179Y-95110284D01*
X121789674Y-94930256D01*
X121809460Y-94742000D01*
X121789674Y-94553744D01*
X121731179Y-94373716D01*
X121636533Y-94209784D01*
X121509871Y-94069112D01*
X121509870Y-94069111D01*
X121387219Y-93980000D01*
X130724341Y-93980000D01*
X130744936Y-94215403D01*
X130744938Y-94215413D01*
X130806094Y-94443655D01*
X130806096Y-94443659D01*
X130806097Y-94443663D01*
X130857427Y-94553740D01*
X130905965Y-94657830D01*
X130905967Y-94657834D01*
X131014281Y-94812521D01*
X131041505Y-94851401D01*
X131208599Y-95018495D01*
X131305384Y-95086265D01*
X131402165Y-95154032D01*
X131402167Y-95154033D01*
X131402170Y-95154035D01*
X131616337Y-95253903D01*
X131844592Y-95315063D01*
X132032918Y-95331539D01*
X132079999Y-95335659D01*
X132080000Y-95335659D01*
X132080001Y-95335659D01*
X132119234Y-95332226D01*
X132315408Y-95315063D01*
X132543663Y-95253903D01*
X132757830Y-95154035D01*
X132951401Y-95018495D01*
X133118495Y-94851401D01*
X133254035Y-94657830D01*
X133353903Y-94443663D01*
X133415063Y-94215408D01*
X133435659Y-93980000D01*
X133415063Y-93744592D01*
X133368588Y-93571142D01*
X133353905Y-93516344D01*
X133353904Y-93516343D01*
X133353903Y-93516337D01*
X133254035Y-93302171D01*
X133247823Y-93293300D01*
X133118496Y-93108600D01*
X133074437Y-93064541D01*
X132996179Y-92986283D01*
X132962696Y-92924963D01*
X132967680Y-92855271D01*
X133009551Y-92799337D01*
X133040529Y-92782422D01*
X133172086Y-92733354D01*
X133172093Y-92733350D01*
X133287187Y-92647190D01*
X133287190Y-92647187D01*
X133373350Y-92532093D01*
X133373354Y-92532086D01*
X133423596Y-92397379D01*
X133423598Y-92397372D01*
X133429999Y-92337844D01*
X133430000Y-92337827D01*
X133430000Y-91690000D01*
X132513686Y-91690000D01*
X132539493Y-91649844D01*
X132580000Y-91511889D01*
X132580000Y-91368111D01*
X132539493Y-91230156D01*
X132513686Y-91190000D01*
X133430000Y-91190000D01*
X133430000Y-90542172D01*
X133429999Y-90542155D01*
X133423598Y-90482627D01*
X133423596Y-90482620D01*
X133373354Y-90347913D01*
X133373350Y-90347906D01*
X133287190Y-90232812D01*
X133287187Y-90232809D01*
X133172093Y-90146649D01*
X133172086Y-90146645D01*
X133037379Y-90096403D01*
X133037372Y-90096401D01*
X132977844Y-90090000D01*
X132330000Y-90090000D01*
X132330000Y-91004498D01*
X132222315Y-90955320D01*
X132115763Y-90940000D01*
X132044237Y-90940000D01*
X131937685Y-90955320D01*
X131830000Y-91004498D01*
X131830000Y-90090000D01*
X131182155Y-90090000D01*
X131122627Y-90096401D01*
X131122620Y-90096403D01*
X130987913Y-90146645D01*
X130987906Y-90146649D01*
X130872812Y-90232809D01*
X130872809Y-90232812D01*
X130786649Y-90347906D01*
X130786645Y-90347913D01*
X130736403Y-90482620D01*
X130736401Y-90482627D01*
X130730000Y-90542155D01*
X130730000Y-91190000D01*
X131646314Y-91190000D01*
X131620507Y-91230156D01*
X131580000Y-91368111D01*
X131580000Y-91511889D01*
X131620507Y-91649844D01*
X131646314Y-91690000D01*
X130730000Y-91690000D01*
X130730000Y-92337844D01*
X130736401Y-92397372D01*
X130736403Y-92397379D01*
X130786645Y-92532086D01*
X130786649Y-92532093D01*
X130872809Y-92647187D01*
X130872812Y-92647190D01*
X130987906Y-92733350D01*
X130987913Y-92733354D01*
X131119470Y-92782421D01*
X131175403Y-92824292D01*
X131199821Y-92889756D01*
X131184970Y-92958029D01*
X131163819Y-92986284D01*
X131041503Y-93108600D01*
X130905965Y-93302169D01*
X130905964Y-93302171D01*
X130806098Y-93516335D01*
X130806094Y-93516344D01*
X130744938Y-93744586D01*
X130744936Y-93744596D01*
X130724341Y-93979999D01*
X130724341Y-93980000D01*
X121387219Y-93980000D01*
X121356734Y-93957851D01*
X121356729Y-93957848D01*
X121183807Y-93880857D01*
X121183802Y-93880855D01*
X121038001Y-93849865D01*
X120998646Y-93841500D01*
X120809354Y-93841500D01*
X120776897Y-93848398D01*
X120624197Y-93880855D01*
X120624192Y-93880857D01*
X120451270Y-93957848D01*
X120451265Y-93957851D01*
X120298129Y-94069111D01*
X120171466Y-94209785D01*
X120076821Y-94373715D01*
X120076818Y-94373722D01*
X120054093Y-94443664D01*
X120018326Y-94553744D01*
X119998540Y-94742000D01*
X64562561Y-94742000D01*
X64635568Y-94637734D01*
X64731739Y-94431496D01*
X64790635Y-94211692D01*
X64810468Y-93985000D01*
X64810030Y-93979999D01*
X64804801Y-93920230D01*
X64790635Y-93758308D01*
X64731739Y-93538504D01*
X64635568Y-93332266D01*
X64505047Y-93145861D01*
X64505045Y-93145858D01*
X64344141Y-92984954D01*
X64157734Y-92854432D01*
X64157728Y-92854429D01*
X64099725Y-92827382D01*
X64047285Y-92781210D01*
X64028133Y-92714017D01*
X64029347Y-92710000D01*
X109584540Y-92710000D01*
X109604326Y-92898256D01*
X109604327Y-92898259D01*
X109662818Y-93078277D01*
X109662821Y-93078284D01*
X109757467Y-93242216D01*
X109811451Y-93302171D01*
X109884129Y-93382888D01*
X110037265Y-93494148D01*
X110037270Y-93494151D01*
X110210192Y-93571142D01*
X110210197Y-93571144D01*
X110395354Y-93610500D01*
X110395355Y-93610500D01*
X110584644Y-93610500D01*
X110584646Y-93610500D01*
X110769803Y-93571144D01*
X110942730Y-93494151D01*
X111095871Y-93382888D01*
X111222533Y-93242216D01*
X111317179Y-93078284D01*
X111375674Y-92898256D01*
X111395460Y-92710000D01*
X111375674Y-92521744D01*
X111317179Y-92341716D01*
X111222533Y-92177784D01*
X111095871Y-92037112D01*
X111095870Y-92037111D01*
X110942734Y-91925851D01*
X110942729Y-91925848D01*
X110769807Y-91848857D01*
X110769802Y-91848855D01*
X110624001Y-91817865D01*
X110584646Y-91809500D01*
X110395354Y-91809500D01*
X110362897Y-91816398D01*
X110210197Y-91848855D01*
X110210192Y-91848857D01*
X110037270Y-91925848D01*
X110037265Y-91925851D01*
X109884129Y-92037111D01*
X109757466Y-92177785D01*
X109662821Y-92341715D01*
X109662818Y-92341722D01*
X109624065Y-92460993D01*
X109604326Y-92521744D01*
X109584540Y-92710000D01*
X64029347Y-92710000D01*
X64048348Y-92647135D01*
X64099725Y-92602618D01*
X64157734Y-92575568D01*
X64344139Y-92445047D01*
X64505047Y-92284139D01*
X64635568Y-92097734D01*
X64731739Y-91891496D01*
X64790635Y-91671692D01*
X64810468Y-91445000D01*
X64810031Y-91440000D01*
X115934540Y-91440000D01*
X115954326Y-91628256D01*
X115954327Y-91628259D01*
X116012818Y-91808277D01*
X116012821Y-91808284D01*
X116107467Y-91972216D01*
X116220484Y-92097734D01*
X116234129Y-92112888D01*
X116387265Y-92224148D01*
X116387270Y-92224151D01*
X116560192Y-92301142D01*
X116560197Y-92301144D01*
X116745354Y-92340500D01*
X116745355Y-92340500D01*
X116934644Y-92340500D01*
X116934646Y-92340500D01*
X117119803Y-92301144D01*
X117292730Y-92224151D01*
X117445871Y-92112888D01*
X117572533Y-91972216D01*
X117667179Y-91808284D01*
X117725674Y-91628256D01*
X117745460Y-91440000D01*
X117725674Y-91251744D01*
X117667179Y-91071716D01*
X117572533Y-90907784D01*
X117445871Y-90767112D01*
X117445870Y-90767111D01*
X117292734Y-90655851D01*
X117292729Y-90655848D01*
X117119807Y-90578857D01*
X117119802Y-90578855D01*
X116974001Y-90547865D01*
X116934646Y-90539500D01*
X116745354Y-90539500D01*
X116712897Y-90546398D01*
X116560197Y-90578855D01*
X116560192Y-90578857D01*
X116387270Y-90655848D01*
X116387265Y-90655851D01*
X116234129Y-90767111D01*
X116107466Y-90907785D01*
X116012821Y-91071715D01*
X116012818Y-91071722D01*
X115965192Y-91218302D01*
X115954326Y-91251744D01*
X115934540Y-91440000D01*
X64810031Y-91440000D01*
X64790635Y-91218308D01*
X64731739Y-90998504D01*
X64635568Y-90792266D01*
X64505047Y-90605861D01*
X64505045Y-90605858D01*
X64344141Y-90444954D01*
X64157734Y-90314432D01*
X64157728Y-90314429D01*
X64099725Y-90287382D01*
X64047285Y-90241210D01*
X64028133Y-90174017D01*
X64029347Y-90170000D01*
X105647540Y-90170000D01*
X105667326Y-90358256D01*
X105667327Y-90358259D01*
X105725818Y-90538277D01*
X105725821Y-90538284D01*
X105820467Y-90702216D01*
X105878899Y-90767111D01*
X105947129Y-90842888D01*
X106100265Y-90954148D01*
X106100270Y-90954151D01*
X106273192Y-91031142D01*
X106273197Y-91031144D01*
X106458354Y-91070500D01*
X106458355Y-91070500D01*
X106647644Y-91070500D01*
X106647646Y-91070500D01*
X106832803Y-91031144D01*
X107005730Y-90954151D01*
X107158871Y-90842888D01*
X107285533Y-90702216D01*
X107380179Y-90538284D01*
X107438674Y-90358256D01*
X107458460Y-90170000D01*
X107438674Y-89981744D01*
X107380179Y-89801716D01*
X107285533Y-89637784D01*
X107158871Y-89497112D01*
X107158870Y-89497111D01*
X107005734Y-89385851D01*
X107005729Y-89385848D01*
X106832807Y-89308857D01*
X106832802Y-89308855D01*
X106687001Y-89277865D01*
X106647646Y-89269500D01*
X106458354Y-89269500D01*
X106425897Y-89276398D01*
X106273197Y-89308855D01*
X106273192Y-89308857D01*
X106100270Y-89385848D01*
X106100265Y-89385851D01*
X105947129Y-89497111D01*
X105820466Y-89637785D01*
X105725821Y-89801715D01*
X105725818Y-89801722D01*
X105667327Y-89981740D01*
X105667326Y-89981744D01*
X105647540Y-90170000D01*
X64029347Y-90170000D01*
X64048348Y-90107135D01*
X64099725Y-90062618D01*
X64157734Y-90035568D01*
X64344139Y-89905047D01*
X64505047Y-89744139D01*
X64635568Y-89557734D01*
X64731739Y-89351496D01*
X64790635Y-89131692D01*
X64810468Y-88905000D01*
X64807593Y-88872144D01*
X64790635Y-88678313D01*
X64790635Y-88678308D01*
X64731739Y-88458504D01*
X64635568Y-88252266D01*
X64512667Y-88076744D01*
X64505045Y-88065858D01*
X64344141Y-87904954D01*
X64157734Y-87774432D01*
X64157728Y-87774429D01*
X64130038Y-87761517D01*
X64099724Y-87747381D01*
X64047285Y-87701210D01*
X64028133Y-87634017D01*
X64029347Y-87630000D01*
X67674540Y-87630000D01*
X67694326Y-87818256D01*
X67694327Y-87818259D01*
X67752818Y-87998277D01*
X67752821Y-87998284D01*
X67847467Y-88162216D01*
X67942715Y-88267999D01*
X67974129Y-88302888D01*
X68127265Y-88414148D01*
X68127270Y-88414151D01*
X68300192Y-88491142D01*
X68300197Y-88491144D01*
X68485354Y-88530500D01*
X68485355Y-88530500D01*
X68674644Y-88530500D01*
X68674646Y-88530500D01*
X68859803Y-88491144D01*
X69032730Y-88414151D01*
X69185871Y-88302888D01*
X69312533Y-88162216D01*
X69407179Y-87998284D01*
X69465674Y-87818256D01*
X69485460Y-87630000D01*
X70214540Y-87630000D01*
X70234326Y-87818256D01*
X70234327Y-87818259D01*
X70292818Y-87998277D01*
X70292821Y-87998284D01*
X70387467Y-88162216D01*
X70482715Y-88267999D01*
X70514129Y-88302888D01*
X70667265Y-88414148D01*
X70667270Y-88414151D01*
X70840192Y-88491142D01*
X70840197Y-88491144D01*
X71025354Y-88530500D01*
X71025355Y-88530500D01*
X71214644Y-88530500D01*
X71214646Y-88530500D01*
X71399803Y-88491144D01*
X71572730Y-88414151D01*
X71725871Y-88302888D01*
X71852533Y-88162216D01*
X71939837Y-88011000D01*
X104504540Y-88011000D01*
X104524326Y-88199256D01*
X104524327Y-88199259D01*
X104582818Y-88379277D01*
X104582821Y-88379284D01*
X104677467Y-88543216D01*
X104758559Y-88633277D01*
X104804129Y-88683888D01*
X104957265Y-88795148D01*
X104957270Y-88795151D01*
X105130192Y-88872142D01*
X105130197Y-88872144D01*
X105315354Y-88911500D01*
X105315355Y-88911500D01*
X105504644Y-88911500D01*
X105504646Y-88911500D01*
X105689803Y-88872144D01*
X105862730Y-88795151D01*
X106015871Y-88683888D01*
X106142533Y-88543216D01*
X106237179Y-88379284D01*
X106274312Y-88265000D01*
X114664540Y-88265000D01*
X114684326Y-88453256D01*
X114684327Y-88453259D01*
X114742818Y-88633277D01*
X114742821Y-88633284D01*
X114837467Y-88797216D01*
X114940369Y-88911500D01*
X114964129Y-88937888D01*
X115117265Y-89049148D01*
X115117270Y-89049151D01*
X115290192Y-89126142D01*
X115290197Y-89126144D01*
X115475354Y-89165500D01*
X115475355Y-89165500D01*
X115664644Y-89165500D01*
X115664646Y-89165500D01*
X115849803Y-89126144D01*
X116022730Y-89049151D01*
X116175871Y-88937888D01*
X116302533Y-88797216D01*
X116397179Y-88633284D01*
X116455674Y-88453256D01*
X116475460Y-88265000D01*
X116455674Y-88076744D01*
X116397179Y-87896716D01*
X116302533Y-87732784D01*
X116175871Y-87592112D01*
X116175358Y-87591739D01*
X116022734Y-87480851D01*
X116022729Y-87480848D01*
X115849807Y-87403857D01*
X115849802Y-87403855D01*
X115667219Y-87365047D01*
X115664646Y-87364500D01*
X115475354Y-87364500D01*
X115472781Y-87365047D01*
X115290197Y-87403855D01*
X115290192Y-87403857D01*
X115117270Y-87480848D01*
X115117265Y-87480851D01*
X114964129Y-87592111D01*
X114837466Y-87732785D01*
X114742821Y-87896715D01*
X114742818Y-87896722D01*
X114687863Y-88065858D01*
X114684326Y-88076744D01*
X114664540Y-88265000D01*
X106274312Y-88265000D01*
X106295674Y-88199256D01*
X106315460Y-88011000D01*
X106295674Y-87822744D01*
X106237179Y-87642716D01*
X106142533Y-87478784D01*
X106015871Y-87338112D01*
X106015870Y-87338111D01*
X105862734Y-87226851D01*
X105862729Y-87226848D01*
X105689807Y-87149857D01*
X105689802Y-87149855D01*
X105539931Y-87118000D01*
X105504646Y-87110500D01*
X105315354Y-87110500D01*
X105282897Y-87117398D01*
X105130197Y-87149855D01*
X105130192Y-87149857D01*
X104957270Y-87226848D01*
X104957265Y-87226851D01*
X104804129Y-87338111D01*
X104677466Y-87478785D01*
X104582821Y-87642715D01*
X104582818Y-87642722D01*
X104526568Y-87815844D01*
X104524326Y-87822744D01*
X104504540Y-88011000D01*
X71939837Y-88011000D01*
X71947179Y-87998284D01*
X72005674Y-87818256D01*
X72025460Y-87630000D01*
X72005674Y-87441744D01*
X71947179Y-87261716D01*
X71852533Y-87097784D01*
X71725871Y-86957112D01*
X71650027Y-86902008D01*
X71572734Y-86845851D01*
X71572729Y-86845848D01*
X71399807Y-86768857D01*
X71399802Y-86768855D01*
X71254001Y-86737865D01*
X71214646Y-86729500D01*
X71025354Y-86729500D01*
X70992897Y-86736398D01*
X70840197Y-86768855D01*
X70840192Y-86768857D01*
X70667270Y-86845848D01*
X70667265Y-86845851D01*
X70514129Y-86957111D01*
X70387466Y-87097785D01*
X70292821Y-87261715D01*
X70292818Y-87261722D01*
X70246636Y-87403857D01*
X70234326Y-87441744D01*
X70214540Y-87630000D01*
X69485460Y-87630000D01*
X69465674Y-87441744D01*
X69407179Y-87261716D01*
X69312533Y-87097784D01*
X69185871Y-86957112D01*
X69110027Y-86902008D01*
X69032734Y-86845851D01*
X69032729Y-86845848D01*
X68859807Y-86768857D01*
X68859802Y-86768855D01*
X68714001Y-86737865D01*
X68674646Y-86729500D01*
X68485354Y-86729500D01*
X68452897Y-86736398D01*
X68300197Y-86768855D01*
X68300192Y-86768857D01*
X68127270Y-86845848D01*
X68127265Y-86845851D01*
X67974129Y-86957111D01*
X67847466Y-87097785D01*
X67752821Y-87261715D01*
X67752818Y-87261722D01*
X67706636Y-87403857D01*
X67694326Y-87441744D01*
X67674540Y-87630000D01*
X64029347Y-87630000D01*
X64048348Y-87567135D01*
X64099725Y-87522618D01*
X64157734Y-87495568D01*
X64344139Y-87365047D01*
X64505047Y-87204139D01*
X64635568Y-87017734D01*
X64731739Y-86811496D01*
X64790635Y-86591692D01*
X64797060Y-86518253D01*
X64822511Y-86453187D01*
X64879101Y-86412208D01*
X64948863Y-86408329D01*
X65009647Y-86442782D01*
X65027974Y-86467061D01*
X65053467Y-86511216D01*
X65180129Y-86651888D01*
X65333265Y-86763148D01*
X65333270Y-86763151D01*
X65506192Y-86840142D01*
X65506197Y-86840144D01*
X65691354Y-86879500D01*
X65691355Y-86879500D01*
X65880644Y-86879500D01*
X65880646Y-86879500D01*
X66065803Y-86840144D01*
X66238730Y-86763151D01*
X66391871Y-86651888D01*
X66518533Y-86511216D01*
X66605837Y-86360000D01*
X75421540Y-86360000D01*
X75441326Y-86548256D01*
X75441327Y-86548259D01*
X75499818Y-86728277D01*
X75499821Y-86728284D01*
X75594467Y-86892216D01*
X75707484Y-87017734D01*
X75721129Y-87032888D01*
X75874265Y-87144148D01*
X75874270Y-87144151D01*
X76047192Y-87221142D01*
X76047197Y-87221144D01*
X76232354Y-87260500D01*
X76232355Y-87260500D01*
X76421644Y-87260500D01*
X76421646Y-87260500D01*
X76606803Y-87221144D01*
X76779730Y-87144151D01*
X76861145Y-87085000D01*
X119617540Y-87085000D01*
X119637326Y-87273256D01*
X119637327Y-87273259D01*
X119695818Y-87453277D01*
X119695821Y-87453284D01*
X119790467Y-87617216D01*
X119866096Y-87701210D01*
X119917129Y-87757888D01*
X120070265Y-87869148D01*
X120070270Y-87869151D01*
X120243192Y-87946142D01*
X120243197Y-87946144D01*
X120428354Y-87985500D01*
X120428355Y-87985500D01*
X120617644Y-87985500D01*
X120617646Y-87985500D01*
X120802803Y-87946144D01*
X120975730Y-87869151D01*
X121128871Y-87757888D01*
X121255533Y-87617216D01*
X121350179Y-87453284D01*
X121408674Y-87273256D01*
X121428460Y-87085000D01*
X121408674Y-86896744D01*
X121350179Y-86716716D01*
X121255533Y-86552784D01*
X121128871Y-86412112D01*
X121128303Y-86411699D01*
X120975734Y-86300851D01*
X120975729Y-86300848D01*
X120802807Y-86223857D01*
X120802802Y-86223855D01*
X120657001Y-86192865D01*
X120617646Y-86184500D01*
X120428354Y-86184500D01*
X120395897Y-86191398D01*
X120243197Y-86223855D01*
X120243192Y-86223857D01*
X120070270Y-86300848D01*
X120070265Y-86300851D01*
X119917129Y-86412111D01*
X119790466Y-86552785D01*
X119695821Y-86716715D01*
X119695818Y-86716722D01*
X119642929Y-86879500D01*
X119637326Y-86896744D01*
X119617540Y-87085000D01*
X76861145Y-87085000D01*
X76932871Y-87032888D01*
X77059533Y-86892216D01*
X77154179Y-86728284D01*
X77212674Y-86548256D01*
X77232460Y-86360000D01*
X77212674Y-86171744D01*
X77154179Y-85991716D01*
X77059533Y-85827784D01*
X76932871Y-85687112D01*
X76932870Y-85687111D01*
X76779734Y-85575851D01*
X76779729Y-85575848D01*
X76606807Y-85498857D01*
X76606802Y-85498855D01*
X76459283Y-85467500D01*
X76421646Y-85459500D01*
X76232354Y-85459500D01*
X76199897Y-85466398D01*
X76047197Y-85498855D01*
X76047192Y-85498857D01*
X75874270Y-85575848D01*
X75874265Y-85575851D01*
X75721129Y-85687111D01*
X75594466Y-85827785D01*
X75499821Y-85991715D01*
X75499818Y-85991722D01*
X75452192Y-86138302D01*
X75441326Y-86171744D01*
X75421540Y-86360000D01*
X66605837Y-86360000D01*
X66613179Y-86347284D01*
X66671674Y-86167256D01*
X66691460Y-85979000D01*
X66671674Y-85790744D01*
X66613179Y-85610716D01*
X66518533Y-85446784D01*
X66391871Y-85306112D01*
X66293212Y-85234432D01*
X66238734Y-85194851D01*
X66238729Y-85194848D01*
X66065807Y-85117857D01*
X66065802Y-85117855D01*
X65920001Y-85086865D01*
X65880646Y-85078500D01*
X65691354Y-85078500D01*
X65658897Y-85085398D01*
X65506197Y-85117855D01*
X65506192Y-85117857D01*
X65333270Y-85194848D01*
X65333265Y-85194851D01*
X65180129Y-85306111D01*
X65053466Y-85446785D01*
X64958821Y-85610715D01*
X64958818Y-85610722D01*
X64903906Y-85779724D01*
X64864468Y-85837400D01*
X64800110Y-85864598D01*
X64731263Y-85852683D01*
X64679788Y-85805439D01*
X64673593Y-85793811D01*
X64667024Y-85779724D01*
X64635568Y-85712266D01*
X64505047Y-85525861D01*
X64505045Y-85525858D01*
X64344141Y-85364954D01*
X64157734Y-85234432D01*
X64157728Y-85234429D01*
X64099725Y-85207382D01*
X64047285Y-85161210D01*
X64028133Y-85094017D01*
X64048348Y-85027135D01*
X64099725Y-84982618D01*
X64157734Y-84955568D01*
X64344139Y-84825047D01*
X64505047Y-84664139D01*
X64635568Y-84477734D01*
X64731739Y-84271496D01*
X64790635Y-84051692D01*
X64810468Y-83825000D01*
X64810031Y-83820000D01*
X96884540Y-83820000D01*
X96904326Y-84008256D01*
X96904327Y-84008259D01*
X96962818Y-84188277D01*
X96962821Y-84188284D01*
X97057467Y-84352216D01*
X97170484Y-84477734D01*
X97184129Y-84492888D01*
X97337265Y-84604148D01*
X97337270Y-84604151D01*
X97510192Y-84681142D01*
X97510197Y-84681144D01*
X97695354Y-84720500D01*
X97695355Y-84720500D01*
X97884644Y-84720500D01*
X97884646Y-84720500D01*
X98069803Y-84681144D01*
X98242730Y-84604151D01*
X98395871Y-84492888D01*
X98522533Y-84352216D01*
X98617179Y-84188284D01*
X98675674Y-84008256D01*
X98695460Y-83820000D01*
X98675674Y-83631744D01*
X98617179Y-83451716D01*
X98522533Y-83287784D01*
X98395871Y-83147112D01*
X98387244Y-83140844D01*
X98242734Y-83035851D01*
X98242729Y-83035848D01*
X98069807Y-82958857D01*
X98069802Y-82958855D01*
X97924001Y-82927865D01*
X97884646Y-82919500D01*
X97695354Y-82919500D01*
X97662897Y-82926398D01*
X97510197Y-82958855D01*
X97510192Y-82958857D01*
X97337270Y-83035848D01*
X97337265Y-83035851D01*
X97184129Y-83147111D01*
X97057466Y-83287785D01*
X96962821Y-83451715D01*
X96962818Y-83451722D01*
X96915192Y-83598302D01*
X96904326Y-83631744D01*
X96884540Y-83820000D01*
X64810031Y-83820000D01*
X64790635Y-83598308D01*
X64731739Y-83378504D01*
X64635568Y-83172266D01*
X64505047Y-82985861D01*
X64505045Y-82985858D01*
X64344141Y-82824954D01*
X64157734Y-82694432D01*
X64157728Y-82694429D01*
X64099725Y-82667382D01*
X64047285Y-82621210D01*
X64028133Y-82554017D01*
X64029347Y-82550000D01*
X85454540Y-82550000D01*
X85474326Y-82738256D01*
X85474327Y-82738259D01*
X85532818Y-82918277D01*
X85532821Y-82918284D01*
X85627467Y-83082216D01*
X85685899Y-83147111D01*
X85754129Y-83222888D01*
X85907265Y-83334148D01*
X85907270Y-83334151D01*
X86080192Y-83411142D01*
X86080197Y-83411144D01*
X86265354Y-83450500D01*
X86265355Y-83450500D01*
X86454644Y-83450500D01*
X86454646Y-83450500D01*
X86639803Y-83411144D01*
X86812730Y-83334151D01*
X86965871Y-83222888D01*
X87092533Y-83082216D01*
X87187179Y-82918284D01*
X87245674Y-82738256D01*
X87265460Y-82550000D01*
X87245674Y-82361744D01*
X87187179Y-82181716D01*
X87092533Y-82017784D01*
X86999986Y-81915000D01*
X103234540Y-81915000D01*
X103254326Y-82103256D01*
X103254327Y-82103259D01*
X103312818Y-82283277D01*
X103312821Y-82283284D01*
X103407467Y-82447216D01*
X103534129Y-82587888D01*
X103687265Y-82699148D01*
X103687270Y-82699151D01*
X103860192Y-82776142D01*
X103860197Y-82776144D01*
X104045354Y-82815500D01*
X104045355Y-82815500D01*
X104234644Y-82815500D01*
X104234646Y-82815500D01*
X104419803Y-82776144D01*
X104592730Y-82699151D01*
X104745871Y-82587888D01*
X104872533Y-82447216D01*
X104967179Y-82283284D01*
X105025674Y-82103256D01*
X105045460Y-81915000D01*
X105025674Y-81726744D01*
X104967179Y-81546716D01*
X104872533Y-81382784D01*
X104745871Y-81242112D01*
X104745870Y-81242111D01*
X104592734Y-81130851D01*
X104592729Y-81130848D01*
X104419807Y-81053857D01*
X104419802Y-81053855D01*
X104274001Y-81022865D01*
X104234646Y-81014500D01*
X104045354Y-81014500D01*
X104012897Y-81021398D01*
X103860197Y-81053855D01*
X103860192Y-81053857D01*
X103687270Y-81130848D01*
X103687265Y-81130851D01*
X103534129Y-81242111D01*
X103407466Y-81382785D01*
X103312821Y-81546715D01*
X103312818Y-81546722D01*
X103266636Y-81688857D01*
X103254326Y-81726744D01*
X103234540Y-81915000D01*
X86999986Y-81915000D01*
X86965871Y-81877112D01*
X86965870Y-81877111D01*
X86812734Y-81765851D01*
X86812729Y-81765848D01*
X86639807Y-81688857D01*
X86639802Y-81688855D01*
X86494001Y-81657865D01*
X86454646Y-81649500D01*
X86265354Y-81649500D01*
X86232897Y-81656398D01*
X86080197Y-81688855D01*
X86080192Y-81688857D01*
X85907270Y-81765848D01*
X85907265Y-81765851D01*
X85754129Y-81877111D01*
X85627466Y-82017785D01*
X85532821Y-82181715D01*
X85532818Y-82181722D01*
X85474327Y-82361740D01*
X85474326Y-82361744D01*
X85454540Y-82550000D01*
X64029347Y-82550000D01*
X64048348Y-82487135D01*
X64099725Y-82442618D01*
X64157734Y-82415568D01*
X64344139Y-82285047D01*
X64505047Y-82124139D01*
X64635568Y-81937734D01*
X64731739Y-81731496D01*
X64790635Y-81511692D01*
X64810468Y-81285000D01*
X64790635Y-81058308D01*
X64731739Y-80838504D01*
X64635568Y-80632266D01*
X64505047Y-80445861D01*
X64505045Y-80445858D01*
X64344141Y-80284954D01*
X64157734Y-80154432D01*
X64157732Y-80154431D01*
X63951497Y-80058261D01*
X63951488Y-80058258D01*
X63771384Y-80010000D01*
X104504540Y-80010000D01*
X104524326Y-80198256D01*
X104524327Y-80198259D01*
X104582818Y-80378277D01*
X104582821Y-80378284D01*
X104677467Y-80542216D01*
X104753270Y-80626403D01*
X104804129Y-80682888D01*
X104957265Y-80794148D01*
X104957270Y-80794151D01*
X105130192Y-80871142D01*
X105130197Y-80871144D01*
X105315354Y-80910500D01*
X105315355Y-80910500D01*
X105504644Y-80910500D01*
X105504646Y-80910500D01*
X105689803Y-80871144D01*
X105862730Y-80794151D01*
X106015871Y-80682888D01*
X106142533Y-80542216D01*
X106229837Y-80391000D01*
X130724341Y-80391000D01*
X130744936Y-80626403D01*
X130744938Y-80626413D01*
X130806094Y-80854655D01*
X130806096Y-80854659D01*
X130806097Y-80854663D01*
X130901061Y-81058313D01*
X130905965Y-81068830D01*
X130905967Y-81068834D01*
X131014281Y-81223521D01*
X131041505Y-81262401D01*
X131208599Y-81429495D01*
X131376016Y-81546722D01*
X131394594Y-81559730D01*
X131438219Y-81614307D01*
X131445413Y-81683805D01*
X131413890Y-81746160D01*
X131394595Y-81762880D01*
X131208922Y-81892890D01*
X131208920Y-81892891D01*
X131041891Y-82059920D01*
X131041886Y-82059926D01*
X130906400Y-82253420D01*
X130906399Y-82253422D01*
X130806570Y-82467507D01*
X130806567Y-82467513D01*
X130749364Y-82680999D01*
X130749364Y-82681000D01*
X131646314Y-82681000D01*
X131620507Y-82721156D01*
X131580000Y-82859111D01*
X131580000Y-83002889D01*
X131620507Y-83140844D01*
X131646314Y-83181000D01*
X130749364Y-83181000D01*
X130806567Y-83394486D01*
X130806570Y-83394492D01*
X130906399Y-83608578D01*
X131041894Y-83802082D01*
X131208917Y-83969105D01*
X131402421Y-84104600D01*
X131616507Y-84204429D01*
X131616516Y-84204433D01*
X131830000Y-84261634D01*
X131830000Y-83366501D01*
X131937685Y-83415680D01*
X132044237Y-83431000D01*
X132115763Y-83431000D01*
X132222315Y-83415680D01*
X132330000Y-83366501D01*
X132330000Y-84261633D01*
X132543483Y-84204433D01*
X132543492Y-84204429D01*
X132757578Y-84104600D01*
X132951082Y-83969105D01*
X133118105Y-83802082D01*
X133253600Y-83608578D01*
X133353429Y-83394492D01*
X133353432Y-83394486D01*
X133410636Y-83181000D01*
X132513686Y-83181000D01*
X132539493Y-83140844D01*
X132580000Y-83002889D01*
X132580000Y-82859111D01*
X132539493Y-82721156D01*
X132513686Y-82681000D01*
X133410636Y-82681000D01*
X133410635Y-82680999D01*
X133353432Y-82467513D01*
X133353429Y-82467507D01*
X133253600Y-82253422D01*
X133253599Y-82253420D01*
X133118113Y-82059926D01*
X133118108Y-82059920D01*
X132951078Y-81892890D01*
X132765405Y-81762879D01*
X132721780Y-81708302D01*
X132714588Y-81638804D01*
X132746110Y-81576449D01*
X132765406Y-81559730D01*
X132951401Y-81429495D01*
X133118495Y-81262401D01*
X133254035Y-81068830D01*
X133353903Y-80854663D01*
X133415063Y-80626408D01*
X133435659Y-80391000D01*
X133434546Y-80378284D01*
X133418796Y-80198259D01*
X133415063Y-80155592D01*
X133353903Y-79927337D01*
X133254035Y-79713171D01*
X133204002Y-79641715D01*
X133118494Y-79519597D01*
X132951402Y-79352506D01*
X132951396Y-79352501D01*
X132765842Y-79222575D01*
X132722217Y-79167998D01*
X132715023Y-79098500D01*
X132746546Y-79036145D01*
X132765842Y-79019425D01*
X132896040Y-78928259D01*
X132951401Y-78889495D01*
X133118495Y-78722401D01*
X133254035Y-78528830D01*
X133353903Y-78314663D01*
X133415063Y-78086408D01*
X133435659Y-77851000D01*
X133415063Y-77615592D01*
X133353903Y-77387337D01*
X133254035Y-77173171D01*
X133203150Y-77100500D01*
X133118496Y-76979600D01*
X133118495Y-76979599D01*
X132996567Y-76857671D01*
X132963084Y-76796351D01*
X132968068Y-76726659D01*
X133009939Y-76670725D01*
X133040915Y-76653810D01*
X133172331Y-76604796D01*
X133287546Y-76518546D01*
X133373796Y-76403331D01*
X133424091Y-76268483D01*
X133430500Y-76208873D01*
X133430499Y-74413128D01*
X133424091Y-74353517D01*
X133392625Y-74269153D01*
X133373797Y-74218671D01*
X133373793Y-74218664D01*
X133287547Y-74103455D01*
X133287544Y-74103452D01*
X133172335Y-74017206D01*
X133172328Y-74017202D01*
X133037482Y-73966908D01*
X133037483Y-73966908D01*
X132977883Y-73960501D01*
X132977881Y-73960500D01*
X132977873Y-73960500D01*
X132977864Y-73960500D01*
X131182129Y-73960500D01*
X131182123Y-73960501D01*
X131122516Y-73966908D01*
X130987671Y-74017202D01*
X130987664Y-74017206D01*
X130872455Y-74103452D01*
X130872452Y-74103455D01*
X130786206Y-74218664D01*
X130786202Y-74218671D01*
X130735908Y-74353517D01*
X130730311Y-74405580D01*
X130729501Y-74413123D01*
X130729500Y-74413135D01*
X130729500Y-76208870D01*
X130729501Y-76208876D01*
X130735908Y-76268483D01*
X130786202Y-76403328D01*
X130786206Y-76403335D01*
X130872452Y-76518544D01*
X130872455Y-76518547D01*
X130987664Y-76604793D01*
X130987671Y-76604797D01*
X131119081Y-76653810D01*
X131175015Y-76695681D01*
X131199432Y-76761145D01*
X131184580Y-76829418D01*
X131163430Y-76857673D01*
X131041503Y-76979600D01*
X130905965Y-77173169D01*
X130905964Y-77173171D01*
X130806098Y-77387335D01*
X130806094Y-77387344D01*
X130744938Y-77615586D01*
X130744936Y-77615596D01*
X130724341Y-77850999D01*
X130724341Y-77851000D01*
X130744936Y-78086403D01*
X130744938Y-78086413D01*
X130806094Y-78314655D01*
X130806096Y-78314659D01*
X130806097Y-78314663D01*
X130905965Y-78528830D01*
X130905967Y-78528834D01*
X131041501Y-78722395D01*
X131041506Y-78722402D01*
X131208597Y-78889493D01*
X131208603Y-78889498D01*
X131394158Y-79019425D01*
X131437783Y-79074002D01*
X131444977Y-79143500D01*
X131413454Y-79205855D01*
X131394158Y-79222575D01*
X131208597Y-79352505D01*
X131041505Y-79519597D01*
X130905965Y-79713169D01*
X130905964Y-79713171D01*
X130806098Y-79927335D01*
X130806094Y-79927344D01*
X130744938Y-80155586D01*
X130744936Y-80155596D01*
X130724341Y-80390999D01*
X130724341Y-80391000D01*
X106229837Y-80391000D01*
X106237179Y-80378284D01*
X106295674Y-80198256D01*
X106315460Y-80010000D01*
X106295674Y-79821744D01*
X106237179Y-79641716D01*
X106142533Y-79477784D01*
X106015871Y-79337112D01*
X106015870Y-79337111D01*
X105862734Y-79225851D01*
X105862729Y-79225848D01*
X105689807Y-79148857D01*
X105689802Y-79148855D01*
X105544001Y-79117865D01*
X105504646Y-79109500D01*
X105315354Y-79109500D01*
X105282897Y-79116398D01*
X105130197Y-79148855D01*
X105130192Y-79148857D01*
X104957270Y-79225848D01*
X104957265Y-79225851D01*
X104804129Y-79337111D01*
X104677466Y-79477785D01*
X104582821Y-79641715D01*
X104582818Y-79641722D01*
X104524327Y-79821740D01*
X104524326Y-79821744D01*
X104504540Y-80010000D01*
X63771384Y-80010000D01*
X63731697Y-79999366D01*
X63731693Y-79999365D01*
X63731692Y-79999365D01*
X63731691Y-79999364D01*
X63731686Y-79999364D01*
X63505002Y-79979532D01*
X63504998Y-79979532D01*
X63278313Y-79999364D01*
X63278302Y-79999366D01*
X63058511Y-80058258D01*
X63058502Y-80058261D01*
X62852267Y-80154431D01*
X62852265Y-80154432D01*
X62665858Y-80284954D01*
X62504954Y-80445858D01*
X62374432Y-80632265D01*
X62374431Y-80632267D01*
X62278261Y-80838502D01*
X62278258Y-80838511D01*
X62219366Y-81058302D01*
X62219364Y-81058313D01*
X62199532Y-81284998D01*
X62199532Y-81285001D01*
X62219364Y-81511686D01*
X62219366Y-81511697D01*
X62278258Y-81731488D01*
X62278261Y-81731497D01*
X62374431Y-81937732D01*
X62374432Y-81937734D01*
X62504954Y-82124141D01*
X62665858Y-82285045D01*
X62665861Y-82285047D01*
X62852266Y-82415568D01*
X62910275Y-82442618D01*
X62962714Y-82488791D01*
X62981866Y-82555984D01*
X62961650Y-82622865D01*
X62910275Y-82667382D01*
X62852267Y-82694431D01*
X62852265Y-82694432D01*
X62665858Y-82824954D01*
X62504954Y-82985858D01*
X62374432Y-83172265D01*
X62374431Y-83172267D01*
X62278261Y-83378502D01*
X62278258Y-83378511D01*
X62219366Y-83598302D01*
X62219364Y-83598313D01*
X62199532Y-83824998D01*
X62199532Y-83825001D01*
X62219364Y-84051686D01*
X62219366Y-84051697D01*
X62278258Y-84271488D01*
X62278261Y-84271497D01*
X62374431Y-84477732D01*
X62374432Y-84477734D01*
X62504954Y-84664141D01*
X62665858Y-84825045D01*
X62665861Y-84825047D01*
X62852266Y-84955568D01*
X62910275Y-84982618D01*
X62962714Y-85028791D01*
X62981866Y-85095984D01*
X62961650Y-85162865D01*
X62910275Y-85207382D01*
X62852267Y-85234431D01*
X62852265Y-85234432D01*
X62665858Y-85364954D01*
X62504954Y-85525858D01*
X62374432Y-85712265D01*
X62374431Y-85712267D01*
X62278261Y-85918502D01*
X62278258Y-85918511D01*
X62219366Y-86138302D01*
X62219364Y-86138313D01*
X62199532Y-86364998D01*
X62199532Y-86365001D01*
X62219364Y-86591686D01*
X62219366Y-86591697D01*
X62278258Y-86811488D01*
X62278261Y-86811497D01*
X62374431Y-87017732D01*
X62374432Y-87017734D01*
X62504954Y-87204141D01*
X62665858Y-87365045D01*
X62665861Y-87365047D01*
X62852266Y-87495568D01*
X62910275Y-87522618D01*
X62962714Y-87568791D01*
X62981866Y-87635984D01*
X62961650Y-87702865D01*
X62910275Y-87747382D01*
X62852267Y-87774431D01*
X62852265Y-87774432D01*
X62665858Y-87904954D01*
X62504954Y-88065858D01*
X62374432Y-88252265D01*
X62374431Y-88252267D01*
X62278261Y-88458502D01*
X62278258Y-88458511D01*
X62219366Y-88678302D01*
X62219364Y-88678313D01*
X62199532Y-88904998D01*
X62199532Y-88905001D01*
X62219364Y-89131686D01*
X62219366Y-89131697D01*
X62278258Y-89351488D01*
X62278261Y-89351497D01*
X62374431Y-89557732D01*
X62374432Y-89557734D01*
X62504954Y-89744141D01*
X62665858Y-89905045D01*
X62665861Y-89905047D01*
X62852266Y-90035568D01*
X62910275Y-90062618D01*
X62962714Y-90108791D01*
X62981866Y-90175984D01*
X62961650Y-90242865D01*
X62910275Y-90287382D01*
X62852267Y-90314431D01*
X62852265Y-90314432D01*
X62665858Y-90444954D01*
X62504954Y-90605858D01*
X62374432Y-90792265D01*
X62374431Y-90792267D01*
X62278261Y-90998502D01*
X62278258Y-90998511D01*
X62219366Y-91218302D01*
X62219364Y-91218313D01*
X62199532Y-91444998D01*
X62199532Y-91445001D01*
X62219364Y-91671686D01*
X62219366Y-91671697D01*
X62278258Y-91891488D01*
X62278261Y-91891497D01*
X62374431Y-92097732D01*
X62374432Y-92097734D01*
X62504954Y-92284141D01*
X62665858Y-92445045D01*
X62665861Y-92445047D01*
X62852266Y-92575568D01*
X62910275Y-92602618D01*
X62962714Y-92648791D01*
X62981866Y-92715984D01*
X62961650Y-92782865D01*
X62910275Y-92827382D01*
X62852267Y-92854431D01*
X62852265Y-92854432D01*
X62665858Y-92984954D01*
X62504954Y-93145858D01*
X62374432Y-93332265D01*
X62374431Y-93332267D01*
X62278261Y-93538502D01*
X62278258Y-93538511D01*
X62219366Y-93758302D01*
X62219364Y-93758313D01*
X62199532Y-93984998D01*
X62199532Y-93985001D01*
X62219364Y-94211686D01*
X62219366Y-94211697D01*
X62278258Y-94431488D01*
X62278261Y-94431497D01*
X62374431Y-94637732D01*
X62374432Y-94637734D01*
X62504954Y-94824141D01*
X62665858Y-94985045D01*
X62665861Y-94985047D01*
X62852266Y-95115568D01*
X62910275Y-95142618D01*
X62962714Y-95188791D01*
X62981866Y-95255984D01*
X62961650Y-95322865D01*
X62910275Y-95367382D01*
X62852267Y-95394431D01*
X62852265Y-95394432D01*
X62665858Y-95524954D01*
X62504954Y-95685858D01*
X62374432Y-95872265D01*
X62374431Y-95872267D01*
X62278261Y-96078502D01*
X62278258Y-96078511D01*
X62219366Y-96298302D01*
X62219364Y-96298313D01*
X62199532Y-96524998D01*
X62199532Y-96525001D01*
X62219364Y-96751686D01*
X62219366Y-96751697D01*
X62278258Y-96971488D01*
X62278261Y-96971497D01*
X62374431Y-97177732D01*
X62374432Y-97177734D01*
X62504954Y-97364141D01*
X62665858Y-97525045D01*
X62665861Y-97525047D01*
X62852266Y-97655568D01*
X62910275Y-97682618D01*
X62962714Y-97728791D01*
X62981866Y-97795984D01*
X62961650Y-97862865D01*
X62910275Y-97907382D01*
X62852267Y-97934431D01*
X62852265Y-97934432D01*
X62665858Y-98064954D01*
X62504954Y-98225858D01*
X62374432Y-98412265D01*
X62374431Y-98412267D01*
X62278261Y-98618502D01*
X62278258Y-98618511D01*
X62219366Y-98838302D01*
X62219364Y-98838313D01*
X62199532Y-99064998D01*
X62199532Y-99065001D01*
X62219364Y-99291686D01*
X62219366Y-99291697D01*
X62278258Y-99511488D01*
X62278261Y-99511497D01*
X62374431Y-99717732D01*
X62374432Y-99717734D01*
X62504954Y-99904141D01*
X62665858Y-100065045D01*
X62665861Y-100065047D01*
X62852266Y-100195568D01*
X62910865Y-100222893D01*
X62963305Y-100269065D01*
X62982457Y-100336258D01*
X62962242Y-100403139D01*
X62910867Y-100447657D01*
X62852515Y-100474867D01*
X62666179Y-100605342D01*
X62505342Y-100766179D01*
X62374865Y-100952517D01*
X62278734Y-101158673D01*
X62278730Y-101158682D01*
X62226127Y-101354999D01*
X62226128Y-101355000D01*
X63189314Y-101355000D01*
X63177359Y-101366955D01*
X63119835Y-101479852D01*
X63100014Y-101605000D01*
X63119835Y-101730148D01*
X63177359Y-101843045D01*
X63189314Y-101855000D01*
X62226128Y-101855000D01*
X62278730Y-102051317D01*
X62278734Y-102051326D01*
X62374865Y-102257482D01*
X62505342Y-102443820D01*
X62666179Y-102604657D01*
X62852518Y-102735134D01*
X62852520Y-102735135D01*
X62910865Y-102762342D01*
X62963305Y-102808514D01*
X62982457Y-102875707D01*
X62962242Y-102942589D01*
X62910867Y-102987105D01*
X62852268Y-103014431D01*
X62852264Y-103014433D01*
X62665858Y-103144954D01*
X62504954Y-103305858D01*
X62374432Y-103492265D01*
X62374431Y-103492267D01*
X62278261Y-103698502D01*
X62278258Y-103698511D01*
X62219366Y-103918302D01*
X62219364Y-103918313D01*
X62199532Y-104144998D01*
X62199532Y-104145001D01*
X62219364Y-104371686D01*
X62219366Y-104371697D01*
X62278258Y-104591488D01*
X62278261Y-104591497D01*
X62374431Y-104797732D01*
X62374432Y-104797734D01*
X62504954Y-104984141D01*
X62665858Y-105145045D01*
X62665861Y-105145047D01*
X62852266Y-105275568D01*
X62910275Y-105302618D01*
X62962714Y-105348791D01*
X62981866Y-105415984D01*
X62961650Y-105482865D01*
X62910275Y-105527382D01*
X62852267Y-105554431D01*
X62852265Y-105554432D01*
X62665858Y-105684954D01*
X62504954Y-105845858D01*
X62374432Y-106032265D01*
X62374431Y-106032267D01*
X62278261Y-106238502D01*
X62278258Y-106238511D01*
X62219366Y-106458302D01*
X62219364Y-106458313D01*
X62199532Y-106684998D01*
X62199532Y-106685001D01*
X48669986Y-106685001D01*
X48669986Y-106685000D01*
X48650165Y-106559852D01*
X48592641Y-106446955D01*
X48580686Y-106435000D01*
X49543872Y-106435000D01*
X49543872Y-106434999D01*
X49491269Y-106238682D01*
X49491265Y-106238673D01*
X49395134Y-106032517D01*
X49264657Y-105846179D01*
X49103820Y-105685342D01*
X48917482Y-105554865D01*
X48859133Y-105527657D01*
X48806694Y-105481484D01*
X48787542Y-105414291D01*
X48807758Y-105347410D01*
X48859129Y-105302895D01*
X48917734Y-105275568D01*
X49104139Y-105145047D01*
X49265047Y-104984139D01*
X49395568Y-104797734D01*
X49491739Y-104591496D01*
X49550635Y-104371692D01*
X49570468Y-104145000D01*
X49550635Y-103918308D01*
X49491739Y-103698504D01*
X49395568Y-103492266D01*
X49265047Y-103305861D01*
X49265045Y-103305858D01*
X49104141Y-103144954D01*
X48917734Y-103014432D01*
X48917728Y-103014429D01*
X48859725Y-102987382D01*
X48807285Y-102941210D01*
X48788133Y-102874017D01*
X48808348Y-102807135D01*
X48859725Y-102762618D01*
X48860319Y-102762341D01*
X48917734Y-102735568D01*
X49104139Y-102605047D01*
X49265047Y-102444139D01*
X49395568Y-102257734D01*
X49491739Y-102051496D01*
X49550635Y-101831692D01*
X49570468Y-101605000D01*
X49550635Y-101378308D01*
X49504198Y-101205000D01*
X49491741Y-101158511D01*
X49491738Y-101158502D01*
X49433681Y-101034000D01*
X49395568Y-100952266D01*
X49265047Y-100765861D01*
X49265045Y-100765858D01*
X49104141Y-100604954D01*
X48917734Y-100474432D01*
X48917728Y-100474429D01*
X48859725Y-100447382D01*
X48807285Y-100401210D01*
X48788133Y-100334017D01*
X48808348Y-100267135D01*
X48859725Y-100222618D01*
X48917734Y-100195568D01*
X49104139Y-100065047D01*
X49265047Y-99904139D01*
X49395568Y-99717734D01*
X49491739Y-99511496D01*
X49550635Y-99291692D01*
X49570468Y-99065000D01*
X49569024Y-99048500D01*
X49550635Y-98838313D01*
X49550635Y-98838308D01*
X49491739Y-98618504D01*
X49395568Y-98412266D01*
X49265047Y-98225861D01*
X49265045Y-98225858D01*
X49104141Y-98064954D01*
X48917734Y-97934432D01*
X48917728Y-97934429D01*
X48859725Y-97907382D01*
X48807285Y-97861210D01*
X48788133Y-97794017D01*
X48808348Y-97727135D01*
X48859725Y-97682618D01*
X48917734Y-97655568D01*
X49104139Y-97525047D01*
X49265047Y-97364139D01*
X49395568Y-97177734D01*
X49491739Y-96971496D01*
X49550635Y-96751692D01*
X49570468Y-96525000D01*
X49550635Y-96298308D01*
X49491739Y-96078504D01*
X49395568Y-95872266D01*
X49265047Y-95685861D01*
X49265045Y-95685858D01*
X49104141Y-95524954D01*
X48917734Y-95394432D01*
X48917728Y-95394429D01*
X48859725Y-95367382D01*
X48807285Y-95321210D01*
X48788133Y-95254017D01*
X48808348Y-95187135D01*
X48859725Y-95142618D01*
X48917734Y-95115568D01*
X49104139Y-94985047D01*
X49265047Y-94824139D01*
X49395568Y-94637734D01*
X49491739Y-94431496D01*
X49550635Y-94211692D01*
X49570468Y-93985000D01*
X49570030Y-93979999D01*
X49564801Y-93920230D01*
X49550635Y-93758308D01*
X49491739Y-93538504D01*
X49395568Y-93332266D01*
X49265047Y-93145861D01*
X49265045Y-93145858D01*
X49104141Y-92984954D01*
X48917734Y-92854432D01*
X48917728Y-92854429D01*
X48859725Y-92827382D01*
X48807285Y-92781210D01*
X48788133Y-92714017D01*
X48808348Y-92647135D01*
X48859725Y-92602618D01*
X48917734Y-92575568D01*
X49104139Y-92445047D01*
X49265047Y-92284139D01*
X49395568Y-92097734D01*
X49491739Y-91891496D01*
X49550635Y-91671692D01*
X49570468Y-91445000D01*
X49550635Y-91218308D01*
X49491739Y-90998504D01*
X49395568Y-90792266D01*
X49265047Y-90605861D01*
X49265045Y-90605858D01*
X49104141Y-90444954D01*
X48917734Y-90314432D01*
X48917728Y-90314429D01*
X48859725Y-90287382D01*
X48807285Y-90241210D01*
X48788133Y-90174017D01*
X48808348Y-90107135D01*
X48859725Y-90062618D01*
X48917734Y-90035568D01*
X49104139Y-89905047D01*
X49265047Y-89744139D01*
X49395568Y-89557734D01*
X49491739Y-89351496D01*
X49550635Y-89131692D01*
X49570468Y-88905000D01*
X49567593Y-88872144D01*
X49550635Y-88678313D01*
X49550635Y-88678308D01*
X49491739Y-88458504D01*
X49395568Y-88252266D01*
X49272667Y-88076744D01*
X49265045Y-88065858D01*
X49104141Y-87904954D01*
X48917734Y-87774432D01*
X48917728Y-87774429D01*
X48890038Y-87761517D01*
X48859724Y-87747381D01*
X48807285Y-87701210D01*
X48788133Y-87634017D01*
X48808348Y-87567135D01*
X48859725Y-87522618D01*
X48917734Y-87495568D01*
X49104139Y-87365047D01*
X49265047Y-87204139D01*
X49395568Y-87017734D01*
X49491739Y-86811496D01*
X49550635Y-86591692D01*
X49570468Y-86365000D01*
X49568917Y-86347277D01*
X49564801Y-86300230D01*
X49550635Y-86138308D01*
X49505916Y-85971415D01*
X49491741Y-85918511D01*
X49491738Y-85918502D01*
X49452373Y-85834084D01*
X49395568Y-85712266D01*
X49265047Y-85525861D01*
X49265045Y-85525858D01*
X49104141Y-85364954D01*
X48917734Y-85234432D01*
X48917728Y-85234429D01*
X48859725Y-85207382D01*
X48807285Y-85161210D01*
X48788133Y-85094017D01*
X48808348Y-85027135D01*
X48859725Y-84982618D01*
X48917734Y-84955568D01*
X49104139Y-84825047D01*
X49265047Y-84664139D01*
X49395568Y-84477734D01*
X49491739Y-84271496D01*
X49550635Y-84051692D01*
X49570468Y-83825000D01*
X49550635Y-83598308D01*
X49491739Y-83378504D01*
X49395568Y-83172266D01*
X49265047Y-82985861D01*
X49265045Y-82985858D01*
X49104141Y-82824954D01*
X48917734Y-82694432D01*
X48917728Y-82694429D01*
X48859725Y-82667382D01*
X48807285Y-82621210D01*
X48788133Y-82554017D01*
X48808348Y-82487135D01*
X48859725Y-82442618D01*
X48917734Y-82415568D01*
X49104139Y-82285047D01*
X49265047Y-82124139D01*
X49395568Y-81937734D01*
X49491739Y-81731496D01*
X49550635Y-81511692D01*
X49570468Y-81285000D01*
X49550635Y-81058308D01*
X49491739Y-80838504D01*
X49395568Y-80632266D01*
X49265047Y-80445861D01*
X49265045Y-80445858D01*
X49104141Y-80284954D01*
X48917734Y-80154432D01*
X48917732Y-80154431D01*
X48711497Y-80058261D01*
X48711488Y-80058258D01*
X48491697Y-79999366D01*
X48491693Y-79999365D01*
X48491692Y-79999365D01*
X48491691Y-79999364D01*
X48491686Y-79999364D01*
X48265002Y-79979532D01*
X48264998Y-79979532D01*
X48038313Y-79999364D01*
X48038302Y-79999366D01*
X47818511Y-80058258D01*
X47818502Y-80058261D01*
X47612267Y-80154431D01*
X47612265Y-80154432D01*
X47425858Y-80284954D01*
X47264954Y-80445858D01*
X47134432Y-80632265D01*
X47134431Y-80632267D01*
X47038261Y-80838502D01*
X47038258Y-80838511D01*
X46979366Y-81058302D01*
X46979364Y-81058313D01*
X46959532Y-81284998D01*
X46959532Y-81285001D01*
X46979364Y-81511686D01*
X46979366Y-81511697D01*
X47038258Y-81731488D01*
X47038261Y-81731497D01*
X47134431Y-81937732D01*
X47134432Y-81937734D01*
X47264954Y-82124141D01*
X47425858Y-82285045D01*
X47425861Y-82285047D01*
X47612266Y-82415568D01*
X47670275Y-82442618D01*
X47722714Y-82488791D01*
X47741866Y-82555984D01*
X47721650Y-82622865D01*
X47670275Y-82667382D01*
X47612267Y-82694431D01*
X47612265Y-82694432D01*
X47425858Y-82824954D01*
X47264954Y-82985858D01*
X47134432Y-83172265D01*
X47134431Y-83172267D01*
X47038261Y-83378502D01*
X47038258Y-83378511D01*
X46979366Y-83598302D01*
X46979364Y-83598313D01*
X46959532Y-83824998D01*
X46959532Y-83825001D01*
X46979364Y-84051686D01*
X46979366Y-84051697D01*
X47038258Y-84271488D01*
X47038261Y-84271497D01*
X47134431Y-84477732D01*
X47134432Y-84477734D01*
X47264954Y-84664141D01*
X47425858Y-84825045D01*
X47425861Y-84825047D01*
X47612266Y-84955568D01*
X47670275Y-84982618D01*
X47722714Y-85028791D01*
X47741866Y-85095984D01*
X47721650Y-85162865D01*
X47670275Y-85207382D01*
X47612267Y-85234431D01*
X47612265Y-85234432D01*
X47425858Y-85364954D01*
X47264954Y-85525858D01*
X47134432Y-85712265D01*
X47134431Y-85712267D01*
X47038261Y-85918502D01*
X47038258Y-85918511D01*
X46979366Y-86138302D01*
X46979364Y-86138313D01*
X46959532Y-86364998D01*
X46959532Y-86365001D01*
X46979364Y-86591686D01*
X46979366Y-86591697D01*
X47038258Y-86811488D01*
X47038261Y-86811497D01*
X47134431Y-87017732D01*
X47134432Y-87017734D01*
X47264954Y-87204141D01*
X47425858Y-87365045D01*
X47425861Y-87365047D01*
X47612266Y-87495568D01*
X47670275Y-87522618D01*
X47722714Y-87568791D01*
X47741866Y-87635984D01*
X47721650Y-87702865D01*
X47670275Y-87747382D01*
X47612267Y-87774431D01*
X47612265Y-87774432D01*
X47425858Y-87904954D01*
X47264954Y-88065858D01*
X47134432Y-88252265D01*
X47134431Y-88252267D01*
X47038261Y-88458502D01*
X47038258Y-88458511D01*
X46979366Y-88678302D01*
X46979364Y-88678313D01*
X46959532Y-88904998D01*
X46959532Y-88905001D01*
X46979364Y-89131686D01*
X46979366Y-89131697D01*
X47038258Y-89351488D01*
X47038261Y-89351497D01*
X47134431Y-89557732D01*
X47134432Y-89557734D01*
X47264954Y-89744141D01*
X47425858Y-89905045D01*
X47425861Y-89905047D01*
X47612266Y-90035568D01*
X47670275Y-90062618D01*
X47722714Y-90108791D01*
X47741866Y-90175984D01*
X47721650Y-90242865D01*
X47670275Y-90287382D01*
X47612267Y-90314431D01*
X47612265Y-90314432D01*
X47425858Y-90444954D01*
X47264954Y-90605858D01*
X47134432Y-90792265D01*
X47134431Y-90792267D01*
X47038261Y-90998502D01*
X47038258Y-90998511D01*
X46979366Y-91218302D01*
X46979364Y-91218313D01*
X46959532Y-91444998D01*
X46959532Y-91445000D01*
X46962841Y-91482822D01*
X46949074Y-91551322D01*
X46900459Y-91601506D01*
X46832431Y-91617439D01*
X46788879Y-91606910D01*
X46761807Y-91594857D01*
X46761802Y-91594855D01*
X46616001Y-91563865D01*
X46576646Y-91555500D01*
X46387354Y-91555500D01*
X46354897Y-91562398D01*
X46202197Y-91594855D01*
X46202192Y-91594857D01*
X46029270Y-91671848D01*
X46029265Y-91671851D01*
X45876129Y-91783111D01*
X45749466Y-91923785D01*
X45654821Y-92087715D01*
X45654818Y-92087722D01*
X45610491Y-92224148D01*
X45596326Y-92267744D01*
X45576540Y-92456000D01*
X45596326Y-92644256D01*
X45596327Y-92644259D01*
X45654818Y-92824277D01*
X45654821Y-92824284D01*
X45749467Y-92988216D01*
X45876129Y-93128888D01*
X46029265Y-93240148D01*
X46029270Y-93240151D01*
X46202192Y-93317142D01*
X46202197Y-93317144D01*
X46387354Y-93356500D01*
X46387355Y-93356500D01*
X46576644Y-93356500D01*
X46576646Y-93356500D01*
X46761803Y-93317144D01*
X46934730Y-93240151D01*
X46934733Y-93240148D01*
X46937982Y-93238702D01*
X47007232Y-93229417D01*
X47070509Y-93259044D01*
X47107723Y-93318179D01*
X47107059Y-93388046D01*
X47100801Y-93404385D01*
X47038263Y-93538497D01*
X47038258Y-93538511D01*
X46979366Y-93758302D01*
X46979364Y-93758313D01*
X46959532Y-93984998D01*
X46959532Y-93985001D01*
X46979364Y-94211686D01*
X46979366Y-94211697D01*
X47038258Y-94431488D01*
X47038261Y-94431497D01*
X47134431Y-94637732D01*
X47134432Y-94637734D01*
X47264954Y-94824141D01*
X47425858Y-94985045D01*
X47425861Y-94985047D01*
X47612266Y-95115568D01*
X47670275Y-95142618D01*
X47722714Y-95188791D01*
X47741866Y-95255984D01*
X47721650Y-95322865D01*
X47670275Y-95367382D01*
X47612267Y-95394431D01*
X47612265Y-95394432D01*
X47425858Y-95524954D01*
X47264954Y-95685858D01*
X47134432Y-95872265D01*
X47134431Y-95872267D01*
X47038261Y-96078502D01*
X47038258Y-96078511D01*
X46979366Y-96298302D01*
X46979364Y-96298313D01*
X46959532Y-96524998D01*
X46959532Y-96525001D01*
X46979364Y-96751686D01*
X46979366Y-96751697D01*
X47038258Y-96971488D01*
X47038261Y-96971497D01*
X47134431Y-97177732D01*
X47134432Y-97177734D01*
X47264954Y-97364141D01*
X47425858Y-97525045D01*
X47425861Y-97525047D01*
X47612266Y-97655568D01*
X47670275Y-97682618D01*
X47722714Y-97728791D01*
X47741866Y-97795984D01*
X47721650Y-97862865D01*
X47670275Y-97907382D01*
X47612267Y-97934431D01*
X47612265Y-97934432D01*
X47425858Y-98064954D01*
X47264954Y-98225858D01*
X47134432Y-98412265D01*
X47134431Y-98412267D01*
X47038261Y-98618502D01*
X47038258Y-98618511D01*
X46979366Y-98838302D01*
X46979364Y-98838313D01*
X46959532Y-99064998D01*
X46959532Y-99065001D01*
X46979364Y-99291686D01*
X46979366Y-99291697D01*
X47038258Y-99511488D01*
X47038261Y-99511497D01*
X47134431Y-99717732D01*
X47134432Y-99717734D01*
X47264954Y-99904141D01*
X47425858Y-100065045D01*
X47425861Y-100065047D01*
X47612266Y-100195568D01*
X47670275Y-100222618D01*
X47722714Y-100268791D01*
X47741866Y-100335984D01*
X47721650Y-100402865D01*
X47670275Y-100447382D01*
X47612267Y-100474431D01*
X47612265Y-100474432D01*
X47425862Y-100604951D01*
X47329345Y-100701468D01*
X47268021Y-100734952D01*
X47198330Y-100729968D01*
X47142397Y-100688096D01*
X47117980Y-100622631D01*
X47118342Y-100600833D01*
X47133460Y-100457000D01*
X47113674Y-100268744D01*
X47055179Y-100088716D01*
X46960533Y-99924784D01*
X46833871Y-99784112D01*
X46801708Y-99760744D01*
X46680734Y-99672851D01*
X46680729Y-99672848D01*
X46507807Y-99595857D01*
X46507802Y-99595855D01*
X46362001Y-99564865D01*
X46322646Y-99556500D01*
X46133354Y-99556500D01*
X46100897Y-99563398D01*
X45948197Y-99595855D01*
X45948192Y-99595857D01*
X45775270Y-99672848D01*
X45775265Y-99672851D01*
X45622129Y-99784111D01*
X45495466Y-99924785D01*
X45400821Y-100088715D01*
X45400818Y-100088722D01*
X45342759Y-100267410D01*
X45342326Y-100268744D01*
X45322540Y-100457000D01*
X41394777Y-100457000D01*
X41386135Y-100352702D01*
X41386133Y-100352691D01*
X41329157Y-100127699D01*
X41235924Y-99915151D01*
X41108983Y-99720852D01*
X41108980Y-99720849D01*
X41108979Y-99720847D01*
X40951784Y-99550087D01*
X40951779Y-99550083D01*
X40951777Y-99550081D01*
X40768634Y-99407535D01*
X40768628Y-99407531D01*
X40564504Y-99297064D01*
X40564495Y-99297061D01*
X40344984Y-99221702D01*
X40157404Y-99190401D01*
X40116049Y-99183500D01*
X39883951Y-99183500D01*
X39842596Y-99190401D01*
X39655015Y-99221702D01*
X39435504Y-99297061D01*
X39435495Y-99297064D01*
X39231371Y-99407531D01*
X39231365Y-99407535D01*
X39048222Y-99550081D01*
X39048215Y-99550087D01*
X39039484Y-99559572D01*
X38979595Y-99595561D01*
X38909757Y-99593458D01*
X38852143Y-99553932D01*
X38832075Y-99518918D01*
X38803355Y-99441915D01*
X38803350Y-99441906D01*
X38717190Y-99326812D01*
X38717187Y-99326809D01*
X38602093Y-99240649D01*
X38602086Y-99240645D01*
X38467379Y-99190403D01*
X38467372Y-99190401D01*
X38407844Y-99184000D01*
X37710000Y-99184000D01*
X37710000Y-100209810D01*
X37657453Y-100173984D01*
X37527827Y-100134000D01*
X37426276Y-100134000D01*
X37325862Y-100149135D01*
X37210000Y-100204931D01*
X37210000Y-99184000D01*
X36512155Y-99184000D01*
X36452627Y-99190401D01*
X36452620Y-99190403D01*
X36317913Y-99240645D01*
X36317906Y-99240649D01*
X36202812Y-99326809D01*
X36202809Y-99326812D01*
X36116649Y-99441906D01*
X36116645Y-99441913D01*
X36066403Y-99576620D01*
X36066401Y-99576627D01*
X36060000Y-99636155D01*
X36060000Y-100334000D01*
X37084722Y-100334000D01*
X37036375Y-100417740D01*
X37006190Y-100549992D01*
X37016327Y-100685265D01*
X37065887Y-100811541D01*
X37083797Y-100834000D01*
X36060000Y-100834000D01*
X36060000Y-101531844D01*
X34290500Y-101531844D01*
X34290500Y-93784844D01*
X36441000Y-93784844D01*
X36447401Y-93844372D01*
X36447403Y-93844379D01*
X36497645Y-93979086D01*
X36497649Y-93979093D01*
X36583809Y-94094187D01*
X36583812Y-94094190D01*
X36698906Y-94180350D01*
X36698913Y-94180354D01*
X36833620Y-94230596D01*
X36833627Y-94230598D01*
X36893155Y-94236999D01*
X36893172Y-94237000D01*
X37591000Y-94237000D01*
X37591000Y-93211189D01*
X37643547Y-93247016D01*
X37773173Y-93287000D01*
X37874724Y-93287000D01*
X37975138Y-93271865D01*
X38091000Y-93216068D01*
X38091000Y-94237000D01*
X38788828Y-94237000D01*
X38788844Y-94236999D01*
X38848372Y-94230598D01*
X38848379Y-94230596D01*
X38983086Y-94180354D01*
X38983093Y-94180350D01*
X39098187Y-94094190D01*
X39098190Y-94094187D01*
X39184350Y-93979093D01*
X39184355Y-93979084D01*
X39213075Y-93902081D01*
X39254945Y-93846147D01*
X39320409Y-93821729D01*
X39388682Y-93836580D01*
X39420484Y-93861428D01*
X39429216Y-93870913D01*
X39429219Y-93870915D01*
X39429222Y-93870918D01*
X39612365Y-94013464D01*
X39612371Y-94013468D01*
X39612374Y-94013470D01*
X39816497Y-94123936D01*
X39930487Y-94163068D01*
X40036015Y-94199297D01*
X40036017Y-94199297D01*
X40036019Y-94199298D01*
X40264951Y-94237500D01*
X40264952Y-94237500D01*
X40497048Y-94237500D01*
X40497049Y-94237500D01*
X40725981Y-94199298D01*
X40945503Y-94123936D01*
X41149626Y-94013470D01*
X41186205Y-93985000D01*
X41292739Y-93902081D01*
X41332784Y-93870913D01*
X41489979Y-93700153D01*
X41616924Y-93505849D01*
X41710157Y-93293300D01*
X41767134Y-93068305D01*
X41772524Y-93003260D01*
X41786300Y-92837006D01*
X41786300Y-92836993D01*
X41767135Y-92605702D01*
X41767133Y-92605691D01*
X41710157Y-92380699D01*
X41616924Y-92168151D01*
X41489983Y-91973852D01*
X41489980Y-91973849D01*
X41489979Y-91973847D01*
X41332784Y-91803087D01*
X41332779Y-91803083D01*
X41332777Y-91803081D01*
X41149634Y-91660535D01*
X41149628Y-91660531D01*
X40945504Y-91550064D01*
X40945495Y-91550061D01*
X40725984Y-91474702D01*
X40518023Y-91440000D01*
X40497049Y-91436500D01*
X40264951Y-91436500D01*
X40243977Y-91440000D01*
X40036015Y-91474702D01*
X39816504Y-91550061D01*
X39816495Y-91550064D01*
X39612371Y-91660531D01*
X39612365Y-91660535D01*
X39429222Y-91803081D01*
X39429215Y-91803087D01*
X39420484Y-91812572D01*
X39360595Y-91848561D01*
X39290757Y-91846458D01*
X39233143Y-91806932D01*
X39213075Y-91771918D01*
X39184355Y-91694915D01*
X39184350Y-91694906D01*
X39098190Y-91579812D01*
X39098187Y-91579809D01*
X38983093Y-91493649D01*
X38983086Y-91493645D01*
X38848379Y-91443403D01*
X38848372Y-91443401D01*
X38788844Y-91437000D01*
X38091000Y-91437000D01*
X38091000Y-92462810D01*
X38038453Y-92426984D01*
X37908827Y-92387000D01*
X37807276Y-92387000D01*
X37706862Y-92402135D01*
X37591000Y-92457931D01*
X37591000Y-91437000D01*
X36893155Y-91437000D01*
X36833627Y-91443401D01*
X36833620Y-91443403D01*
X36698913Y-91493645D01*
X36698906Y-91493649D01*
X36583812Y-91579809D01*
X36583809Y-91579812D01*
X36497649Y-91694906D01*
X36497645Y-91694913D01*
X36447403Y-91829620D01*
X36447401Y-91829627D01*
X36441000Y-91889155D01*
X36441000Y-92587000D01*
X37465722Y-92587000D01*
X37417375Y-92670740D01*
X37387190Y-92802992D01*
X37397327Y-92938265D01*
X37446887Y-93064541D01*
X37464797Y-93087000D01*
X36441000Y-93087000D01*
X36441000Y-93784844D01*
X34290500Y-93784844D01*
X34290500Y-87815844D01*
X36446000Y-87815844D01*
X36452401Y-87875372D01*
X36452403Y-87875379D01*
X36502645Y-88010086D01*
X36502649Y-88010093D01*
X36588809Y-88125187D01*
X36588812Y-88125190D01*
X36703906Y-88211350D01*
X36703913Y-88211354D01*
X36838620Y-88261596D01*
X36838627Y-88261598D01*
X36898155Y-88267999D01*
X36898172Y-88268000D01*
X37596000Y-88268000D01*
X37596000Y-87242189D01*
X37648547Y-87278016D01*
X37778173Y-87318000D01*
X37879724Y-87318000D01*
X37980138Y-87302865D01*
X38096000Y-87247068D01*
X38096000Y-88268000D01*
X38793828Y-88268000D01*
X38793844Y-88267999D01*
X38853372Y-88261598D01*
X38853379Y-88261596D01*
X38988086Y-88211354D01*
X38988093Y-88211350D01*
X39103187Y-88125190D01*
X39103190Y-88125187D01*
X39189350Y-88010093D01*
X39189355Y-88010084D01*
X39218075Y-87933081D01*
X39259945Y-87877147D01*
X39325409Y-87852729D01*
X39393682Y-87867580D01*
X39425484Y-87892428D01*
X39434216Y-87901913D01*
X39434219Y-87901915D01*
X39434222Y-87901918D01*
X39617365Y-88044464D01*
X39617371Y-88044468D01*
X39617374Y-88044470D01*
X39821497Y-88154936D01*
X39935487Y-88194068D01*
X40041015Y-88230297D01*
X40041017Y-88230297D01*
X40041019Y-88230298D01*
X40269951Y-88268500D01*
X40269952Y-88268500D01*
X40502048Y-88268500D01*
X40502049Y-88268500D01*
X40730981Y-88230298D01*
X40950503Y-88154936D01*
X41154626Y-88044470D01*
X41197629Y-88011000D01*
X41230391Y-87985500D01*
X41337784Y-87901913D01*
X41494979Y-87731153D01*
X41621924Y-87536849D01*
X41715157Y-87324300D01*
X41772134Y-87099305D01*
X41772446Y-87095541D01*
X41791300Y-86868006D01*
X41791300Y-86867993D01*
X41772135Y-86636702D01*
X41772133Y-86636691D01*
X41715157Y-86411699D01*
X41621924Y-86199151D01*
X41494983Y-86004852D01*
X41494980Y-86004849D01*
X41494979Y-86004847D01*
X41337784Y-85834087D01*
X41337779Y-85834083D01*
X41337777Y-85834081D01*
X41154634Y-85691535D01*
X41154628Y-85691531D01*
X40950504Y-85581064D01*
X40950495Y-85581061D01*
X40730984Y-85505702D01*
X40543404Y-85474401D01*
X40502049Y-85467500D01*
X40269951Y-85467500D01*
X40228596Y-85474401D01*
X40041015Y-85505702D01*
X39821504Y-85581061D01*
X39821495Y-85581064D01*
X39617371Y-85691531D01*
X39617365Y-85691535D01*
X39434222Y-85834081D01*
X39434215Y-85834087D01*
X39425484Y-85843572D01*
X39365595Y-85879561D01*
X39295757Y-85877458D01*
X39238143Y-85837932D01*
X39218075Y-85802918D01*
X39189355Y-85725915D01*
X39189350Y-85725906D01*
X39103190Y-85610812D01*
X39103187Y-85610809D01*
X38988093Y-85524649D01*
X38988086Y-85524645D01*
X38853379Y-85474403D01*
X38853372Y-85474401D01*
X38793844Y-85468000D01*
X38096000Y-85468000D01*
X38096000Y-86493810D01*
X38043453Y-86457984D01*
X37913827Y-86418000D01*
X37812276Y-86418000D01*
X37711862Y-86433135D01*
X37596000Y-86488931D01*
X37596000Y-85468000D01*
X36898155Y-85468000D01*
X36838627Y-85474401D01*
X36838620Y-85474403D01*
X36703913Y-85524645D01*
X36703906Y-85524649D01*
X36588812Y-85610809D01*
X36588809Y-85610812D01*
X36502649Y-85725906D01*
X36502645Y-85725913D01*
X36452403Y-85860620D01*
X36452401Y-85860627D01*
X36446000Y-85920155D01*
X36446000Y-86618000D01*
X37470722Y-86618000D01*
X37422375Y-86701740D01*
X37392190Y-86833992D01*
X37402327Y-86969265D01*
X37451887Y-87095541D01*
X37469797Y-87118000D01*
X36446000Y-87118000D01*
X36446000Y-87815844D01*
X34290500Y-87815844D01*
X34290500Y-82550000D01*
X44814540Y-82550000D01*
X44834326Y-82738256D01*
X44834327Y-82738259D01*
X44892818Y-82918277D01*
X44892821Y-82918284D01*
X44987467Y-83082216D01*
X45045899Y-83147111D01*
X45114129Y-83222888D01*
X45267265Y-83334148D01*
X45267270Y-83334151D01*
X45440192Y-83411142D01*
X45440197Y-83411144D01*
X45625354Y-83450500D01*
X45625355Y-83450500D01*
X45814644Y-83450500D01*
X45814646Y-83450500D01*
X45999803Y-83411144D01*
X46172730Y-83334151D01*
X46325871Y-83222888D01*
X46452533Y-83082216D01*
X46547179Y-82918284D01*
X46605674Y-82738256D01*
X46625460Y-82550000D01*
X46605674Y-82361744D01*
X46547179Y-82181716D01*
X46452533Y-82017784D01*
X46325871Y-81877112D01*
X46325870Y-81877111D01*
X46172734Y-81765851D01*
X46172729Y-81765848D01*
X45999807Y-81688857D01*
X45999802Y-81688855D01*
X45854001Y-81657865D01*
X45814646Y-81649500D01*
X45625354Y-81649500D01*
X45592897Y-81656398D01*
X45440197Y-81688855D01*
X45440192Y-81688857D01*
X45267270Y-81765848D01*
X45267265Y-81765851D01*
X45114129Y-81877111D01*
X44987466Y-82017785D01*
X44892821Y-82181715D01*
X44892818Y-82181722D01*
X44834327Y-82361740D01*
X44834326Y-82361744D01*
X44814540Y-82550000D01*
X34290500Y-82550000D01*
X34290500Y-78740000D01*
X77834540Y-78740000D01*
X77854326Y-78928256D01*
X77854327Y-78928259D01*
X77912818Y-79108277D01*
X77912821Y-79108284D01*
X78007467Y-79272216D01*
X78065899Y-79337111D01*
X78134129Y-79412888D01*
X78287265Y-79524148D01*
X78287270Y-79524151D01*
X78460192Y-79601142D01*
X78460197Y-79601144D01*
X78645354Y-79640500D01*
X78645355Y-79640500D01*
X78834644Y-79640500D01*
X78834646Y-79640500D01*
X79019803Y-79601144D01*
X79192730Y-79524151D01*
X79345871Y-79412888D01*
X79472533Y-79272216D01*
X79567179Y-79108284D01*
X79625674Y-78928256D01*
X79645460Y-78740000D01*
X117204540Y-78740000D01*
X117224326Y-78928256D01*
X117224327Y-78928259D01*
X117282818Y-79108277D01*
X117282821Y-79108284D01*
X117377467Y-79272216D01*
X117435899Y-79337111D01*
X117504129Y-79412888D01*
X117657265Y-79524148D01*
X117657270Y-79524151D01*
X117830192Y-79601142D01*
X117830197Y-79601144D01*
X118015354Y-79640500D01*
X118015355Y-79640500D01*
X118204644Y-79640500D01*
X118204646Y-79640500D01*
X118389803Y-79601144D01*
X118562730Y-79524151D01*
X118715871Y-79412888D01*
X118842533Y-79272216D01*
X118937179Y-79108284D01*
X118995674Y-78928256D01*
X119015460Y-78740000D01*
X118995674Y-78551744D01*
X118937179Y-78371716D01*
X118842533Y-78207784D01*
X118715871Y-78067112D01*
X118715870Y-78067111D01*
X118562734Y-77955851D01*
X118562729Y-77955848D01*
X118389807Y-77878857D01*
X118389802Y-77878855D01*
X118244001Y-77847865D01*
X118204646Y-77839500D01*
X118015354Y-77839500D01*
X117982897Y-77846398D01*
X117830197Y-77878855D01*
X117830192Y-77878857D01*
X117657270Y-77955848D01*
X117657265Y-77955851D01*
X117504129Y-78067111D01*
X117377466Y-78207785D01*
X117282821Y-78371715D01*
X117282818Y-78371722D01*
X117231771Y-78528830D01*
X117224326Y-78551744D01*
X117204540Y-78740000D01*
X79645460Y-78740000D01*
X79625674Y-78551744D01*
X79567179Y-78371716D01*
X79472533Y-78207784D01*
X79345871Y-78067112D01*
X79345870Y-78067111D01*
X79192734Y-77955851D01*
X79192729Y-77955848D01*
X79019807Y-77878857D01*
X79019802Y-77878855D01*
X78874001Y-77847865D01*
X78834646Y-77839500D01*
X78645354Y-77839500D01*
X78612897Y-77846398D01*
X78460197Y-77878855D01*
X78460192Y-77878857D01*
X78287270Y-77955848D01*
X78287265Y-77955851D01*
X78134129Y-78067111D01*
X78007466Y-78207785D01*
X77912821Y-78371715D01*
X77912818Y-78371722D01*
X77861771Y-78528830D01*
X77854326Y-78551744D01*
X77834540Y-78740000D01*
X34290500Y-78740000D01*
X34290500Y-76200000D01*
X105991040Y-76200000D01*
X106010826Y-76388256D01*
X106010827Y-76388259D01*
X106069318Y-76568277D01*
X106069321Y-76568284D01*
X106163967Y-76732216D01*
X106276929Y-76857673D01*
X106290629Y-76872888D01*
X106443765Y-76984148D01*
X106443770Y-76984151D01*
X106616692Y-77061142D01*
X106616697Y-77061144D01*
X106801854Y-77100500D01*
X106801855Y-77100500D01*
X106991144Y-77100500D01*
X106991146Y-77100500D01*
X107176303Y-77061144D01*
X107349230Y-76984151D01*
X107502371Y-76872888D01*
X107629033Y-76732216D01*
X107723679Y-76568284D01*
X107782174Y-76388256D01*
X107801960Y-76200000D01*
X107782174Y-76011744D01*
X107723679Y-75831716D01*
X107629033Y-75667784D01*
X107502371Y-75527112D01*
X107502370Y-75527111D01*
X107349234Y-75415851D01*
X107349229Y-75415848D01*
X107176307Y-75338857D01*
X107176302Y-75338855D01*
X107030501Y-75307865D01*
X106991146Y-75299500D01*
X106801854Y-75299500D01*
X106769397Y-75306398D01*
X106616697Y-75338855D01*
X106616692Y-75338857D01*
X106443770Y-75415848D01*
X106443765Y-75415851D01*
X106290629Y-75527111D01*
X106163966Y-75667785D01*
X106069321Y-75831715D01*
X106069318Y-75831722D01*
X106010827Y-76011740D01*
X106010826Y-76011744D01*
X105991040Y-76200000D01*
X34290500Y-76200000D01*
X34290500Y-74930000D01*
X75294540Y-74930000D01*
X75314326Y-75118256D01*
X75314327Y-75118259D01*
X75372818Y-75298277D01*
X75372821Y-75298284D01*
X75467467Y-75462216D01*
X75525899Y-75527111D01*
X75594129Y-75602888D01*
X75747265Y-75714148D01*
X75747270Y-75714151D01*
X75920192Y-75791142D01*
X75920197Y-75791144D01*
X76105354Y-75830500D01*
X76105355Y-75830500D01*
X76294644Y-75830500D01*
X76294646Y-75830500D01*
X76479803Y-75791144D01*
X76652730Y-75714151D01*
X76805871Y-75602888D01*
X76932533Y-75462216D01*
X77027179Y-75298284D01*
X77085674Y-75118256D01*
X77105460Y-74930000D01*
X77085674Y-74741744D01*
X77027179Y-74561716D01*
X76932533Y-74397784D01*
X76805871Y-74257112D01*
X76805870Y-74257111D01*
X76652734Y-74145851D01*
X76652729Y-74145848D01*
X76479807Y-74068857D01*
X76479802Y-74068855D01*
X76334001Y-74037865D01*
X76294646Y-74029500D01*
X76105354Y-74029500D01*
X76072897Y-74036398D01*
X75920197Y-74068855D01*
X75920192Y-74068857D01*
X75747270Y-74145848D01*
X75747265Y-74145851D01*
X75594129Y-74257111D01*
X75467466Y-74397785D01*
X75372821Y-74561715D01*
X75372818Y-74561722D01*
X75330184Y-74692938D01*
X75314326Y-74741744D01*
X75294540Y-74930000D01*
X34290500Y-74930000D01*
X34290500Y-74353844D01*
X39113000Y-74353844D01*
X39119401Y-74413372D01*
X39119403Y-74413379D01*
X39169645Y-74548086D01*
X39169649Y-74548093D01*
X39255809Y-74663187D01*
X39255812Y-74663190D01*
X39370906Y-74749350D01*
X39370913Y-74749354D01*
X39505620Y-74799596D01*
X39505627Y-74799598D01*
X39565155Y-74805999D01*
X39565172Y-74806000D01*
X40263000Y-74806000D01*
X40263000Y-73780189D01*
X40315547Y-73816016D01*
X40445173Y-73856000D01*
X40546724Y-73856000D01*
X40647138Y-73840865D01*
X40763000Y-73785068D01*
X40763000Y-74806000D01*
X41460828Y-74806000D01*
X41460844Y-74805999D01*
X41520372Y-74799598D01*
X41520379Y-74799596D01*
X41655086Y-74749354D01*
X41655093Y-74749350D01*
X41770187Y-74663190D01*
X41770190Y-74663187D01*
X41856350Y-74548093D01*
X41856355Y-74548084D01*
X41885075Y-74471081D01*
X41926945Y-74415147D01*
X41992409Y-74390729D01*
X42060682Y-74405580D01*
X42092484Y-74430428D01*
X42101216Y-74439913D01*
X42101219Y-74439915D01*
X42101222Y-74439918D01*
X42284365Y-74582464D01*
X42284371Y-74582468D01*
X42284374Y-74582470D01*
X42488497Y-74692936D01*
X42602487Y-74732068D01*
X42708015Y-74768297D01*
X42708017Y-74768297D01*
X42708019Y-74768298D01*
X42936951Y-74806500D01*
X42936952Y-74806500D01*
X43169048Y-74806500D01*
X43169049Y-74806500D01*
X43397981Y-74768298D01*
X43617503Y-74692936D01*
X43821626Y-74582470D01*
X44004784Y-74439913D01*
X44161979Y-74269153D01*
X44288924Y-74074849D01*
X44382157Y-73862300D01*
X44439134Y-73637305D01*
X44439446Y-73633541D01*
X44458300Y-73406006D01*
X44458300Y-73405993D01*
X44447777Y-73279000D01*
X50656540Y-73279000D01*
X50676326Y-73467256D01*
X50676327Y-73467259D01*
X50734818Y-73647277D01*
X50734821Y-73647284D01*
X50829467Y-73811216D01*
X50956129Y-73951888D01*
X51109265Y-74063148D01*
X51109270Y-74063151D01*
X51282192Y-74140142D01*
X51282197Y-74140144D01*
X51467354Y-74179500D01*
X51467355Y-74179500D01*
X51656644Y-74179500D01*
X51656646Y-74179500D01*
X51841803Y-74140144D01*
X52014730Y-74063151D01*
X52167871Y-73951888D01*
X52294533Y-73811216D01*
X52381837Y-73660000D01*
X89264540Y-73660000D01*
X89284326Y-73848256D01*
X89284327Y-73848259D01*
X89342818Y-74028277D01*
X89342821Y-74028284D01*
X89437467Y-74192216D01*
X89506742Y-74269153D01*
X89564129Y-74332888D01*
X89717265Y-74444148D01*
X89717270Y-74444151D01*
X89890192Y-74521142D01*
X89890197Y-74521144D01*
X90075354Y-74560500D01*
X90075355Y-74560500D01*
X90264644Y-74560500D01*
X90264646Y-74560500D01*
X90449803Y-74521144D01*
X90622730Y-74444151D01*
X90775871Y-74332888D01*
X90902533Y-74192216D01*
X90997179Y-74028284D01*
X91055674Y-73848256D01*
X91062112Y-73787000D01*
X104250540Y-73787000D01*
X104270326Y-73975256D01*
X104270327Y-73975259D01*
X104328818Y-74155277D01*
X104328821Y-74155284D01*
X104423467Y-74319216D01*
X104508246Y-74413372D01*
X104550129Y-74459888D01*
X104703265Y-74571148D01*
X104703270Y-74571151D01*
X104876192Y-74648142D01*
X104876197Y-74648144D01*
X105061354Y-74687500D01*
X105061355Y-74687500D01*
X105250644Y-74687500D01*
X105250646Y-74687500D01*
X105435803Y-74648144D01*
X105608730Y-74571151D01*
X105761871Y-74459888D01*
X105888533Y-74319216D01*
X105983179Y-74155284D01*
X106041674Y-73975256D01*
X106061460Y-73787000D01*
X106041674Y-73598744D01*
X105983179Y-73418716D01*
X105888533Y-73254784D01*
X105761871Y-73114112D01*
X105729708Y-73090744D01*
X105608734Y-73002851D01*
X105608729Y-73002848D01*
X105435807Y-72925857D01*
X105435802Y-72925855D01*
X105290001Y-72894865D01*
X105250646Y-72886500D01*
X105061354Y-72886500D01*
X105028897Y-72893398D01*
X104876197Y-72925855D01*
X104876192Y-72925857D01*
X104703270Y-73002848D01*
X104703265Y-73002851D01*
X104550129Y-73114111D01*
X104423466Y-73254785D01*
X104328821Y-73418715D01*
X104328818Y-73418722D01*
X104278931Y-73572260D01*
X104270326Y-73598744D01*
X104250540Y-73787000D01*
X91062112Y-73787000D01*
X91075460Y-73660000D01*
X91055674Y-73471744D01*
X90997179Y-73291716D01*
X90902533Y-73127784D01*
X90775871Y-72987112D01*
X90775870Y-72987111D01*
X90622734Y-72875851D01*
X90622729Y-72875848D01*
X90449807Y-72798857D01*
X90449802Y-72798855D01*
X90304001Y-72767865D01*
X90264646Y-72759500D01*
X90075354Y-72759500D01*
X90042897Y-72766398D01*
X89890197Y-72798855D01*
X89890192Y-72798857D01*
X89717270Y-72875848D01*
X89717265Y-72875851D01*
X89564129Y-72987111D01*
X89437466Y-73127785D01*
X89342821Y-73291715D01*
X89342818Y-73291722D01*
X89285784Y-73467256D01*
X89284326Y-73471744D01*
X89264540Y-73660000D01*
X52381837Y-73660000D01*
X52389179Y-73647284D01*
X52447674Y-73467256D01*
X52467460Y-73279000D01*
X52447674Y-73090744D01*
X52389179Y-72910716D01*
X52294533Y-72746784D01*
X52167871Y-72606112D01*
X52167870Y-72606111D01*
X52014734Y-72494851D01*
X52014729Y-72494848D01*
X51841807Y-72417857D01*
X51841802Y-72417855D01*
X51710750Y-72390000D01*
X75294540Y-72390000D01*
X75314326Y-72578256D01*
X75314327Y-72578259D01*
X75372818Y-72758277D01*
X75372821Y-72758284D01*
X75467467Y-72922216D01*
X75564510Y-73029993D01*
X75594129Y-73062888D01*
X75747265Y-73174148D01*
X75747270Y-73174151D01*
X75920192Y-73251142D01*
X75920197Y-73251144D01*
X76105354Y-73290500D01*
X76105355Y-73290500D01*
X76294644Y-73290500D01*
X76294646Y-73290500D01*
X76479803Y-73251144D01*
X76652730Y-73174151D01*
X76805871Y-73062888D01*
X76932533Y-72922216D01*
X77027179Y-72758284D01*
X77085674Y-72578256D01*
X77105460Y-72390000D01*
X77085674Y-72201744D01*
X77027179Y-72021716D01*
X76932533Y-71857784D01*
X76805871Y-71717112D01*
X76805870Y-71717111D01*
X76652734Y-71605851D01*
X76652729Y-71605848D01*
X76479807Y-71528857D01*
X76479802Y-71528855D01*
X76334001Y-71497865D01*
X76294646Y-71489500D01*
X76105354Y-71489500D01*
X76072897Y-71496398D01*
X75920197Y-71528855D01*
X75920192Y-71528857D01*
X75747270Y-71605848D01*
X75747265Y-71605851D01*
X75594129Y-71717111D01*
X75467466Y-71857785D01*
X75372821Y-72021715D01*
X75372818Y-72021722D01*
X75314327Y-72201740D01*
X75314326Y-72201744D01*
X75294540Y-72390000D01*
X51710750Y-72390000D01*
X51696001Y-72386865D01*
X51656646Y-72378500D01*
X51467354Y-72378500D01*
X51434897Y-72385398D01*
X51282197Y-72417855D01*
X51282192Y-72417857D01*
X51109270Y-72494848D01*
X51109265Y-72494851D01*
X50956129Y-72606111D01*
X50829466Y-72746785D01*
X50734821Y-72910715D01*
X50734818Y-72910722D01*
X50704884Y-73002851D01*
X50676326Y-73090744D01*
X50656540Y-73279000D01*
X44447777Y-73279000D01*
X44439135Y-73174702D01*
X44439133Y-73174691D01*
X44382157Y-72949699D01*
X44288924Y-72737151D01*
X44161983Y-72542852D01*
X44161980Y-72542849D01*
X44161979Y-72542847D01*
X44004784Y-72372087D01*
X44004779Y-72372083D01*
X44004777Y-72372081D01*
X43821634Y-72229535D01*
X43821628Y-72229531D01*
X43617504Y-72119064D01*
X43617495Y-72119061D01*
X43397984Y-72043702D01*
X43210404Y-72012401D01*
X43169049Y-72005500D01*
X42936951Y-72005500D01*
X42895596Y-72012401D01*
X42708015Y-72043702D01*
X42488504Y-72119061D01*
X42488495Y-72119064D01*
X42284371Y-72229531D01*
X42284365Y-72229535D01*
X42101222Y-72372081D01*
X42101215Y-72372087D01*
X42092484Y-72381572D01*
X42032595Y-72417561D01*
X41962757Y-72415458D01*
X41905143Y-72375932D01*
X41885075Y-72340918D01*
X41856355Y-72263915D01*
X41856350Y-72263906D01*
X41770190Y-72148812D01*
X41770187Y-72148809D01*
X41655093Y-72062649D01*
X41655086Y-72062645D01*
X41520379Y-72012403D01*
X41520372Y-72012401D01*
X41460844Y-72006000D01*
X40763000Y-72006000D01*
X40763000Y-73031810D01*
X40710453Y-72995984D01*
X40580827Y-72956000D01*
X40479276Y-72956000D01*
X40378862Y-72971135D01*
X40263000Y-73026931D01*
X40263000Y-72006000D01*
X39565155Y-72006000D01*
X39505627Y-72012401D01*
X39505620Y-72012403D01*
X39370913Y-72062645D01*
X39370906Y-72062649D01*
X39255812Y-72148809D01*
X39255809Y-72148812D01*
X39169649Y-72263906D01*
X39169645Y-72263913D01*
X39119403Y-72398620D01*
X39119401Y-72398627D01*
X39113000Y-72458155D01*
X39113000Y-73156000D01*
X40137722Y-73156000D01*
X40089375Y-73239740D01*
X40059190Y-73371992D01*
X40069327Y-73507265D01*
X40118887Y-73633541D01*
X40136797Y-73656000D01*
X39113000Y-73656000D01*
X39113000Y-74353844D01*
X34290500Y-74353844D01*
X34290500Y-69723000D01*
X61578540Y-69723000D01*
X61598326Y-69911256D01*
X61598327Y-69911259D01*
X61656818Y-70091277D01*
X61656821Y-70091284D01*
X61751467Y-70255216D01*
X61863957Y-70380148D01*
X61878129Y-70395888D01*
X62031265Y-70507148D01*
X62031270Y-70507151D01*
X62204192Y-70584142D01*
X62204197Y-70584144D01*
X62389354Y-70623500D01*
X62389355Y-70623500D01*
X62578644Y-70623500D01*
X62578646Y-70623500D01*
X62763803Y-70584144D01*
X62936730Y-70507151D01*
X63089871Y-70395888D01*
X63216533Y-70255216D01*
X63311179Y-70091284D01*
X63369674Y-69911256D01*
X63389460Y-69723000D01*
X63372128Y-69558094D01*
X63887485Y-69558094D01*
X63907271Y-69746350D01*
X63907272Y-69746353D01*
X63965763Y-69926371D01*
X63965766Y-69926378D01*
X64060412Y-70090310D01*
X64094543Y-70128216D01*
X64187074Y-70230982D01*
X64340210Y-70342242D01*
X64340215Y-70342245D01*
X64513137Y-70419236D01*
X64513142Y-70419238D01*
X64698299Y-70458594D01*
X64698300Y-70458594D01*
X64887589Y-70458594D01*
X64887591Y-70458594D01*
X65072748Y-70419238D01*
X65245675Y-70342245D01*
X65398816Y-70230982D01*
X65525478Y-70090310D01*
X65620124Y-69926378D01*
X65678619Y-69746350D01*
X65698405Y-69558094D01*
X65678619Y-69369838D01*
X65620441Y-69190785D01*
X65620126Y-69189816D01*
X65620125Y-69189815D01*
X65620124Y-69189810D01*
X65525478Y-69025878D01*
X65398816Y-68885206D01*
X65366679Y-68861857D01*
X65245679Y-68773945D01*
X65245674Y-68773942D01*
X65072752Y-68696951D01*
X65072747Y-68696949D01*
X64925534Y-68665659D01*
X64887591Y-68657594D01*
X64698299Y-68657594D01*
X64665842Y-68664492D01*
X64513142Y-68696949D01*
X64513137Y-68696951D01*
X64340215Y-68773942D01*
X64340210Y-68773945D01*
X64187074Y-68885205D01*
X64060411Y-69025879D01*
X63965766Y-69189809D01*
X63965763Y-69189816D01*
X63907272Y-69369834D01*
X63907271Y-69369838D01*
X63887485Y-69558094D01*
X63372128Y-69558094D01*
X63369674Y-69534744D01*
X63311179Y-69354716D01*
X63216533Y-69190784D01*
X63089871Y-69050112D01*
X63089870Y-69050111D01*
X62936734Y-68938851D01*
X62936729Y-68938848D01*
X62763807Y-68861857D01*
X62763802Y-68861855D01*
X62618001Y-68830865D01*
X62578646Y-68822500D01*
X62389354Y-68822500D01*
X62356897Y-68829398D01*
X62204197Y-68861855D01*
X62204192Y-68861857D01*
X62031270Y-68938848D01*
X62031265Y-68938851D01*
X61878129Y-69050111D01*
X61751466Y-69190785D01*
X61656821Y-69354715D01*
X61656818Y-69354722D01*
X61606807Y-69508642D01*
X61598326Y-69534744D01*
X61578540Y-69723000D01*
X34290500Y-69723000D01*
X34290500Y-68257844D01*
X39240000Y-68257844D01*
X39246401Y-68317372D01*
X39246403Y-68317379D01*
X39296645Y-68452086D01*
X39296649Y-68452093D01*
X39382809Y-68567187D01*
X39382812Y-68567190D01*
X39497906Y-68653350D01*
X39497913Y-68653354D01*
X39632620Y-68703596D01*
X39632627Y-68703598D01*
X39692155Y-68709999D01*
X39692172Y-68710000D01*
X40390000Y-68710000D01*
X40390000Y-67684189D01*
X40442547Y-67720016D01*
X40572173Y-67760000D01*
X40673724Y-67760000D01*
X40774138Y-67744865D01*
X40890000Y-67689068D01*
X40890000Y-68710000D01*
X41587828Y-68710000D01*
X41587844Y-68709999D01*
X41647372Y-68703598D01*
X41647379Y-68703596D01*
X41782086Y-68653354D01*
X41782093Y-68653350D01*
X41897187Y-68567190D01*
X41897190Y-68567187D01*
X41983350Y-68452093D01*
X41983355Y-68452084D01*
X42012075Y-68375081D01*
X42053945Y-68319147D01*
X42119409Y-68294729D01*
X42187682Y-68309580D01*
X42219484Y-68334428D01*
X42228216Y-68343913D01*
X42228219Y-68343915D01*
X42228222Y-68343918D01*
X42411365Y-68486464D01*
X42411371Y-68486468D01*
X42411374Y-68486470D01*
X42615497Y-68596936D01*
X42729487Y-68636068D01*
X42835015Y-68672297D01*
X42835017Y-68672297D01*
X42835019Y-68672298D01*
X43063951Y-68710500D01*
X43063952Y-68710500D01*
X43296048Y-68710500D01*
X43296049Y-68710500D01*
X43524981Y-68672298D01*
X43597215Y-68647500D01*
X72852720Y-68647500D01*
X72872506Y-68835756D01*
X72872507Y-68835759D01*
X72930998Y-69015777D01*
X72931001Y-69015784D01*
X73025647Y-69179716D01*
X73035613Y-69190784D01*
X73152309Y-69320388D01*
X73305445Y-69431648D01*
X73305450Y-69431651D01*
X73478372Y-69508642D01*
X73478377Y-69508644D01*
X73663534Y-69548000D01*
X73664566Y-69548000D01*
X73665141Y-69548168D01*
X73670002Y-69548680D01*
X73669908Y-69549568D01*
X73731605Y-69567685D01*
X73777360Y-69620489D01*
X73787886Y-69684957D01*
X73770540Y-69850000D01*
X73790326Y-70038256D01*
X73790327Y-70038259D01*
X73848818Y-70218277D01*
X73848821Y-70218284D01*
X73943467Y-70382216D01*
X74046369Y-70496500D01*
X74070129Y-70522888D01*
X74223265Y-70634148D01*
X74223270Y-70634151D01*
X74396192Y-70711142D01*
X74396197Y-70711144D01*
X74581354Y-70750500D01*
X74581355Y-70750500D01*
X74770644Y-70750500D01*
X74770646Y-70750500D01*
X74955803Y-70711144D01*
X75128730Y-70634151D01*
X75281871Y-70522888D01*
X75408533Y-70382216D01*
X75503179Y-70218284D01*
X75561674Y-70038256D01*
X75581460Y-69850000D01*
X75561674Y-69661744D01*
X75540312Y-69596000D01*
X84565540Y-69596000D01*
X84585326Y-69784256D01*
X84585327Y-69784259D01*
X84643818Y-69964277D01*
X84643821Y-69964284D01*
X84738467Y-70128216D01*
X84819559Y-70218277D01*
X84865129Y-70268888D01*
X85018265Y-70380148D01*
X85018270Y-70380151D01*
X85191192Y-70457142D01*
X85191197Y-70457144D01*
X85376354Y-70496500D01*
X85376355Y-70496500D01*
X85565644Y-70496500D01*
X85565646Y-70496500D01*
X85750803Y-70457144D01*
X85923730Y-70380151D01*
X86076871Y-70268888D01*
X86203533Y-70128216D01*
X86298179Y-69964284D01*
X86356674Y-69784256D01*
X86363112Y-69723000D01*
X99424540Y-69723000D01*
X99444326Y-69911256D01*
X99444327Y-69911259D01*
X99502818Y-70091277D01*
X99502821Y-70091284D01*
X99597467Y-70255216D01*
X99709957Y-70380148D01*
X99724129Y-70395888D01*
X99877265Y-70507148D01*
X99877270Y-70507151D01*
X100050192Y-70584142D01*
X100050197Y-70584144D01*
X100235354Y-70623500D01*
X100235355Y-70623500D01*
X100424644Y-70623500D01*
X100424646Y-70623500D01*
X100609803Y-70584144D01*
X100782730Y-70507151D01*
X100935871Y-70395888D01*
X101062533Y-70255216D01*
X101157179Y-70091284D01*
X101215674Y-69911256D01*
X101235460Y-69723000D01*
X101215674Y-69534744D01*
X101157179Y-69354716D01*
X101062533Y-69190784D01*
X100935871Y-69050112D01*
X100935870Y-69050111D01*
X100782734Y-68938851D01*
X100782729Y-68938848D01*
X100609807Y-68861857D01*
X100609802Y-68861855D01*
X100464001Y-68830865D01*
X100424646Y-68822500D01*
X100235354Y-68822500D01*
X100202897Y-68829398D01*
X100050197Y-68861855D01*
X100050192Y-68861857D01*
X99877270Y-68938848D01*
X99877265Y-68938851D01*
X99724129Y-69050111D01*
X99597466Y-69190785D01*
X99502821Y-69354715D01*
X99502818Y-69354722D01*
X99452807Y-69508642D01*
X99444326Y-69534744D01*
X99424540Y-69723000D01*
X86363112Y-69723000D01*
X86376460Y-69596000D01*
X86356674Y-69407744D01*
X86298179Y-69227716D01*
X86203533Y-69063784D01*
X86076871Y-68923112D01*
X86024698Y-68885206D01*
X85923734Y-68811851D01*
X85923729Y-68811848D01*
X85750807Y-68734857D01*
X85750802Y-68734855D01*
X85572472Y-68696951D01*
X85565646Y-68695500D01*
X85376354Y-68695500D01*
X85369528Y-68696951D01*
X85191197Y-68734855D01*
X85191192Y-68734857D01*
X85018270Y-68811848D01*
X85018265Y-68811851D01*
X84865129Y-68923111D01*
X84738466Y-69063785D01*
X84643821Y-69227715D01*
X84643818Y-69227722D01*
X84597642Y-69369838D01*
X84585326Y-69407744D01*
X84565540Y-69596000D01*
X75540312Y-69596000D01*
X75503179Y-69481716D01*
X75408533Y-69317784D01*
X75281871Y-69177112D01*
X75281870Y-69177111D01*
X75128734Y-69065851D01*
X75128729Y-69065848D01*
X74955807Y-68988857D01*
X74955802Y-68988855D01*
X74810001Y-68957865D01*
X74770646Y-68949500D01*
X74770645Y-68949500D01*
X74769614Y-68949500D01*
X74769038Y-68949331D01*
X74764178Y-68948820D01*
X74764271Y-68947931D01*
X74702575Y-68929815D01*
X74656820Y-68877011D01*
X74646293Y-68812542D01*
X74663640Y-68647500D01*
X74643854Y-68459244D01*
X74585359Y-68279216D01*
X74490713Y-68115284D01*
X74364051Y-67974612D01*
X74364050Y-67974611D01*
X74210914Y-67863351D01*
X74210909Y-67863348D01*
X74037987Y-67786357D01*
X74037982Y-67786355D01*
X73892181Y-67755365D01*
X73852826Y-67747000D01*
X73663534Y-67747000D01*
X73631077Y-67753898D01*
X73478377Y-67786355D01*
X73478372Y-67786357D01*
X73305450Y-67863348D01*
X73305445Y-67863351D01*
X73152309Y-67974611D01*
X73025646Y-68115285D01*
X72931001Y-68279215D01*
X72930998Y-68279222D01*
X72872507Y-68459240D01*
X72872506Y-68459244D01*
X72852720Y-68647500D01*
X43597215Y-68647500D01*
X43744503Y-68596936D01*
X43948626Y-68486470D01*
X43951759Y-68484032D01*
X44125893Y-68348498D01*
X44131784Y-68343913D01*
X44288979Y-68173153D01*
X44415924Y-67978849D01*
X44509157Y-67766300D01*
X44566134Y-67541305D01*
X44571524Y-67476260D01*
X44585300Y-67310006D01*
X44585300Y-67309993D01*
X44566135Y-67078702D01*
X44566133Y-67078691D01*
X44528225Y-66928998D01*
X70595540Y-66928998D01*
X70615326Y-67117254D01*
X70615327Y-67117256D01*
X70615327Y-67117257D01*
X70673818Y-67297275D01*
X70673819Y-67297277D01*
X70673821Y-67297282D01*
X70768467Y-67461214D01*
X70857415Y-67560000D01*
X70895129Y-67601886D01*
X71048265Y-67713146D01*
X71048270Y-67713149D01*
X71221192Y-67790140D01*
X71221197Y-67790142D01*
X71406354Y-67829498D01*
X71406355Y-67829498D01*
X71595644Y-67829498D01*
X71595646Y-67829498D01*
X71780803Y-67790142D01*
X71953730Y-67713149D01*
X72106871Y-67601886D01*
X72233533Y-67461214D01*
X72328179Y-67297282D01*
X72386674Y-67117254D01*
X72406460Y-66929000D01*
X77961540Y-66929000D01*
X77981326Y-67117256D01*
X77981327Y-67117259D01*
X78039818Y-67297277D01*
X78039820Y-67297282D01*
X78039821Y-67297284D01*
X78134467Y-67461216D01*
X78261127Y-67601886D01*
X78261129Y-67601888D01*
X78414265Y-67713148D01*
X78414270Y-67713151D01*
X78587192Y-67790142D01*
X78587197Y-67790144D01*
X78772354Y-67829500D01*
X78772355Y-67829500D01*
X78961644Y-67829500D01*
X78961646Y-67829500D01*
X79146803Y-67790144D01*
X79319730Y-67713151D01*
X79472871Y-67601888D01*
X79599533Y-67461216D01*
X79694179Y-67297284D01*
X79752674Y-67117256D01*
X79772460Y-66929000D01*
X79752674Y-66740744D01*
X79731312Y-66675000D01*
X95233540Y-66675000D01*
X95253326Y-66863256D01*
X95253327Y-66863259D01*
X95311818Y-67043277D01*
X95311821Y-67043284D01*
X95406467Y-67207216D01*
X95499020Y-67310006D01*
X95533129Y-67347888D01*
X95686265Y-67459148D01*
X95686270Y-67459151D01*
X95859192Y-67536142D01*
X95859197Y-67536144D01*
X96044354Y-67575500D01*
X96044355Y-67575500D01*
X96233644Y-67575500D01*
X96233646Y-67575500D01*
X96418803Y-67536144D01*
X96591730Y-67459151D01*
X96744871Y-67347888D01*
X96778986Y-67310000D01*
X130724341Y-67310000D01*
X130744936Y-67545403D01*
X130744938Y-67545413D01*
X130806094Y-67773655D01*
X130806096Y-67773659D01*
X130806097Y-67773663D01*
X130899801Y-67974611D01*
X130905965Y-67987830D01*
X130905967Y-67987834D01*
X130995209Y-68115284D01*
X131041505Y-68181401D01*
X131208599Y-68348495D01*
X131246568Y-68375081D01*
X131402165Y-68484032D01*
X131402167Y-68484033D01*
X131402170Y-68484035D01*
X131616337Y-68583903D01*
X131844592Y-68645063D01*
X132032918Y-68661539D01*
X132079999Y-68665659D01*
X132080000Y-68665659D01*
X132080001Y-68665659D01*
X132119234Y-68662226D01*
X132315408Y-68645063D01*
X132543663Y-68583903D01*
X132757830Y-68484035D01*
X132951401Y-68348495D01*
X133118495Y-68181401D01*
X133254035Y-67987830D01*
X133353903Y-67773663D01*
X133415063Y-67545408D01*
X133435659Y-67310000D01*
X133434546Y-67297284D01*
X133418796Y-67117257D01*
X133415063Y-67074592D01*
X133353903Y-66846337D01*
X133254035Y-66632171D01*
X133204002Y-66560715D01*
X133118494Y-66438597D01*
X132951402Y-66271506D01*
X132951396Y-66271501D01*
X132765842Y-66141575D01*
X132722217Y-66086998D01*
X132715023Y-66017500D01*
X132746546Y-65955145D01*
X132765842Y-65938425D01*
X132807151Y-65909500D01*
X132951401Y-65808495D01*
X133118495Y-65641401D01*
X133254035Y-65447830D01*
X133353903Y-65233663D01*
X133415063Y-65005408D01*
X133435659Y-64770000D01*
X133415063Y-64534592D01*
X133353903Y-64306337D01*
X133254035Y-64092171D01*
X133212055Y-64032216D01*
X133118494Y-63898597D01*
X132951402Y-63731506D01*
X132951396Y-63731501D01*
X132765842Y-63601575D01*
X132722217Y-63546998D01*
X132715023Y-63477500D01*
X132746546Y-63415145D01*
X132765842Y-63398425D01*
X132889635Y-63311744D01*
X132951401Y-63268495D01*
X133118495Y-63101401D01*
X133254035Y-62907830D01*
X133353903Y-62693663D01*
X133415063Y-62465408D01*
X133435659Y-62230000D01*
X133415063Y-61994592D01*
X133353903Y-61766337D01*
X133254035Y-61552171D01*
X133179590Y-61445851D01*
X133118494Y-61358597D01*
X132951402Y-61191506D01*
X132951396Y-61191501D01*
X132765842Y-61061575D01*
X132722217Y-61006998D01*
X132715023Y-60937500D01*
X132746546Y-60875145D01*
X132765842Y-60858425D01*
X132820323Y-60820277D01*
X132951401Y-60728495D01*
X133118495Y-60561401D01*
X133254035Y-60367830D01*
X133353903Y-60153663D01*
X133415063Y-59925408D01*
X133435659Y-59690000D01*
X133415063Y-59454592D01*
X133353903Y-59226337D01*
X133254035Y-59012171D01*
X133221628Y-58965888D01*
X133118494Y-58818597D01*
X132951402Y-58651506D01*
X132951396Y-58651501D01*
X132765842Y-58521575D01*
X132722217Y-58466998D01*
X132715023Y-58397500D01*
X132746546Y-58335145D01*
X132765842Y-58318425D01*
X132788026Y-58302891D01*
X132951401Y-58188495D01*
X133118495Y-58021401D01*
X133254035Y-57827830D01*
X133353903Y-57613663D01*
X133415063Y-57385408D01*
X133435659Y-57150000D01*
X133415063Y-56914592D01*
X133353903Y-56686337D01*
X133254035Y-56472171D01*
X133212054Y-56412216D01*
X133118496Y-56278600D01*
X133088173Y-56248277D01*
X132996567Y-56156671D01*
X132963084Y-56095351D01*
X132968068Y-56025659D01*
X133009939Y-55969725D01*
X133040915Y-55952810D01*
X133172331Y-55903796D01*
X133287546Y-55817546D01*
X133373796Y-55702331D01*
X133424091Y-55567483D01*
X133430500Y-55507873D01*
X133430499Y-53712128D01*
X133424091Y-53652517D01*
X133414751Y-53627476D01*
X133373797Y-53517671D01*
X133373793Y-53517664D01*
X133287547Y-53402455D01*
X133287544Y-53402452D01*
X133172335Y-53316206D01*
X133172328Y-53316202D01*
X133037482Y-53265908D01*
X133037483Y-53265908D01*
X132977883Y-53259501D01*
X132977881Y-53259500D01*
X132977873Y-53259500D01*
X132977864Y-53259500D01*
X131182129Y-53259500D01*
X131182123Y-53259501D01*
X131122516Y-53265908D01*
X130987671Y-53316202D01*
X130987664Y-53316206D01*
X130872455Y-53402452D01*
X130872452Y-53402455D01*
X130786206Y-53517664D01*
X130786202Y-53517671D01*
X130735908Y-53652517D01*
X130729914Y-53708277D01*
X130729501Y-53712123D01*
X130729500Y-53712135D01*
X130729500Y-55507870D01*
X130729501Y-55507876D01*
X130735908Y-55567483D01*
X130786202Y-55702328D01*
X130786206Y-55702335D01*
X130872452Y-55817544D01*
X130872455Y-55817547D01*
X130987664Y-55903793D01*
X130987671Y-55903797D01*
X131119081Y-55952810D01*
X131175015Y-55994681D01*
X131199432Y-56060145D01*
X131184580Y-56128418D01*
X131163430Y-56156673D01*
X131041503Y-56278600D01*
X130905965Y-56472169D01*
X130905964Y-56472171D01*
X130806098Y-56686335D01*
X130806094Y-56686344D01*
X130744938Y-56914586D01*
X130744936Y-56914596D01*
X130724341Y-57149999D01*
X130724341Y-57150000D01*
X130744936Y-57385403D01*
X130744938Y-57385413D01*
X130806094Y-57613655D01*
X130806096Y-57613659D01*
X130806097Y-57613663D01*
X130898983Y-57812857D01*
X130905965Y-57827830D01*
X130905967Y-57827834D01*
X130984407Y-57939857D01*
X131027298Y-58001112D01*
X131041501Y-58021395D01*
X131041506Y-58021402D01*
X131208597Y-58188493D01*
X131208603Y-58188498D01*
X131394158Y-58318425D01*
X131437783Y-58373002D01*
X131444977Y-58442500D01*
X131413454Y-58504855D01*
X131394158Y-58521575D01*
X131208597Y-58651505D01*
X131041505Y-58818597D01*
X130905965Y-59012169D01*
X130905964Y-59012171D01*
X130806098Y-59226335D01*
X130806094Y-59226344D01*
X130744938Y-59454586D01*
X130744936Y-59454596D01*
X130724341Y-59689999D01*
X130724341Y-59690000D01*
X130744936Y-59925403D01*
X130744938Y-59925413D01*
X130806094Y-60153655D01*
X130806096Y-60153659D01*
X130806097Y-60153663D01*
X130838063Y-60222214D01*
X130905965Y-60367830D01*
X130905967Y-60367834D01*
X131041501Y-60561395D01*
X131041506Y-60561402D01*
X131208597Y-60728493D01*
X131208603Y-60728498D01*
X131394158Y-60858425D01*
X131437783Y-60913002D01*
X131444977Y-60982500D01*
X131413454Y-61044855D01*
X131394158Y-61061575D01*
X131208597Y-61191505D01*
X131041505Y-61358597D01*
X130905965Y-61552169D01*
X130905964Y-61552171D01*
X130806098Y-61766335D01*
X130806094Y-61766344D01*
X130744938Y-61994586D01*
X130744936Y-61994596D01*
X130724341Y-62229999D01*
X130724341Y-62230000D01*
X130744936Y-62465403D01*
X130744938Y-62465413D01*
X130806094Y-62693655D01*
X130806096Y-62693659D01*
X130806097Y-62693663D01*
X130898983Y-62892857D01*
X130905965Y-62907830D01*
X130905967Y-62907834D01*
X130980412Y-63014151D01*
X131027298Y-63081112D01*
X131041501Y-63101395D01*
X131041506Y-63101402D01*
X131208597Y-63268493D01*
X131208603Y-63268498D01*
X131394158Y-63398425D01*
X131437783Y-63453002D01*
X131444977Y-63522500D01*
X131413454Y-63584855D01*
X131394158Y-63601575D01*
X131208597Y-63731505D01*
X131041505Y-63898597D01*
X130905965Y-64092169D01*
X130905964Y-64092171D01*
X130806098Y-64306335D01*
X130806094Y-64306344D01*
X130744938Y-64534586D01*
X130744936Y-64534596D01*
X130724341Y-64769999D01*
X130724341Y-64770000D01*
X130744936Y-65005403D01*
X130744938Y-65005413D01*
X130806094Y-65233655D01*
X130806096Y-65233659D01*
X130806097Y-65233663D01*
X130903661Y-65442888D01*
X130905965Y-65447830D01*
X130905967Y-65447834D01*
X131041501Y-65641395D01*
X131041506Y-65641402D01*
X131208597Y-65808493D01*
X131208603Y-65808498D01*
X131394158Y-65938425D01*
X131437783Y-65993002D01*
X131444977Y-66062500D01*
X131413454Y-66124855D01*
X131394158Y-66141575D01*
X131208597Y-66271505D01*
X131041505Y-66438597D01*
X130905965Y-66632169D01*
X130905964Y-66632171D01*
X130806098Y-66846335D01*
X130806094Y-66846344D01*
X130744938Y-67074586D01*
X130744936Y-67074596D01*
X130724341Y-67309999D01*
X130724341Y-67310000D01*
X96778986Y-67310000D01*
X96871533Y-67207216D01*
X96966179Y-67043284D01*
X97024674Y-66863256D01*
X97044460Y-66675000D01*
X97024674Y-66486744D01*
X96966179Y-66306716D01*
X96871533Y-66142784D01*
X96744871Y-66002112D01*
X96744870Y-66002111D01*
X96591734Y-65890851D01*
X96591729Y-65890848D01*
X96418807Y-65813857D01*
X96418802Y-65813855D01*
X96273001Y-65782865D01*
X96233646Y-65774500D01*
X96044354Y-65774500D01*
X96011897Y-65781398D01*
X95859197Y-65813855D01*
X95859192Y-65813857D01*
X95686270Y-65890848D01*
X95686265Y-65890851D01*
X95533129Y-66002111D01*
X95406466Y-66142785D01*
X95311821Y-66306715D01*
X95311818Y-66306722D01*
X95253327Y-66486740D01*
X95253326Y-66486744D01*
X95233540Y-66675000D01*
X79731312Y-66675000D01*
X79694179Y-66560716D01*
X79599533Y-66396784D01*
X79472871Y-66256112D01*
X79472870Y-66256111D01*
X79319734Y-66144851D01*
X79319729Y-66144848D01*
X79146807Y-66067857D01*
X79146802Y-66067855D01*
X79001001Y-66036865D01*
X78961646Y-66028500D01*
X78772354Y-66028500D01*
X78739897Y-66035398D01*
X78587197Y-66067855D01*
X78587192Y-66067857D01*
X78414270Y-66144848D01*
X78414265Y-66144851D01*
X78261129Y-66256111D01*
X78134466Y-66396785D01*
X78039821Y-66560715D01*
X78039818Y-66560722D01*
X77981328Y-66740738D01*
X77981326Y-66740744D01*
X77961540Y-66929000D01*
X72406460Y-66929000D01*
X72406460Y-66928998D01*
X72386674Y-66740742D01*
X72328179Y-66560714D01*
X72233533Y-66396782D01*
X72106871Y-66256110D01*
X72106870Y-66256109D01*
X71953734Y-66144849D01*
X71953729Y-66144846D01*
X71780807Y-66067855D01*
X71780802Y-66067853D01*
X71635001Y-66036863D01*
X71595646Y-66028498D01*
X71406354Y-66028498D01*
X71373897Y-66035396D01*
X71221197Y-66067853D01*
X71221192Y-66067855D01*
X71048270Y-66144846D01*
X71048265Y-66144849D01*
X70895129Y-66256109D01*
X70768466Y-66396783D01*
X70673821Y-66560713D01*
X70673818Y-66560720D01*
X70615327Y-66740738D01*
X70615326Y-66740742D01*
X70595540Y-66928998D01*
X44528225Y-66928998D01*
X44509157Y-66853699D01*
X44415924Y-66641151D01*
X44288983Y-66446852D01*
X44288980Y-66446849D01*
X44288979Y-66446847D01*
X44131784Y-66276087D01*
X44131779Y-66276083D01*
X44131777Y-66276081D01*
X43948634Y-66133535D01*
X43948628Y-66133531D01*
X43744504Y-66023064D01*
X43744495Y-66023061D01*
X43524984Y-65947702D01*
X43337404Y-65916401D01*
X43296049Y-65909500D01*
X43063951Y-65909500D01*
X43022596Y-65916401D01*
X42835015Y-65947702D01*
X42615504Y-66023061D01*
X42615495Y-66023064D01*
X42411371Y-66133531D01*
X42411365Y-66133535D01*
X42228222Y-66276081D01*
X42228215Y-66276087D01*
X42219484Y-66285572D01*
X42159595Y-66321561D01*
X42089757Y-66319458D01*
X42032143Y-66279932D01*
X42012075Y-66244918D01*
X41983355Y-66167915D01*
X41983350Y-66167906D01*
X41897190Y-66052812D01*
X41897187Y-66052809D01*
X41782093Y-65966649D01*
X41782086Y-65966645D01*
X41647379Y-65916403D01*
X41647372Y-65916401D01*
X41587844Y-65910000D01*
X40890000Y-65910000D01*
X40890000Y-66935810D01*
X40837453Y-66899984D01*
X40707827Y-66860000D01*
X40606276Y-66860000D01*
X40505862Y-66875135D01*
X40390000Y-66930931D01*
X40390000Y-65910000D01*
X39692155Y-65910000D01*
X39632627Y-65916401D01*
X39632620Y-65916403D01*
X39497913Y-65966645D01*
X39497906Y-65966649D01*
X39382812Y-66052809D01*
X39382809Y-66052812D01*
X39296649Y-66167906D01*
X39296645Y-66167913D01*
X39246403Y-66302620D01*
X39246401Y-66302627D01*
X39240000Y-66362155D01*
X39240000Y-67060000D01*
X40264722Y-67060000D01*
X40216375Y-67143740D01*
X40186190Y-67275992D01*
X40196327Y-67411265D01*
X40245887Y-67537541D01*
X40263797Y-67560000D01*
X39240000Y-67560000D01*
X39240000Y-68257844D01*
X34290500Y-68257844D01*
X34290500Y-65494500D01*
X83422540Y-65494500D01*
X83442326Y-65682756D01*
X83442327Y-65682759D01*
X83500818Y-65862777D01*
X83500821Y-65862784D01*
X83595467Y-66026716D01*
X83699976Y-66142785D01*
X83722129Y-66167388D01*
X83875265Y-66278648D01*
X83875270Y-66278651D01*
X84048192Y-66355642D01*
X84048197Y-66355644D01*
X84233354Y-66395000D01*
X84233355Y-66395000D01*
X84422644Y-66395000D01*
X84422646Y-66395000D01*
X84607803Y-66355644D01*
X84780730Y-66278651D01*
X84933871Y-66167388D01*
X85060533Y-66026716D01*
X85155179Y-65862784D01*
X85213674Y-65682756D01*
X85233460Y-65494500D01*
X85213674Y-65306244D01*
X85155179Y-65126216D01*
X85060533Y-64962284D01*
X84933871Y-64821612D01*
X84901174Y-64797856D01*
X84862834Y-64770000D01*
X86724540Y-64770000D01*
X86744326Y-64958256D01*
X86744327Y-64958259D01*
X86802818Y-65138277D01*
X86802821Y-65138284D01*
X86897467Y-65302216D01*
X87024129Y-65442888D01*
X87177265Y-65554148D01*
X87177270Y-65554151D01*
X87350192Y-65631142D01*
X87350197Y-65631144D01*
X87535354Y-65670500D01*
X87535355Y-65670500D01*
X87724644Y-65670500D01*
X87724646Y-65670500D01*
X87778750Y-65659000D01*
X90280540Y-65659000D01*
X90300326Y-65847256D01*
X90300327Y-65847259D01*
X90358818Y-66027277D01*
X90358821Y-66027284D01*
X90453467Y-66191216D01*
X90568937Y-66319458D01*
X90580129Y-66331888D01*
X90733265Y-66443148D01*
X90733270Y-66443151D01*
X90906192Y-66520142D01*
X90906197Y-66520144D01*
X91091354Y-66559500D01*
X91091355Y-66559500D01*
X91280644Y-66559500D01*
X91280646Y-66559500D01*
X91465803Y-66520144D01*
X91638730Y-66443151D01*
X91791871Y-66331888D01*
X91918533Y-66191216D01*
X92013179Y-66027284D01*
X92071674Y-65847256D01*
X92091460Y-65659000D01*
X92071674Y-65470744D01*
X92013179Y-65290716D01*
X91918533Y-65126784D01*
X91791871Y-64986112D01*
X91759076Y-64962285D01*
X91638734Y-64874851D01*
X91638729Y-64874848D01*
X91465807Y-64797857D01*
X91465802Y-64797855D01*
X91320001Y-64766865D01*
X91280646Y-64758500D01*
X91091354Y-64758500D01*
X91058897Y-64765398D01*
X90906197Y-64797855D01*
X90906192Y-64797857D01*
X90733270Y-64874848D01*
X90733265Y-64874851D01*
X90580129Y-64986111D01*
X90453466Y-65126785D01*
X90358821Y-65290715D01*
X90358818Y-65290722D01*
X90309377Y-65442888D01*
X90300326Y-65470744D01*
X90280540Y-65659000D01*
X87778750Y-65659000D01*
X87909803Y-65631144D01*
X88082730Y-65554151D01*
X88235871Y-65442888D01*
X88362533Y-65302216D01*
X88457179Y-65138284D01*
X88515674Y-64958256D01*
X88535460Y-64770000D01*
X88515674Y-64581744D01*
X88457179Y-64401716D01*
X88362533Y-64237784D01*
X88235871Y-64097112D01*
X88235870Y-64097111D01*
X88082734Y-63985851D01*
X88082729Y-63985848D01*
X87909807Y-63908857D01*
X87909802Y-63908855D01*
X87764001Y-63877865D01*
X87724646Y-63869500D01*
X87535354Y-63869500D01*
X87502897Y-63876398D01*
X87350197Y-63908855D01*
X87350192Y-63908857D01*
X87177270Y-63985848D01*
X87177265Y-63985851D01*
X87024129Y-64097111D01*
X86897466Y-64237785D01*
X86802821Y-64401715D01*
X86802818Y-64401722D01*
X86759645Y-64534596D01*
X86744326Y-64581744D01*
X86724540Y-64770000D01*
X84862834Y-64770000D01*
X84780734Y-64710351D01*
X84780729Y-64710348D01*
X84607807Y-64633357D01*
X84607802Y-64633355D01*
X84462001Y-64602365D01*
X84422646Y-64594000D01*
X84233354Y-64594000D01*
X84200897Y-64600898D01*
X84048197Y-64633355D01*
X84048192Y-64633357D01*
X83875270Y-64710348D01*
X83875265Y-64710351D01*
X83722129Y-64821611D01*
X83595466Y-64962285D01*
X83500821Y-65126215D01*
X83500818Y-65126222D01*
X83442327Y-65306240D01*
X83442326Y-65306244D01*
X83422540Y-65494500D01*
X34290500Y-65494500D01*
X34290500Y-63754000D01*
X69960540Y-63754000D01*
X69980326Y-63942256D01*
X69980327Y-63942259D01*
X70038818Y-64122277D01*
X70038821Y-64122284D01*
X70133467Y-64286216D01*
X70260129Y-64426888D01*
X70413265Y-64538148D01*
X70413270Y-64538151D01*
X70586192Y-64615142D01*
X70586197Y-64615144D01*
X70771354Y-64654500D01*
X70771355Y-64654500D01*
X70960644Y-64654500D01*
X70960646Y-64654500D01*
X71145803Y-64615144D01*
X71318730Y-64538151D01*
X71471871Y-64426888D01*
X71598533Y-64286216D01*
X71693179Y-64122284D01*
X71751674Y-63942256D01*
X71771460Y-63754000D01*
X71751674Y-63565744D01*
X71730312Y-63500000D01*
X82152540Y-63500000D01*
X82172326Y-63688256D01*
X82172327Y-63688259D01*
X82230818Y-63868277D01*
X82230821Y-63868284D01*
X82325467Y-64032216D01*
X82379451Y-64092171D01*
X82452129Y-64172888D01*
X82605265Y-64284148D01*
X82605270Y-64284151D01*
X82778192Y-64361142D01*
X82778197Y-64361144D01*
X82963354Y-64400500D01*
X82963355Y-64400500D01*
X83152644Y-64400500D01*
X83152646Y-64400500D01*
X83337803Y-64361144D01*
X83510730Y-64284151D01*
X83663871Y-64172888D01*
X83790533Y-64032216D01*
X83885179Y-63868284D01*
X83943674Y-63688256D01*
X83963460Y-63500000D01*
X83943674Y-63311744D01*
X83885179Y-63131716D01*
X83790533Y-62967784D01*
X83697986Y-62865000D01*
X105139540Y-62865000D01*
X105159326Y-63053256D01*
X105159327Y-63053259D01*
X105217818Y-63233277D01*
X105217821Y-63233284D01*
X105312467Y-63397216D01*
X105425274Y-63522500D01*
X105439129Y-63537888D01*
X105592265Y-63649148D01*
X105592270Y-63649151D01*
X105765192Y-63726142D01*
X105765197Y-63726144D01*
X105950354Y-63765500D01*
X105950355Y-63765500D01*
X106146145Y-63765500D01*
X106146145Y-63767620D01*
X106205131Y-63778392D01*
X106256167Y-63826111D01*
X106273302Y-63893847D01*
X106251097Y-63960094D01*
X106222277Y-63989476D01*
X106074127Y-64097113D01*
X105947466Y-64237785D01*
X105852821Y-64401715D01*
X105852818Y-64401722D01*
X105809645Y-64534596D01*
X105794326Y-64581744D01*
X105774540Y-64770000D01*
X105794326Y-64958256D01*
X105794327Y-64958259D01*
X105852818Y-65138277D01*
X105852821Y-65138284D01*
X105947467Y-65302216D01*
X106074129Y-65442888D01*
X106227265Y-65554148D01*
X106227270Y-65554151D01*
X106400192Y-65631142D01*
X106400197Y-65631144D01*
X106585354Y-65670500D01*
X106585355Y-65670500D01*
X106774644Y-65670500D01*
X106774646Y-65670500D01*
X106959803Y-65631144D01*
X107132730Y-65554151D01*
X107285871Y-65442888D01*
X107412533Y-65302216D01*
X107507179Y-65138284D01*
X107565674Y-64958256D01*
X107585460Y-64770000D01*
X107565674Y-64581744D01*
X107507179Y-64401716D01*
X107412533Y-64237784D01*
X107285871Y-64097112D01*
X107285870Y-64097111D01*
X107132734Y-63985851D01*
X107132729Y-63985848D01*
X106959807Y-63908857D01*
X106959802Y-63908855D01*
X106814001Y-63877865D01*
X106774646Y-63869500D01*
X106585354Y-63869500D01*
X106578855Y-63869500D01*
X106578855Y-63867387D01*
X106519830Y-63856588D01*
X106468811Y-63808852D01*
X106451698Y-63741110D01*
X106473926Y-63674870D01*
X106502721Y-63645524D01*
X106650871Y-63537888D01*
X106684986Y-63500000D01*
X115934540Y-63500000D01*
X115954326Y-63688256D01*
X115954327Y-63688259D01*
X116012818Y-63868277D01*
X116012821Y-63868284D01*
X116107467Y-64032216D01*
X116161451Y-64092171D01*
X116234129Y-64172888D01*
X116387265Y-64284148D01*
X116387270Y-64284151D01*
X116560192Y-64361142D01*
X116560197Y-64361144D01*
X116745354Y-64400500D01*
X116745355Y-64400500D01*
X116934644Y-64400500D01*
X116934646Y-64400500D01*
X117119803Y-64361144D01*
X117292730Y-64284151D01*
X117445871Y-64172888D01*
X117572533Y-64032216D01*
X117667179Y-63868284D01*
X117725674Y-63688256D01*
X117745460Y-63500000D01*
X117725674Y-63311744D01*
X117667179Y-63131716D01*
X117572533Y-62967784D01*
X117445871Y-62827112D01*
X117445870Y-62827111D01*
X117292734Y-62715851D01*
X117292729Y-62715848D01*
X117119807Y-62638857D01*
X117119802Y-62638855D01*
X116974001Y-62607865D01*
X116934646Y-62599500D01*
X116745354Y-62599500D01*
X116712897Y-62606398D01*
X116560197Y-62638855D01*
X116560192Y-62638857D01*
X116387270Y-62715848D01*
X116387265Y-62715851D01*
X116234129Y-62827111D01*
X116107466Y-62967785D01*
X116012821Y-63131715D01*
X116012818Y-63131722D01*
X115954327Y-63311740D01*
X115954326Y-63311744D01*
X115934540Y-63500000D01*
X106684986Y-63500000D01*
X106777533Y-63397216D01*
X106872179Y-63233284D01*
X106930674Y-63053256D01*
X106950460Y-62865000D01*
X106930674Y-62676744D01*
X106872179Y-62496716D01*
X106777533Y-62332784D01*
X106684986Y-62230000D01*
X120633540Y-62230000D01*
X120653326Y-62418256D01*
X120653327Y-62418259D01*
X120711818Y-62598277D01*
X120711821Y-62598284D01*
X120806467Y-62762216D01*
X120924095Y-62892855D01*
X120933129Y-62902888D01*
X121086265Y-63014148D01*
X121086270Y-63014151D01*
X121259192Y-63091142D01*
X121259197Y-63091144D01*
X121444354Y-63130500D01*
X121444355Y-63130500D01*
X121633644Y-63130500D01*
X121633646Y-63130500D01*
X121818803Y-63091144D01*
X121991730Y-63014151D01*
X122144871Y-62902888D01*
X122271533Y-62762216D01*
X122366179Y-62598284D01*
X122424674Y-62418256D01*
X122444460Y-62230000D01*
X122424674Y-62041744D01*
X122366179Y-61861716D01*
X122271533Y-61697784D01*
X122144871Y-61557112D01*
X122144870Y-61557111D01*
X121991734Y-61445851D01*
X121991729Y-61445848D01*
X121818807Y-61368857D01*
X121818802Y-61368855D01*
X121673001Y-61337865D01*
X121633646Y-61329500D01*
X121444354Y-61329500D01*
X121411897Y-61336398D01*
X121259197Y-61368855D01*
X121259192Y-61368857D01*
X121086270Y-61445848D01*
X121086265Y-61445851D01*
X120933129Y-61557111D01*
X120806466Y-61697785D01*
X120711821Y-61861715D01*
X120711818Y-61861722D01*
X120665636Y-62003857D01*
X120653326Y-62041744D01*
X120633540Y-62230000D01*
X106684986Y-62230000D01*
X106650871Y-62192112D01*
X106650870Y-62192111D01*
X106497734Y-62080851D01*
X106497729Y-62080848D01*
X106324807Y-62003857D01*
X106324802Y-62003855D01*
X106179001Y-61972865D01*
X106139646Y-61964500D01*
X105950354Y-61964500D01*
X105917897Y-61971398D01*
X105765197Y-62003855D01*
X105765192Y-62003857D01*
X105592270Y-62080848D01*
X105592265Y-62080851D01*
X105439129Y-62192111D01*
X105312466Y-62332785D01*
X105217821Y-62496715D01*
X105217818Y-62496722D01*
X105171636Y-62638857D01*
X105159326Y-62676744D01*
X105139540Y-62865000D01*
X83697986Y-62865000D01*
X83663871Y-62827112D01*
X83663870Y-62827111D01*
X83510734Y-62715851D01*
X83510729Y-62715848D01*
X83337807Y-62638857D01*
X83337802Y-62638855D01*
X83192001Y-62607865D01*
X83152646Y-62599500D01*
X82963354Y-62599500D01*
X82930897Y-62606398D01*
X82778197Y-62638855D01*
X82778192Y-62638857D01*
X82605270Y-62715848D01*
X82605265Y-62715851D01*
X82452129Y-62827111D01*
X82325466Y-62967785D01*
X82230821Y-63131715D01*
X82230818Y-63131722D01*
X82172327Y-63311740D01*
X82172326Y-63311744D01*
X82152540Y-63500000D01*
X71730312Y-63500000D01*
X71693179Y-63385716D01*
X71598533Y-63221784D01*
X71471871Y-63081112D01*
X71471870Y-63081111D01*
X71318734Y-62969851D01*
X71318729Y-62969848D01*
X71145807Y-62892857D01*
X71145802Y-62892855D01*
X71000001Y-62861865D01*
X70960646Y-62853500D01*
X70771354Y-62853500D01*
X70738897Y-62860398D01*
X70586197Y-62892855D01*
X70586192Y-62892857D01*
X70413270Y-62969848D01*
X70413265Y-62969851D01*
X70260129Y-63081111D01*
X70133466Y-63221785D01*
X70038821Y-63385715D01*
X70038818Y-63385722D01*
X69989377Y-63537888D01*
X69980326Y-63565744D01*
X69960540Y-63754000D01*
X34290500Y-63754000D01*
X34290500Y-60452000D01*
X73135540Y-60452000D01*
X73155326Y-60640256D01*
X73155327Y-60640259D01*
X73213818Y-60820277D01*
X73213821Y-60820284D01*
X73308467Y-60984216D01*
X73378122Y-61061575D01*
X73435129Y-61124888D01*
X73588265Y-61236148D01*
X73588270Y-61236151D01*
X73761192Y-61313142D01*
X73761197Y-61313144D01*
X73946354Y-61352500D01*
X73946355Y-61352500D01*
X74135644Y-61352500D01*
X74135646Y-61352500D01*
X74320803Y-61313144D01*
X74493730Y-61236151D01*
X74646871Y-61124888D01*
X74773533Y-60984216D01*
X74868179Y-60820284D01*
X74926674Y-60640256D01*
X74946460Y-60452000D01*
X74926674Y-60263744D01*
X74868179Y-60083716D01*
X74773533Y-59919784D01*
X74646871Y-59779112D01*
X74646870Y-59779111D01*
X74493734Y-59667851D01*
X74493729Y-59667848D01*
X74320807Y-59590857D01*
X74320802Y-59590855D01*
X74175001Y-59559865D01*
X74135646Y-59551500D01*
X73946354Y-59551500D01*
X73913897Y-59558398D01*
X73761197Y-59590855D01*
X73761192Y-59590857D01*
X73588270Y-59667848D01*
X73588265Y-59667851D01*
X73435129Y-59779111D01*
X73308466Y-59919785D01*
X73213821Y-60083715D01*
X73213818Y-60083722D01*
X73191093Y-60153664D01*
X73155326Y-60263744D01*
X73135540Y-60452000D01*
X34290500Y-60452000D01*
X34290500Y-59055000D01*
X71484540Y-59055000D01*
X71504326Y-59243256D01*
X71504327Y-59243259D01*
X71562818Y-59423277D01*
X71562821Y-59423284D01*
X71657467Y-59587216D01*
X71760369Y-59701500D01*
X71784129Y-59727888D01*
X71937265Y-59839148D01*
X71937270Y-59839151D01*
X72110192Y-59916142D01*
X72110197Y-59916144D01*
X72295354Y-59955500D01*
X72295355Y-59955500D01*
X72484644Y-59955500D01*
X72484646Y-59955500D01*
X72669803Y-59916144D01*
X72842730Y-59839151D01*
X72995871Y-59727888D01*
X73122533Y-59587216D01*
X73217179Y-59423284D01*
X73275674Y-59243256D01*
X73295460Y-59055000D01*
X73275674Y-58866744D01*
X73254312Y-58801000D01*
X82152540Y-58801000D01*
X82172326Y-58989256D01*
X82172327Y-58989259D01*
X82230818Y-59169277D01*
X82230821Y-59169284D01*
X82325467Y-59333216D01*
X82406559Y-59423277D01*
X82452129Y-59473888D01*
X82605265Y-59585148D01*
X82605270Y-59585151D01*
X82778192Y-59662142D01*
X82778197Y-59662144D01*
X82963354Y-59701500D01*
X82963355Y-59701500D01*
X83152644Y-59701500D01*
X83152646Y-59701500D01*
X83206750Y-59690000D01*
X87994540Y-59690000D01*
X88014326Y-59878256D01*
X88014327Y-59878259D01*
X88072818Y-60058277D01*
X88072821Y-60058284D01*
X88167467Y-60222216D01*
X88294129Y-60362888D01*
X88447265Y-60474148D01*
X88447270Y-60474151D01*
X88620192Y-60551142D01*
X88620197Y-60551144D01*
X88805354Y-60590500D01*
X88805355Y-60590500D01*
X88994644Y-60590500D01*
X88994646Y-60590500D01*
X89179803Y-60551144D01*
X89352730Y-60474151D01*
X89505871Y-60362888D01*
X89632533Y-60222216D01*
X89727179Y-60058284D01*
X89785674Y-59878256D01*
X89805460Y-59690000D01*
X105139540Y-59690000D01*
X105159326Y-59878256D01*
X105159327Y-59878259D01*
X105217818Y-60058277D01*
X105217821Y-60058284D01*
X105312467Y-60222216D01*
X105439129Y-60362888D01*
X105592265Y-60474148D01*
X105592270Y-60474151D01*
X105765192Y-60551142D01*
X105765197Y-60551144D01*
X105950354Y-60590500D01*
X105950355Y-60590500D01*
X106139644Y-60590500D01*
X106139646Y-60590500D01*
X106324803Y-60551144D01*
X106497730Y-60474151D01*
X106650871Y-60362888D01*
X106777533Y-60222216D01*
X106872179Y-60058284D01*
X106930674Y-59878256D01*
X106950460Y-59690000D01*
X106930674Y-59501744D01*
X106872179Y-59321716D01*
X106827558Y-59244430D01*
X106811086Y-59176533D01*
X106827558Y-59120435D01*
X106872679Y-59042284D01*
X106931174Y-58862256D01*
X106950960Y-58674000D01*
X106931174Y-58485744D01*
X106872679Y-58305716D01*
X106865337Y-58293000D01*
X120633540Y-58293000D01*
X120653326Y-58481256D01*
X120653327Y-58481259D01*
X120711818Y-58661277D01*
X120711821Y-58661284D01*
X120806467Y-58825216D01*
X120933129Y-58965888D01*
X121086265Y-59077148D01*
X121086270Y-59077151D01*
X121259192Y-59154142D01*
X121259197Y-59154144D01*
X121444354Y-59193500D01*
X121444355Y-59193500D01*
X121633644Y-59193500D01*
X121633646Y-59193500D01*
X121818803Y-59154144D01*
X121991730Y-59077151D01*
X122144871Y-58965888D01*
X122271533Y-58825216D01*
X122366179Y-58661284D01*
X122424674Y-58481256D01*
X122444460Y-58293000D01*
X122424674Y-58104744D01*
X122366179Y-57924716D01*
X122271533Y-57760784D01*
X122178986Y-57658000D01*
X126729540Y-57658000D01*
X126749326Y-57846256D01*
X126749327Y-57846259D01*
X126807818Y-58026277D01*
X126807821Y-58026284D01*
X126902467Y-58190216D01*
X127017907Y-58318425D01*
X127029129Y-58330888D01*
X127182265Y-58442148D01*
X127182270Y-58442151D01*
X127355192Y-58519142D01*
X127355197Y-58519144D01*
X127540354Y-58558500D01*
X127540355Y-58558500D01*
X127729644Y-58558500D01*
X127729646Y-58558500D01*
X127914803Y-58519144D01*
X128087730Y-58442151D01*
X128240871Y-58330888D01*
X128367533Y-58190216D01*
X128462179Y-58026284D01*
X128520674Y-57846256D01*
X128540460Y-57658000D01*
X128520674Y-57469744D01*
X128462179Y-57289716D01*
X128367533Y-57125784D01*
X128240871Y-56985112D01*
X128240870Y-56985111D01*
X128087734Y-56873851D01*
X128087729Y-56873848D01*
X127914807Y-56796857D01*
X127914802Y-56796855D01*
X127769001Y-56765865D01*
X127729646Y-56757500D01*
X127540354Y-56757500D01*
X127507897Y-56764398D01*
X127355197Y-56796855D01*
X127355192Y-56796857D01*
X127182270Y-56873848D01*
X127182265Y-56873851D01*
X127029129Y-56985111D01*
X126902466Y-57125785D01*
X126807821Y-57289715D01*
X126807818Y-57289722D01*
X126761636Y-57431857D01*
X126749326Y-57469744D01*
X126729540Y-57658000D01*
X122178986Y-57658000D01*
X122144871Y-57620112D01*
X122135984Y-57613655D01*
X121991734Y-57508851D01*
X121991729Y-57508848D01*
X121818807Y-57431857D01*
X121818802Y-57431855D01*
X121673001Y-57400865D01*
X121633646Y-57392500D01*
X121444354Y-57392500D01*
X121411897Y-57399398D01*
X121259197Y-57431855D01*
X121259192Y-57431857D01*
X121086270Y-57508848D01*
X121086265Y-57508851D01*
X120933129Y-57620111D01*
X120806466Y-57760785D01*
X120711821Y-57924715D01*
X120711818Y-57924722D01*
X120678819Y-58026284D01*
X120653326Y-58104744D01*
X120633540Y-58293000D01*
X106865337Y-58293000D01*
X106778033Y-58141784D01*
X106651371Y-58001112D01*
X106651370Y-58001111D01*
X106498234Y-57889851D01*
X106498229Y-57889848D01*
X106325307Y-57812857D01*
X106325302Y-57812855D01*
X106179501Y-57781865D01*
X106140146Y-57773500D01*
X105950854Y-57773500D01*
X105918397Y-57780398D01*
X105765697Y-57812855D01*
X105765692Y-57812857D01*
X105592770Y-57889848D01*
X105592765Y-57889851D01*
X105439629Y-58001111D01*
X105312966Y-58141785D01*
X105218321Y-58305715D01*
X105218318Y-58305722D01*
X105165917Y-58466998D01*
X105159826Y-58485744D01*
X105140040Y-58674000D01*
X105159826Y-58862256D01*
X105159827Y-58862259D01*
X105218321Y-59042285D01*
X105262939Y-59119566D01*
X105279412Y-59187466D01*
X105262940Y-59243564D01*
X105217821Y-59321714D01*
X105217820Y-59321717D01*
X105174645Y-59454596D01*
X105159326Y-59501744D01*
X105139540Y-59690000D01*
X89805460Y-59690000D01*
X89785674Y-59501744D01*
X89727179Y-59321716D01*
X89632533Y-59157784D01*
X89505871Y-59017112D01*
X89505870Y-59017111D01*
X89352734Y-58905851D01*
X89352729Y-58905848D01*
X89179807Y-58828857D01*
X89179802Y-58828855D01*
X89034001Y-58797865D01*
X88994646Y-58789500D01*
X88805354Y-58789500D01*
X88772897Y-58796398D01*
X88620197Y-58828855D01*
X88620192Y-58828857D01*
X88447270Y-58905848D01*
X88447265Y-58905851D01*
X88294129Y-59017111D01*
X88167466Y-59157785D01*
X88072821Y-59321715D01*
X88072818Y-59321722D01*
X88029645Y-59454596D01*
X88014326Y-59501744D01*
X87994540Y-59690000D01*
X83206750Y-59690000D01*
X83337803Y-59662144D01*
X83510730Y-59585151D01*
X83663871Y-59473888D01*
X83790533Y-59333216D01*
X83885179Y-59169284D01*
X83943674Y-58989256D01*
X83963460Y-58801000D01*
X83943674Y-58612744D01*
X83885179Y-58432716D01*
X83790533Y-58268784D01*
X83663871Y-58128112D01*
X83631708Y-58104744D01*
X83510734Y-58016851D01*
X83510729Y-58016848D01*
X83337807Y-57939857D01*
X83337802Y-57939855D01*
X83192001Y-57908865D01*
X83152646Y-57900500D01*
X82963354Y-57900500D01*
X82930897Y-57907398D01*
X82778197Y-57939855D01*
X82778192Y-57939857D01*
X82605270Y-58016848D01*
X82605265Y-58016851D01*
X82452129Y-58128111D01*
X82325466Y-58268785D01*
X82230821Y-58432715D01*
X82230818Y-58432722D01*
X82189951Y-58558500D01*
X82172326Y-58612744D01*
X82152540Y-58801000D01*
X73254312Y-58801000D01*
X73217179Y-58686716D01*
X73122533Y-58522784D01*
X72995871Y-58382112D01*
X72995870Y-58382111D01*
X72842734Y-58270851D01*
X72842729Y-58270848D01*
X72669807Y-58193857D01*
X72669802Y-58193855D01*
X72524001Y-58162865D01*
X72484646Y-58154500D01*
X72295354Y-58154500D01*
X72262897Y-58161398D01*
X72110197Y-58193855D01*
X72110192Y-58193857D01*
X71937270Y-58270848D01*
X71937265Y-58270851D01*
X71784129Y-58382111D01*
X71657466Y-58522785D01*
X71562821Y-58686715D01*
X71562818Y-58686722D01*
X71516636Y-58828857D01*
X71504326Y-58866744D01*
X71484540Y-59055000D01*
X34290500Y-59055000D01*
X34290500Y-55880000D01*
X67674540Y-55880000D01*
X67694326Y-56068256D01*
X67694327Y-56068259D01*
X67752818Y-56248277D01*
X67752821Y-56248284D01*
X67847467Y-56412216D01*
X67901451Y-56472171D01*
X67974129Y-56552888D01*
X68127265Y-56664148D01*
X68127270Y-56664151D01*
X68300192Y-56741142D01*
X68300197Y-56741144D01*
X68485354Y-56780500D01*
X68485355Y-56780500D01*
X68674644Y-56780500D01*
X68674646Y-56780500D01*
X68859803Y-56741144D01*
X69032730Y-56664151D01*
X69185871Y-56552888D01*
X69312533Y-56412216D01*
X69407179Y-56248284D01*
X69465674Y-56068256D01*
X69485460Y-55880000D01*
X104504540Y-55880000D01*
X104524326Y-56068256D01*
X104524327Y-56068259D01*
X104582818Y-56248277D01*
X104582821Y-56248284D01*
X104677467Y-56412216D01*
X104731451Y-56472171D01*
X104804129Y-56552888D01*
X104957265Y-56664148D01*
X104957270Y-56664151D01*
X105130192Y-56741142D01*
X105130197Y-56741144D01*
X105315354Y-56780500D01*
X105315355Y-56780500D01*
X105504644Y-56780500D01*
X105504646Y-56780500D01*
X105689803Y-56741144D01*
X105862730Y-56664151D01*
X106015871Y-56552888D01*
X106142533Y-56412216D01*
X106237179Y-56248284D01*
X106295674Y-56068256D01*
X106315460Y-55880000D01*
X106295674Y-55691744D01*
X106237179Y-55511716D01*
X106142533Y-55347784D01*
X106015871Y-55207112D01*
X106015870Y-55207111D01*
X105862734Y-55095851D01*
X105862729Y-55095848D01*
X105689807Y-55018857D01*
X105689802Y-55018855D01*
X105544001Y-54987865D01*
X105504646Y-54979500D01*
X105315354Y-54979500D01*
X105282897Y-54986398D01*
X105130197Y-55018855D01*
X105130192Y-55018857D01*
X104957270Y-55095848D01*
X104957265Y-55095851D01*
X104804129Y-55207111D01*
X104677466Y-55347785D01*
X104582821Y-55511715D01*
X104582818Y-55511722D01*
X104524327Y-55691740D01*
X104524326Y-55691744D01*
X104504540Y-55880000D01*
X69485460Y-55880000D01*
X69465674Y-55691744D01*
X69407179Y-55511716D01*
X69312533Y-55347784D01*
X69185871Y-55207112D01*
X69185870Y-55207111D01*
X69032734Y-55095851D01*
X69032729Y-55095848D01*
X68859807Y-55018857D01*
X68859802Y-55018855D01*
X68714001Y-54987865D01*
X68674646Y-54979500D01*
X68485354Y-54979500D01*
X68452897Y-54986398D01*
X68300197Y-55018855D01*
X68300192Y-55018857D01*
X68127270Y-55095848D01*
X68127265Y-55095851D01*
X67974129Y-55207111D01*
X67847466Y-55347785D01*
X67752821Y-55511715D01*
X67752818Y-55511722D01*
X67694327Y-55691740D01*
X67694326Y-55691744D01*
X67674540Y-55880000D01*
X34290500Y-55880000D01*
X34290500Y-54387870D01*
X56967000Y-54387870D01*
X56967001Y-54387876D01*
X56973408Y-54447483D01*
X57023702Y-54582328D01*
X57023706Y-54582335D01*
X57109952Y-54697544D01*
X57109955Y-54697547D01*
X57225164Y-54783793D01*
X57225171Y-54783797D01*
X57360017Y-54834091D01*
X57360016Y-54834091D01*
X57366944Y-54834835D01*
X57419627Y-54840500D01*
X59420372Y-54840499D01*
X59479983Y-54834091D01*
X59614831Y-54783796D01*
X59730046Y-54697546D01*
X59816296Y-54582331D01*
X59816297Y-54582328D01*
X59816298Y-54582327D01*
X59827907Y-54551199D01*
X59869776Y-54495264D01*
X59935240Y-54470844D01*
X60003513Y-54485694D01*
X60020252Y-54496675D01*
X60162831Y-54607649D01*
X60162840Y-54607655D01*
X60374531Y-54722215D01*
X60374545Y-54722221D01*
X60602207Y-54800379D01*
X60710000Y-54818366D01*
X60710000Y-53831683D01*
X60738819Y-53849209D01*
X60884404Y-53890000D01*
X60997622Y-53890000D01*
X61109783Y-53874584D01*
X61210000Y-53831053D01*
X61210000Y-54818365D01*
X61317792Y-54800379D01*
X61545454Y-54722221D01*
X61545468Y-54722215D01*
X61757159Y-54607655D01*
X61757168Y-54607649D01*
X61947116Y-54459806D01*
X61947126Y-54459797D01*
X62110154Y-54282702D01*
X62110155Y-54282701D01*
X62125891Y-54258616D01*
X62179036Y-54213258D01*
X62248267Y-54203833D01*
X62311604Y-54233333D01*
X62333510Y-54258614D01*
X62349446Y-54283007D01*
X62349448Y-54283009D01*
X62349449Y-54283010D01*
X62512537Y-54460171D01*
X62668908Y-54581879D01*
X62702017Y-54607649D01*
X62702561Y-54608072D01*
X62867891Y-54697544D01*
X62913478Y-54722215D01*
X62914336Y-54722679D01*
X63032598Y-54763278D01*
X63142083Y-54800865D01*
X63142085Y-54800865D01*
X63142087Y-54800866D01*
X63379601Y-54840500D01*
X63379602Y-54840500D01*
X63620398Y-54840500D01*
X63620399Y-54840500D01*
X63857913Y-54800866D01*
X64085664Y-54722679D01*
X64297439Y-54608072D01*
X64487463Y-54460171D01*
X64650551Y-54283010D01*
X64782255Y-54081422D01*
X64878983Y-53860905D01*
X64938095Y-53627476D01*
X64953000Y-53447600D01*
X64953000Y-53340000D01*
X82025540Y-53340000D01*
X82045326Y-53528256D01*
X82045327Y-53528259D01*
X82103818Y-53708277D01*
X82103821Y-53708284D01*
X82198467Y-53872216D01*
X82325129Y-54012888D01*
X82478265Y-54124148D01*
X82478270Y-54124151D01*
X82651192Y-54201142D01*
X82651197Y-54201144D01*
X82836354Y-54240500D01*
X82836355Y-54240500D01*
X83025644Y-54240500D01*
X83025646Y-54240500D01*
X83210803Y-54201144D01*
X83383730Y-54124151D01*
X83536871Y-54012888D01*
X83663533Y-53872216D01*
X83758179Y-53708284D01*
X83816674Y-53528256D01*
X83836460Y-53340000D01*
X115934540Y-53340000D01*
X115954326Y-53528256D01*
X115954327Y-53528259D01*
X116012818Y-53708277D01*
X116012821Y-53708284D01*
X116107467Y-53872216D01*
X116234129Y-54012888D01*
X116387265Y-54124148D01*
X116387270Y-54124151D01*
X116560192Y-54201142D01*
X116560197Y-54201144D01*
X116745354Y-54240500D01*
X116745355Y-54240500D01*
X116934644Y-54240500D01*
X116934646Y-54240500D01*
X117119803Y-54201144D01*
X117292730Y-54124151D01*
X117445871Y-54012888D01*
X117572533Y-53872216D01*
X117667179Y-53708284D01*
X117725674Y-53528256D01*
X117745460Y-53340000D01*
X117725674Y-53151744D01*
X117667179Y-52971716D01*
X117572533Y-52807784D01*
X117445871Y-52667112D01*
X117445870Y-52667111D01*
X117292734Y-52555851D01*
X117292729Y-52555848D01*
X117119807Y-52478857D01*
X117119802Y-52478855D01*
X116968336Y-52446661D01*
X116934646Y-52439500D01*
X116745354Y-52439500D01*
X116712897Y-52446398D01*
X116560197Y-52478855D01*
X116560192Y-52478857D01*
X116387270Y-52555848D01*
X116387265Y-52555851D01*
X116234129Y-52667111D01*
X116107466Y-52807785D01*
X116012821Y-52971715D01*
X116012818Y-52971722D01*
X115976147Y-53084585D01*
X115954326Y-53151744D01*
X115934540Y-53340000D01*
X83836460Y-53340000D01*
X83816674Y-53151744D01*
X83758179Y-52971716D01*
X83663533Y-52807784D01*
X83536871Y-52667112D01*
X83536870Y-52667111D01*
X83383734Y-52555851D01*
X83383729Y-52555848D01*
X83210807Y-52478857D01*
X83210802Y-52478855D01*
X83059336Y-52446661D01*
X83025646Y-52439500D01*
X82836354Y-52439500D01*
X82803897Y-52446398D01*
X82651197Y-52478855D01*
X82651192Y-52478857D01*
X82478270Y-52555848D01*
X82478265Y-52555851D01*
X82325129Y-52667111D01*
X82198466Y-52807785D01*
X82103821Y-52971715D01*
X82103818Y-52971722D01*
X82067147Y-53084585D01*
X82045326Y-53151744D01*
X82025540Y-53340000D01*
X64953000Y-53340000D01*
X64953000Y-53232400D01*
X64938095Y-53052524D01*
X64878983Y-52819095D01*
X64782255Y-52598578D01*
X64650551Y-52396990D01*
X64487463Y-52219829D01*
X64330505Y-52097664D01*
X64297441Y-52071929D01*
X64085665Y-51957321D01*
X64085656Y-51957318D01*
X63857916Y-51879134D01*
X63658800Y-51845908D01*
X63620399Y-51839500D01*
X63379601Y-51839500D01*
X63341200Y-51845908D01*
X63142083Y-51879134D01*
X62914343Y-51957318D01*
X62914334Y-51957321D01*
X62702558Y-52071929D01*
X62606195Y-52146932D01*
X62512537Y-52219829D01*
X62512534Y-52219831D01*
X62512534Y-52219832D01*
X62349450Y-52396988D01*
X62349446Y-52396994D01*
X62333507Y-52421389D01*
X62280359Y-52466744D01*
X62211127Y-52476165D01*
X62147793Y-52446661D01*
X62125892Y-52421385D01*
X62110154Y-52397296D01*
X61947126Y-52220202D01*
X61947116Y-52220193D01*
X61757168Y-52072350D01*
X61757159Y-52072344D01*
X61545468Y-51957784D01*
X61545454Y-51957778D01*
X61317791Y-51879619D01*
X61210000Y-51861633D01*
X61210000Y-52848316D01*
X61181181Y-52830791D01*
X61035596Y-52790000D01*
X60922378Y-52790000D01*
X60810217Y-52805416D01*
X60710000Y-52848946D01*
X60710000Y-51861633D01*
X60709999Y-51861633D01*
X60602208Y-51879619D01*
X60374545Y-51957778D01*
X60374531Y-51957784D01*
X60162840Y-52072344D01*
X60162838Y-52072345D01*
X60020252Y-52183325D01*
X59955258Y-52208967D01*
X59886718Y-52195400D01*
X59836393Y-52146932D01*
X59827907Y-52128801D01*
X59816297Y-52097671D01*
X59816293Y-52097664D01*
X59730047Y-51982455D01*
X59730044Y-51982452D01*
X59614835Y-51896206D01*
X59614828Y-51896202D01*
X59479982Y-51845908D01*
X59479983Y-51845908D01*
X59420383Y-51839501D01*
X59420381Y-51839500D01*
X59420373Y-51839500D01*
X59420364Y-51839500D01*
X57419629Y-51839500D01*
X57419623Y-51839501D01*
X57360016Y-51845908D01*
X57225171Y-51896202D01*
X57225164Y-51896206D01*
X57109955Y-51982452D01*
X57109952Y-51982455D01*
X57023706Y-52097664D01*
X57023702Y-52097671D01*
X56973408Y-52232517D01*
X56967001Y-52292116D01*
X56967000Y-52292135D01*
X56967000Y-54387870D01*
X34290500Y-54387870D01*
X34290500Y-48260000D01*
X113394540Y-48260000D01*
X113414326Y-48448256D01*
X113414327Y-48448259D01*
X113472818Y-48628277D01*
X113472821Y-48628284D01*
X113567467Y-48792216D01*
X113694129Y-48932888D01*
X113847265Y-49044148D01*
X113847270Y-49044151D01*
X114020192Y-49121142D01*
X114020197Y-49121144D01*
X114205354Y-49160500D01*
X114205355Y-49160500D01*
X114394644Y-49160500D01*
X114394646Y-49160500D01*
X114579803Y-49121144D01*
X114752730Y-49044151D01*
X114905871Y-48932888D01*
X114939986Y-48895000D01*
X117077540Y-48895000D01*
X117097326Y-49083256D01*
X117097327Y-49083259D01*
X117155818Y-49263277D01*
X117155821Y-49263284D01*
X117250467Y-49427216D01*
X117377129Y-49567888D01*
X117530265Y-49679148D01*
X117530270Y-49679151D01*
X117703192Y-49756142D01*
X117703197Y-49756144D01*
X117888354Y-49795500D01*
X117888355Y-49795500D01*
X118077644Y-49795500D01*
X118077646Y-49795500D01*
X118262803Y-49756144D01*
X118435730Y-49679151D01*
X118588871Y-49567888D01*
X118715533Y-49427216D01*
X118810179Y-49263284D01*
X118868674Y-49083256D01*
X118888460Y-48895000D01*
X118868674Y-48706744D01*
X118810179Y-48526716D01*
X118715533Y-48362784D01*
X118588871Y-48222112D01*
X118588870Y-48222111D01*
X118435734Y-48110851D01*
X118435729Y-48110848D01*
X118262807Y-48033857D01*
X118262802Y-48033855D01*
X118117001Y-48002865D01*
X118077646Y-47994500D01*
X117888354Y-47994500D01*
X117855897Y-48001398D01*
X117703197Y-48033855D01*
X117703192Y-48033857D01*
X117530270Y-48110848D01*
X117530265Y-48110851D01*
X117377129Y-48222111D01*
X117250466Y-48362785D01*
X117155821Y-48526715D01*
X117155818Y-48526722D01*
X117122819Y-48628284D01*
X117097326Y-48706744D01*
X117077540Y-48895000D01*
X114939986Y-48895000D01*
X115032533Y-48792216D01*
X115127179Y-48628284D01*
X115185674Y-48448256D01*
X115205460Y-48260000D01*
X115185674Y-48071744D01*
X115127179Y-47891716D01*
X115032533Y-47727784D01*
X114905871Y-47587112D01*
X114905870Y-47587111D01*
X114752734Y-47475851D01*
X114752729Y-47475848D01*
X114579807Y-47398857D01*
X114579802Y-47398855D01*
X114434001Y-47367865D01*
X114394646Y-47359500D01*
X114205354Y-47359500D01*
X114172897Y-47366398D01*
X114020197Y-47398855D01*
X114020192Y-47398857D01*
X113847270Y-47475848D01*
X113847265Y-47475851D01*
X113694129Y-47587111D01*
X113567466Y-47727785D01*
X113472821Y-47891715D01*
X113472818Y-47891722D01*
X113426636Y-48033857D01*
X113414326Y-48071744D01*
X113394540Y-48260000D01*
X34290500Y-48260000D01*
X34290500Y-33020000D01*
X36934422Y-33020000D01*
X36954722Y-33407339D01*
X37015397Y-33790427D01*
X37015397Y-33790429D01*
X37115788Y-34165094D01*
X37254787Y-34527197D01*
X37430877Y-34872793D01*
X37642122Y-35198082D01*
X37804497Y-35398598D01*
X37886219Y-35499516D01*
X38160484Y-35773781D01*
X38160488Y-35773784D01*
X38461917Y-36017877D01*
X38787206Y-36229122D01*
X38787211Y-36229125D01*
X39132806Y-36405214D01*
X39494913Y-36544214D01*
X39869567Y-36644602D01*
X40252662Y-36705278D01*
X40618576Y-36724455D01*
X40639999Y-36725578D01*
X40640000Y-36725578D01*
X40640001Y-36725578D01*
X40660301Y-36724514D01*
X41027338Y-36705278D01*
X41410433Y-36644602D01*
X41785087Y-36544214D01*
X42147194Y-36405214D01*
X42492789Y-36229125D01*
X42818084Y-36017876D01*
X43119516Y-35773781D01*
X43393781Y-35499516D01*
X43637876Y-35198084D01*
X43797137Y-34952844D01*
X59905000Y-34952844D01*
X59911401Y-35012372D01*
X59911403Y-35012379D01*
X59961645Y-35147086D01*
X59961649Y-35147093D01*
X60047809Y-35262187D01*
X60047812Y-35262190D01*
X60162906Y-35348350D01*
X60162913Y-35348354D01*
X60297620Y-35398596D01*
X60297627Y-35398598D01*
X60357155Y-35404999D01*
X60357172Y-35405000D01*
X61405000Y-35405000D01*
X61405000Y-34259310D01*
X61413817Y-34264158D01*
X61572886Y-34305000D01*
X61695894Y-34305000D01*
X61817933Y-34289583D01*
X61905000Y-34255110D01*
X61905000Y-35405000D01*
X62952828Y-35405000D01*
X62952844Y-35404999D01*
X63012372Y-35398598D01*
X63012379Y-35398596D01*
X63147086Y-35348354D01*
X63147093Y-35348350D01*
X63262187Y-35262190D01*
X63262190Y-35262187D01*
X63348350Y-35147093D01*
X63348354Y-35147086D01*
X63398596Y-35012379D01*
X63398598Y-35012372D01*
X63404999Y-34952844D01*
X63405000Y-34952827D01*
X63405000Y-33905000D01*
X62255728Y-33905000D01*
X62278100Y-33857457D01*
X62308873Y-33696138D01*
X62306285Y-33655004D01*
X67399592Y-33655004D01*
X67419196Y-33916620D01*
X67419197Y-33916625D01*
X67477576Y-34172402D01*
X67477578Y-34172411D01*
X67477580Y-34172416D01*
X67573432Y-34416643D01*
X67704614Y-34643857D01*
X67836736Y-34809533D01*
X67868198Y-34848985D01*
X68044289Y-35012372D01*
X68060521Y-35027433D01*
X68277296Y-35175228D01*
X68277301Y-35175230D01*
X68277302Y-35175231D01*
X68277303Y-35175232D01*
X68402843Y-35235688D01*
X68513673Y-35289061D01*
X68513674Y-35289061D01*
X68513677Y-35289063D01*
X68764385Y-35366396D01*
X69023818Y-35405500D01*
X69286182Y-35405500D01*
X69545615Y-35366396D01*
X69796323Y-35289063D01*
X70032704Y-35175228D01*
X70249479Y-35027433D01*
X70329867Y-34952844D01*
X94830000Y-34952844D01*
X94836401Y-35012372D01*
X94836403Y-35012379D01*
X94886645Y-35147086D01*
X94886649Y-35147093D01*
X94972809Y-35262187D01*
X94972812Y-35262190D01*
X95087906Y-35348350D01*
X95087913Y-35348354D01*
X95222620Y-35398596D01*
X95222627Y-35398598D01*
X95282155Y-35404999D01*
X95282172Y-35405000D01*
X96330000Y-35405000D01*
X96330000Y-34259310D01*
X96338817Y-34264158D01*
X96497886Y-34305000D01*
X96620894Y-34305000D01*
X96742933Y-34289583D01*
X96830000Y-34255110D01*
X96830000Y-35405000D01*
X97877828Y-35405000D01*
X97877844Y-35404999D01*
X97937372Y-35398598D01*
X97937379Y-35398596D01*
X98072086Y-35348354D01*
X98072093Y-35348350D01*
X98187187Y-35262190D01*
X98187190Y-35262187D01*
X98273350Y-35147093D01*
X98273354Y-35147086D01*
X98323596Y-35012379D01*
X98323598Y-35012372D01*
X98329999Y-34952844D01*
X98330000Y-34952827D01*
X98330000Y-33905000D01*
X97180728Y-33905000D01*
X97203100Y-33857457D01*
X97233873Y-33696138D01*
X97231285Y-33655004D01*
X102324592Y-33655004D01*
X102344196Y-33916620D01*
X102344197Y-33916625D01*
X102402576Y-34172402D01*
X102402578Y-34172411D01*
X102402580Y-34172416D01*
X102498432Y-34416643D01*
X102629614Y-34643857D01*
X102761736Y-34809533D01*
X102793198Y-34848985D01*
X102969289Y-35012372D01*
X102985521Y-35027433D01*
X103202296Y-35175228D01*
X103202301Y-35175230D01*
X103202302Y-35175231D01*
X103202303Y-35175232D01*
X103327843Y-35235688D01*
X103438673Y-35289061D01*
X103438674Y-35289061D01*
X103438677Y-35289063D01*
X103689385Y-35366396D01*
X103948818Y-35405500D01*
X104211182Y-35405500D01*
X104470615Y-35366396D01*
X104721323Y-35289063D01*
X104957704Y-35175228D01*
X105174479Y-35027433D01*
X105366805Y-34848981D01*
X105530386Y-34643857D01*
X105661568Y-34416643D01*
X105757420Y-34172416D01*
X105815802Y-33916630D01*
X105816674Y-33905000D01*
X105835408Y-33655004D01*
X105835408Y-33654995D01*
X105815803Y-33393379D01*
X105815802Y-33393374D01*
X105815802Y-33393370D01*
X105757420Y-33137584D01*
X105711272Y-33020000D01*
X123294422Y-33020000D01*
X123314722Y-33407339D01*
X123375397Y-33790427D01*
X123375397Y-33790429D01*
X123475788Y-34165094D01*
X123614787Y-34527197D01*
X123790877Y-34872793D01*
X124002122Y-35198082D01*
X124164497Y-35398598D01*
X124246219Y-35499516D01*
X124520484Y-35773781D01*
X124520488Y-35773784D01*
X124821917Y-36017877D01*
X125147206Y-36229122D01*
X125147211Y-36229125D01*
X125492806Y-36405214D01*
X125854913Y-36544214D01*
X126229567Y-36644602D01*
X126612662Y-36705278D01*
X126978576Y-36724455D01*
X126999999Y-36725578D01*
X127000000Y-36725578D01*
X127000001Y-36725578D01*
X127020301Y-36724514D01*
X127387338Y-36705278D01*
X127770433Y-36644602D01*
X128145087Y-36544214D01*
X128507194Y-36405214D01*
X128852789Y-36229125D01*
X129178084Y-36017876D01*
X129479516Y-35773781D01*
X129753781Y-35499516D01*
X129997876Y-35198084D01*
X130209125Y-34872789D01*
X130385214Y-34527194D01*
X130524214Y-34165087D01*
X130624602Y-33790433D01*
X130685278Y-33407338D01*
X130705578Y-33020000D01*
X130685278Y-32632662D01*
X130624602Y-32249567D01*
X130524214Y-31874913D01*
X130385214Y-31512806D01*
X130209125Y-31167211D01*
X129997876Y-30841916D01*
X129753781Y-30540484D01*
X129479516Y-30266219D01*
X129178084Y-30022124D01*
X129178082Y-30022122D01*
X128852793Y-29810877D01*
X128507197Y-29634787D01*
X128145094Y-29495788D01*
X128145087Y-29495786D01*
X127770433Y-29395398D01*
X127770429Y-29395397D01*
X127770428Y-29395397D01*
X127387339Y-29334722D01*
X127000001Y-29314422D01*
X126999999Y-29314422D01*
X126612660Y-29334722D01*
X126229572Y-29395397D01*
X126229570Y-29395397D01*
X125854905Y-29495788D01*
X125492802Y-29634787D01*
X125147206Y-29810877D01*
X124821917Y-30022122D01*
X124520488Y-30266215D01*
X124520480Y-30266222D01*
X124246222Y-30540480D01*
X124246215Y-30540488D01*
X124002122Y-30841917D01*
X123790877Y-31167206D01*
X123614787Y-31512802D01*
X123475788Y-31874905D01*
X123375397Y-32249570D01*
X123375397Y-32249572D01*
X123314722Y-32632660D01*
X123294422Y-33019999D01*
X123294422Y-33020000D01*
X105711272Y-33020000D01*
X105661568Y-32893357D01*
X105530386Y-32666143D01*
X105366805Y-32461019D01*
X105366804Y-32461018D01*
X105366801Y-32461014D01*
X105174479Y-32282567D01*
X105126077Y-32249567D01*
X104957704Y-32134772D01*
X104957700Y-32134770D01*
X104957697Y-32134768D01*
X104957696Y-32134767D01*
X104721325Y-32020938D01*
X104721327Y-32020938D01*
X104470623Y-31943606D01*
X104470619Y-31943605D01*
X104470615Y-31943604D01*
X104345823Y-31924794D01*
X104211187Y-31904500D01*
X104211182Y-31904500D01*
X103948818Y-31904500D01*
X103948812Y-31904500D01*
X103787247Y-31928853D01*
X103689385Y-31943604D01*
X103689382Y-31943605D01*
X103689376Y-31943606D01*
X103438673Y-32020938D01*
X103202303Y-32134767D01*
X103202302Y-32134768D01*
X102985520Y-32282567D01*
X102793198Y-32461014D01*
X102629614Y-32666143D01*
X102498432Y-32893356D01*
X102402582Y-33137578D01*
X102402576Y-33137597D01*
X102344197Y-33393374D01*
X102344196Y-33393379D01*
X102324592Y-33654995D01*
X102324592Y-33655004D01*
X97231285Y-33655004D01*
X97223561Y-33532234D01*
X97182220Y-33405000D01*
X98330000Y-33405000D01*
X98330000Y-32357172D01*
X98329999Y-32357155D01*
X98323598Y-32297627D01*
X98323596Y-32297620D01*
X98273354Y-32162913D01*
X98273350Y-32162906D01*
X98187190Y-32047812D01*
X98187187Y-32047809D01*
X98072093Y-31961649D01*
X98072086Y-31961645D01*
X97937379Y-31911403D01*
X97937372Y-31911401D01*
X97877844Y-31905000D01*
X96830000Y-31905000D01*
X96830000Y-33050689D01*
X96821183Y-33045842D01*
X96662114Y-33005000D01*
X96539106Y-33005000D01*
X96417067Y-33020417D01*
X96330000Y-33054889D01*
X96330000Y-31905000D01*
X95282155Y-31905000D01*
X95222627Y-31911401D01*
X95222620Y-31911403D01*
X95087913Y-31961645D01*
X95087906Y-31961649D01*
X94972812Y-32047809D01*
X94972809Y-32047812D01*
X94886649Y-32162906D01*
X94886645Y-32162913D01*
X94836403Y-32297620D01*
X94836401Y-32297627D01*
X94830000Y-32357155D01*
X94830000Y-33405000D01*
X95979272Y-33405000D01*
X95956900Y-33452543D01*
X95926127Y-33613862D01*
X95936439Y-33777766D01*
X95977780Y-33905000D01*
X94830000Y-33905000D01*
X94830000Y-34952844D01*
X70329867Y-34952844D01*
X70441805Y-34848981D01*
X70605386Y-34643857D01*
X70736568Y-34416643D01*
X70832420Y-34172416D01*
X70890802Y-33916630D01*
X70891674Y-33905000D01*
X70910408Y-33655004D01*
X70910408Y-33654995D01*
X70890803Y-33393379D01*
X70890802Y-33393374D01*
X70890802Y-33393370D01*
X70832420Y-33137584D01*
X70736568Y-32893357D01*
X70605386Y-32666143D01*
X70441805Y-32461019D01*
X70441804Y-32461018D01*
X70441801Y-32461014D01*
X70249479Y-32282567D01*
X70201077Y-32249567D01*
X70032704Y-32134772D01*
X70032700Y-32134770D01*
X70032697Y-32134768D01*
X70032696Y-32134767D01*
X69796325Y-32020938D01*
X69796327Y-32020938D01*
X69545623Y-31943606D01*
X69545619Y-31943605D01*
X69545615Y-31943604D01*
X69420823Y-31924794D01*
X69286187Y-31904500D01*
X69286182Y-31904500D01*
X69023818Y-31904500D01*
X69023812Y-31904500D01*
X68862247Y-31928853D01*
X68764385Y-31943604D01*
X68764382Y-31943605D01*
X68764376Y-31943606D01*
X68513673Y-32020938D01*
X68277303Y-32134767D01*
X68277302Y-32134768D01*
X68060520Y-32282567D01*
X67868198Y-32461014D01*
X67704614Y-32666143D01*
X67573432Y-32893356D01*
X67477582Y-33137578D01*
X67477576Y-33137597D01*
X67419197Y-33393374D01*
X67419196Y-33393379D01*
X67399592Y-33654995D01*
X67399592Y-33655004D01*
X62306285Y-33655004D01*
X62298561Y-33532234D01*
X62257220Y-33405000D01*
X63405000Y-33405000D01*
X63405000Y-32357172D01*
X63404999Y-32357155D01*
X63398598Y-32297627D01*
X63398596Y-32297620D01*
X63348354Y-32162913D01*
X63348350Y-32162906D01*
X63262190Y-32047812D01*
X63262187Y-32047809D01*
X63147093Y-31961649D01*
X63147086Y-31961645D01*
X63012379Y-31911403D01*
X63012372Y-31911401D01*
X62952844Y-31905000D01*
X61905000Y-31905000D01*
X61905000Y-33050689D01*
X61896183Y-33045842D01*
X61737114Y-33005000D01*
X61614106Y-33005000D01*
X61492067Y-33020417D01*
X61405000Y-33054889D01*
X61405000Y-31905000D01*
X60357155Y-31905000D01*
X60297627Y-31911401D01*
X60297620Y-31911403D01*
X60162913Y-31961645D01*
X60162906Y-31961649D01*
X60047812Y-32047809D01*
X60047809Y-32047812D01*
X59961649Y-32162906D01*
X59961645Y-32162913D01*
X59911403Y-32297620D01*
X59911401Y-32297627D01*
X59905000Y-32357155D01*
X59905000Y-33405000D01*
X61054272Y-33405000D01*
X61031900Y-33452543D01*
X61001127Y-33613862D01*
X61011439Y-33777766D01*
X61052780Y-33905000D01*
X59905000Y-33905000D01*
X59905000Y-34952844D01*
X43797137Y-34952844D01*
X43849125Y-34872789D01*
X44025214Y-34527194D01*
X44164214Y-34165087D01*
X44264602Y-33790433D01*
X44325278Y-33407338D01*
X44345578Y-33020000D01*
X44325278Y-32632662D01*
X44264602Y-32249567D01*
X44164214Y-31874913D01*
X44025214Y-31512806D01*
X43849125Y-31167211D01*
X43637876Y-30841916D01*
X43393781Y-30540484D01*
X43119516Y-30266219D01*
X42818084Y-30022124D01*
X42818082Y-30022122D01*
X42492793Y-29810877D01*
X42147197Y-29634787D01*
X41785094Y-29495788D01*
X41785087Y-29495786D01*
X41410433Y-29395398D01*
X41410429Y-29395397D01*
X41410428Y-29395397D01*
X41027339Y-29334722D01*
X40640001Y-29314422D01*
X40639999Y-29314422D01*
X40252660Y-29334722D01*
X39869572Y-29395397D01*
X39869570Y-29395397D01*
X39494905Y-29495788D01*
X39132802Y-29634787D01*
X38787206Y-29810877D01*
X38461917Y-30022122D01*
X38160488Y-30266215D01*
X38160480Y-30266222D01*
X37886222Y-30540480D01*
X37886215Y-30540488D01*
X37642122Y-30841917D01*
X37430877Y-31167206D01*
X37254787Y-31512802D01*
X37115788Y-31874905D01*
X37015397Y-32249570D01*
X37015397Y-32249572D01*
X36954722Y-32632660D01*
X36934422Y-33019999D01*
X36934422Y-33020000D01*
X34290500Y-33020000D01*
X34290500Y-28064500D01*
X34310185Y-27997461D01*
X34362989Y-27951706D01*
X34414500Y-27940500D01*
X134495500Y-27940500D01*
X134562539Y-27960185D01*
G37*
%TD.AperFunction*%
%TD*%
M02*
